<?xml version="1.0" encoding="utf-8"?>
<!-- Generator: Adobe Illustrator 27.5.0, SVG Export Plug-In . SVG Version: 6.00 Build 0)  -->
<svg version="1.1" xmlns="http://www.w3.org/2000/svg" xmlns:xlink="http://www.w3.org/1999/xlink" x="0px" y="0px"
	 viewBox="0 0 500 500" style="enable-background:new 0 0 500 500;" xml:space="preserve">
<g id="Background_Simple">
	<g>
		<g>
			<g>
				<path style="fill:#FFE6DE;" d="M469.374,172.466c-19.187-46.079-57.585-82.424-102.274-102.591
					c-44.689-20.167-95.208-24.834-143.581-17.843c-45.498,6.576-90.069,23.565-126.32,52.58
					c-36.251,29.015-63.711,70.514-72.681,116.775c-7.611,39.247-1.922,79.967,7.528,118.766
					c5.74,23.569,18.827,48.644,34.503,66.955c25.111,29.332,67.661,55.949,99.144,56.053l-3.533,0.115
					c104.623,16.244,213.624-22.17,264.977-77.892C478.488,329.663,498.709,242.918,469.374,172.466z"/>
			</g>
		</g>
		<g>
			<g>
				<path style="fill:#FFFFFF;" d="M198.627,86.11c0.499,0.644,10.749,13.612,10.749,13.612s-13.527,9.448-7.303,9.821
					c6.224,0.374,15.234,1.535,15.234,1.535s-2.725,13.333,0.235,11.265c2.96-2.067,10.427-9.519,10.427-9.519
					s14.086,13.766,12.774,7.974c-1.312-5.792-4.591-13.689-4.591-13.689s21.678-16.631,16.003-15.152s-19.162,2.802-19.162,2.802
					s-2.108-24.719-5.098-21.885c-2.99,2.834-8.316,17.238-8.316,17.238S197.52,84.68,198.627,86.11z"/>
			</g>
		</g>
		<g>
			<g>
				<g>
					<g>
						<path style="fill:#FFFFFF;" d="M391.475,315.785c-0.541,0.12-19.858,9.848-10.789,26.698
							c9.069,16.85,22.099,8.229,22.49,8.199c0.391-0.03,1.321,2.888,2.494,2.799c1.173-0.089,10.5-4.653,10.231-6.127
							c-0.27-1.474-1.892-3.16-1.892-3.16s12.426-8.46,2.095-24.149C407.068,306.324,391.475,315.785,391.475,315.785z"/>
					</g>
				</g>
				<g>
					<g>
						<g>
							<path style="fill:#FFE6DE;" d="M406.799,350.523c-2.002-3.448-3.911-6.976-6.031-10.353c-1.497-2.384-4.001-4.841-7.095-4
								c-2.543,0.691-3.361,3.526-2.462,5.799c1.03,2.605,3.888,3.644,6.497,3.733c5.846,0.199,11.581-3.565,14.116-8.762
								c1.185-2.43,2.062-5.814,0.268-8.181c-1.462-1.929-4.419-2.113-6.275-0.648c-2.697,2.129-1.348,5.979-0.357,8.617
								c1.541,4.101,3.488,8.034,5.797,11.757c0.485,0.782,1.714,0.049,1.228-0.735c-1.569-2.529-2.979-5.151-4.195-7.867
								c-1.037-2.318-2.345-4.953-2.604-7.515c-0.239-2.354,1.543-4.516,4.048-3.634c2.607,0.917,2.054,4.43,1.306,6.432
								c-1.633,4.366-5.628,7.732-10.143,8.782c-2.231,0.519-4.965,0.596-6.931-0.757c-1.672-1.151-2.671-4.412-0.335-5.493
								c3.227-1.493,5.582,2.613,6.873,4.834c1.69,2.909,3.378,5.818,5.067,8.728C406.034,352.055,407.262,351.32,406.799,350.523
								L406.799,350.523z"/>
						</g>
					</g>
				</g>
				<g>
					<g>
						<g>
							<path style="fill:#FFFFFF;" d="M402.791,353.72c0,0,3.441,4.573,4.503,5.468s3.855,1.603,6.072,0.616
								c2.216-0.987,4.456-2.668,4.456-2.668s2.466-2.328,1.361-5.493c-1.106-3.165-2.349-6.094-2.349-6.094
								C415.626,345.404,402.067,352.771,402.791,353.72z"/>
						</g>
					</g>
					<g>
						<g>
							<g>
								<path style="fill:#FFE6DE;" d="M404.972,356.849c4.805-1.94,9.282-4.591,13.304-7.859c0.712-0.578-0.328-1.563-1.035-0.988
									c-3.806,3.092-8.105,5.632-12.651,7.468C403.744,355.812,404.119,357.194,404.972,356.849L404.972,356.849z"/>
							</g>
						</g>
					</g>
					<g>
						<g>
							<g>
								<path style="fill:#FFE6DE;" d="M407.712,359.73c4.522-1.334,8.66-3.787,12.006-7.109c0.653-0.648-0.381-1.638-1.035-0.988
									c-3.165,3.142-7.076,5.456-11.353,6.718C406.446,358.612,406.828,359.991,407.712,359.73L407.712,359.73z"/>
							</g>
						</g>
					</g>
				</g>
			</g>
			<g>
				<g>
					<path style="fill:#FFE6DE;" d="M384.223,340.928c-1.402-5.356-0.258-9.787,1.998-14.649c0.521-1.123-0.953-2.576-1.87-1.443
						c-3.755,4.637-3.713,11.387-1.052,16.482C383.568,341.834,384.366,341.475,384.223,340.928L384.223,340.928z"/>
				</g>
			</g>
			<g>
				<g>
					<g>
						<path style="fill:#FFFFFF;" d="M392.216,309.673c0.694-1.77,1.295-3.519,1.761-5.364c0.518-2.05-2.738-2.939-3.136-0.897
							c-0.386,1.985-0.612,3.937-0.744,5.953C390.012,310.662,391.799,310.737,392.216,309.673L392.216,309.673z"/>
					</g>
				</g>
				<g>
					<g>
						<path style="fill:#FFFFFF;" d="M384.018,311.99c-1.516-1.32-3.04-2.54-4.712-3.66c-1.743-1.167-3.509,1.712-1.698,2.785
							c1.732,1.026,3.489,1.86,5.333,2.659C383.918,314.199,384.797,312.669,384.018,311.99L384.018,311.99z"/>
					</g>
				</g>
				<g>
					<g>
						<path style="fill:#FFFFFF;" d="M388.489,310.527c-0.955-2.284-1.841-4.64-3.075-6.79c-1.004-1.75-3.517-0.291-2.703,1.501
							c1.022,2.25,2.411,4.338,3.705,6.44C387.233,313.007,389.068,311.912,388.489,310.527L388.489,310.527z"/>
					</g>
				</g>
			</g>
		</g>
		<g>
			<g>
				<g>
					<g>
						<path style="fill:#FFFFFF;" d="M90.942,250.016c-1.08,0-1.724-1.37-2.195-2.371c-0.075-0.159-0.166-0.354-0.243-0.501
							c-9.387,4.002-17.467,0.286-22.176-10.195c-2.542-5.66-2.497-10.967,0.134-15.774c3.717-6.79,11.611-10.412,12.817-10.794
							c0.927-0.455,16.936-8.011,24.923,6.242c8.273,14.761-1.171,22.666-3.512,24.324c0.483,0.668,1.297,1.943,1.424,3.102
							c0.034,0.313-0.094,0.628-0.393,0.963c-1.606,1.8-9.458,4.999-10.774,5.005C90.946,250.016,90.943,250.016,90.942,250.016z
							 M88.657,245.987c0.48,0,0.694,0.455,1.048,1.207c0.248,0.528,0.829,1.763,1.237,1.763h0c2.164-0.009,9.933-4.176,10.12-4.84
							c-0.145-1.265-1.53-2.942-1.544-2.959l-0.4-0.48l0.54-0.316c0.512-0.299,12.431-7.5,3.619-23.222
							c-3.224-5.753-8.166-8.481-14.651-8.11c-4.893,0.28-8.867,2.292-8.907,2.312l-0.137,0.049
							c-0.326,0.119-9.089,3.641-12.637,11.164c-2.014,4.269-1.897,8.966,0.347,13.959c6.081,13.533,15.646,11.856,20.804,9.652
							c0.321-0.138,0.418-0.179,0.557-0.179C88.655,245.987,88.657,245.987,88.657,245.987z"/>
					</g>
				</g>
				<g>
					<g>
						<g>
							<path style="fill:#FFFFFF;" d="M92.284,246.616c-1.751-3.583-3.403-7.238-5.276-10.758c-1.323-2.485-3.645-5.114-6.791-4.497
								c-2.586,0.508-3.604,3.277-2.87,5.608c0.842,2.672,3.617,3.913,6.214,4.188c5.817,0.616,11.806-2.728,14.706-7.731
								c1.356-2.339,2.472-5.652,0.852-8.141c-1.32-2.028-4.257-2.423-6.213-1.094c-2.842,1.931-1.772,5.867-0.971,8.57
								c1.244,4.201,2.906,8.263,4.943,12.141c0.428,0.814,1.706,0.171,1.277-0.646c-1.384-2.634-2.603-5.35-3.622-8.147
								c-0.869-2.386-1.985-5.108-2.061-7.682c-0.07-2.366,1.861-4.395,4.298-3.336c2.535,1.101,1.732,4.566,0.843,6.509
								c-1.94,4.238-6.166,7.31-10.745,8.035c-2.263,0.358-4.995,0.24-6.86-1.25c-1.585-1.267-2.35-4.591,0.058-5.503
								c3.326-1.259,5.381,3.005,6.51,5.312c1.478,3.022,2.954,6.045,4.431,9.067C91.411,248.089,92.688,247.444,92.284,246.616
								L92.284,246.616z"/>
						</g>
					</g>
				</g>
				<g>
					<g>
						<g>
							<path style="fill:#FFFFFF;" d="M88.057,249.518c0,0,3.105,4.807,4.101,5.775c0.996,0.968,3.731,1.875,6.012,1.048
								c2.281-0.826,4.635-2.343,4.635-2.343s2.626-2.145,1.75-5.381c-0.877-3.236-1.907-6.246-1.907-6.246
								C101.453,242.14,87.403,248.52,88.057,249.518z"/>
						</g>
					</g>
					<g>
						<g>
							<g>
								<path style="fill:#FFE6DE;" d="M90.009,252.796c4.932-1.592,9.587-3.917,13.831-6.888c0.751-0.526-0.215-1.583-0.962-1.06
									c-4.017,2.812-8.486,5.039-13.152,6.545C88.858,251.673,89.134,253.078,90.009,252.796L90.009,252.796z"/>
							</g>
						</g>
					</g>
					<g>
						<g>
							<g>
								<path style="fill:#FFE6DE;" d="M92.537,255.865c4.606-1.008,8.909-3.159,12.483-6.233c0.698-0.6-0.263-1.661-0.962-1.06
									c-3.381,2.908-7.447,4.937-11.804,5.89C91.353,254.658,91.636,256.061,92.537,255.865L92.537,255.865z"/>
							</g>
						</g>
					</g>
				</g>
			</g>
			<g>
				<g>
					<path style="fill:#FFFFFF;" d="M70.443,235.398c-1.02-5.454,0.498-9.815,3.093-14.506c0.639-1.155-0.92-2.457-1.87-1.443
						c-4.07,4.345-4.414,11.11-2.148,16.339C69.76,236.346,70.541,235.922,70.443,235.398L70.443,235.398z"/>
				</g>
			</g>
			<g>
				<g>
					<g>
						<path style="fill:#FFFFFF;" d="M80.655,204.829c0.819-1.716,1.543-3.417,2.14-5.224c0.663-2.008-2.521-3.127-3.063-1.118
							c-0.527,1.952-0.892,3.883-1.168,5.885C78.387,205.657,80.164,205.86,80.655,204.829L80.655,204.829z"/>
					</g>
				</g>
				<g>
					<g>
						<path style="fill:#FFFFFF;" d="M72.313,206.554c-1.418-1.425-2.851-2.75-4.439-3.987c-1.655-1.289-3.623,1.458-1.893,2.657
							c1.654,1.147,3.347,2.104,5.129,3.034C72.056,208.75,73.042,207.286,72.313,206.554L72.313,206.554z"/>
					</g>
				</g>
				<g>
					<g>
						<path style="fill:#FFFFFF;" d="M76.877,205.414c-0.789-2.346-1.505-4.759-2.582-6.992c-0.877-1.817-3.487-0.541-2.803,1.304
							c0.858,2.317,2.095,4.499,3.235,6.688C75.447,207.798,77.356,206.837,76.877,205.414L76.877,205.414z"/>
					</g>
				</g>
			</g>
		</g>
		<g>
			<g>
				<g>
					<g>
						<path style="fill:#FFFFFF;" d="M156.979,120.411c-0.048-0.552-7.152-20.981-25.048-14.206
							c-17.896,6.774-11.063,20.825-11.085,21.216c-0.022,0.392-3.037,0.93-3.103,2.104c-0.066,1.175,3.232,11.021,4.729,10.948
							c1.497-0.073,3.381-1.46,3.381-1.46s6.752,13.43,23.664,5.252C164.308,137.113,156.979,120.411,156.979,120.411z"/>
					</g>
				</g>
				<g>
					<g>
						<g>
							<path style="fill:#FFE6DE;" d="M120.528,131.036c3.682-1.531,7.43-2.96,11.056-4.618c2.56-1.17,5.325-3.33,4.898-6.507
								c-0.351-2.612-3.053-3.796-5.425-3.203c-2.718,0.679-4.124,3.375-4.555,5.95c-0.966,5.77,2.011,11.95,6.83,15.146
								c2.253,1.495,5.493,2.809,8.074,1.342c2.104-1.196,2.676-4.103,1.467-6.136c-1.756-2.954-5.749-2.122-8.495-1.487
								c-4.268,0.988-8.423,2.402-12.417,4.201c-0.839,0.378-0.274,1.693,0.567,1.314c2.713-1.222,5.498-2.276,8.351-3.124
								c2.434-0.723,5.218-1.673,7.792-1.594c2.365,0.073,4.274,2.123,3.071,4.491c-1.252,2.464-4.662,1.453-6.548,0.449
								c-4.114-2.193-6.924-6.596-7.372-11.21c-0.221-2.28,0.062-5,1.662-6.772c1.36-1.506,4.725-2.068,5.489,0.39
								c1.056,3.396-3.324,5.19-5.695,6.177c-3.106,1.293-6.212,2.584-9.318,3.876C119.11,130.076,119.677,131.389,120.528,131.036
								L120.528,131.036z"/>
						</g>
					</g>
				</g>
				<g>
					<g>
						<g>
							<path style="fill:#FFFFFF;" d="M117.887,126.641c0,0-4.986,2.809-6.012,3.745c-1.027,0.935-2.096,3.611-1.409,5.938
								c0.687,2.327,2.059,4.768,2.059,4.768s1.983,2.751,5.266,2.071c3.283-0.68,6.35-1.527,6.35-1.527
								C124.443,140.458,118.923,126.049,117.887,126.641z"/>
						</g>
					</g>
					<g>
						<g>
							<g>
								<path style="fill:#FFE6DE;" d="M114.497,128.392c1.291,5.019,3.331,9.805,6.041,14.222c0.48,0.782,1.592-0.119,1.116-0.896
									c-2.564-4.179-4.518-8.775-5.739-13.523C115.687,127.311,114.268,127.501,114.497,128.392L114.497,128.392z"/>
							</g>
						</g>
					</g>
					<g>
						<g>
							<g>
								<path style="fill:#FFE6DE;" d="M111.281,130.73c0.728,4.658,2.616,9.083,5.469,12.836c0.557,0.733,1.674-0.162,1.116-0.896
									c-2.699-3.55-4.478-7.732-5.167-12.138C112.557,129.622,111.139,129.819,111.281,130.73L111.281,130.73z"/>
							</g>
						</g>
					</g>
				</g>
			</g>
			<g>
				<g>
					<path style="fill:#FFE6DE;" d="M132.939,109.922c5.557-0.708,9.893,1.08,14.459,3.99c1.168,0.744,2.351-0.907,1.443-1.87
						c-4.009-4.252-10.78-5.037-16.036-3.114C132.313,109.108,132.333,109.999,132.939,109.922L132.939,109.922z"/>
				</g>
			</g>
			<g>
				<g>
					<g>
						<path style="fill:#FFFFFF;" d="M162.941,121.95c1.664,0.921,3.318,1.746,5.086,2.451c1.964,0.783,3.273-2.328,1.301-2.99
							c-1.917-0.644-3.822-1.125-5.804-1.521C162.251,119.635,161.942,121.397,162.941,121.95L162.941,121.95z"/>
					</g>
				</g>
				<g>
					<g>
						<path style="fill:#FFFFFF;" d="M161.722,113.518c1.508-1.329,2.917-2.68,4.247-4.19c1.386-1.574-1.236-3.704-2.538-2.05
							c-1.244,1.582-2.302,3.214-3.338,4.937C159.545,113.129,160.947,114.202,161.722,113.518L161.722,113.518z"/>
					</g>
				</g>
				<g>
					<g>
						<path style="fill:#FFFFFF;" d="M162.585,118.143c2.39-0.646,4.841-1.215,7.135-2.156c1.867-0.765,0.751-3.448-1.133-2.877
							c-2.365,0.717-4.617,1.82-6.871,2.826C160.292,116.572,161.135,118.535,162.585,118.143L162.585,118.143z"/>
					</g>
				</g>
			</g>
		</g>
		<g>
			<g>
				<path style="fill:#FFFFFF;" d="M105.755,173.932l2.583-7.865l2.933,7.865c0,0,5.86,0.997,5.928,1.543
					c0.067,0.534-5.608,2.207-5.608,2.207s-2.382,7.626-3.253,5.899c-0.871-1.727-1.715-5.55-1.715-5.55s-7.379-1.533-7.379-2.285
					C99.244,174.93,105.755,173.932,105.755,173.932z"/>
			</g>
		</g>
		<g>
			<g>
				<path style="fill:#FFFFFF;" d="M32.943,234.014l1.7-5.178l1.931,5.178c0,0,3.858,0.656,3.903,1.016
					c0.044,0.352-3.693,1.453-3.693,1.453s-1.568,5.021-2.142,3.884c-0.573-1.137-1.129-3.654-1.129-3.654s-4.859-1.009-4.859-1.505
					C28.655,234.672,32.943,234.014,32.943,234.014z"/>
			</g>
		</g>
		<g>
			<g>
				<path style="fill:#FFFFFF;" d="M270.624,75.254l1.701-5.178l1.931,5.178c0,0,3.858,0.656,3.903,1.016
					c0.044,0.352-3.693,1.453-3.693,1.453s-1.568,5.021-2.142,3.884c-0.573-1.137-1.129-3.654-1.129-3.654s-4.859-1.009-4.859-1.505
					C266.336,75.911,270.624,75.254,270.624,75.254z"/>
			</g>
		</g>
		<g>
			<g>
				<path style="fill:#FFFFFF;" d="M127.686,290.361l1.701-5.178l1.931,5.178c0,0,3.858,0.656,3.903,1.016
					c0.044,0.352-3.693,1.453-3.693,1.453s-1.568,5.021-2.142,3.884c-0.573-1.137-1.13-3.654-1.13-3.654s-4.858-1.009-4.858-1.505
					C123.399,291.019,127.686,290.361,127.686,290.361z"/>
			</g>
		</g>
		<g>
			<g>
				<path style="fill:#FFFFFF;" d="M103.523,400.452l1.701-5.178l1.931,5.178c0,0,3.858,0.656,3.903,1.016
					c0.044,0.352-3.693,1.453-3.693,1.453s-1.568,5.021-2.142,3.884c-0.574-1.137-1.13-3.654-1.13-3.654s-4.858-1.009-4.858-1.505
					C99.235,401.109,103.523,400.452,103.523,400.452z"/>
			</g>
		</g>
		<g>
			<g>
				<path style="fill:#FFFFFF;" d="M399.237,385.416l1.701-5.178l1.931,5.178c0,0,3.858,0.656,3.903,1.016
					c0.044,0.352-3.693,1.453-3.693,1.453s-1.568,5.021-2.142,3.884c-0.573-1.137-1.13-3.654-1.13-3.654s-4.858-1.009-4.858-1.505
					C394.95,386.074,399.237,385.416,399.237,385.416z"/>
			</g>
		</g>
		<g>
			<g>
				<path style="fill:#FFFFFF;" d="M51.982,293.632c0.499,0.644,10.749,13.612,10.749,13.612s-13.527,9.448-7.303,9.821
					c6.224,0.374,15.234,1.535,15.234,1.535s-2.725,13.332,0.235,11.265c2.96-2.067,10.427-9.519,10.427-9.519
					s14.086,13.766,12.774,7.974c-1.312-5.792-4.591-13.689-4.591-13.689S111.185,298,105.51,299.479
					c-5.675,1.479-19.162,2.802-19.162,2.802s-2.108-24.719-5.098-21.885c-2.99,2.834-8.316,17.237-8.316,17.237
					S50.875,292.202,51.982,293.632z"/>
			</g>
		</g>
	</g>
</g>
<g id="Light_bulbs">
	<g>
		<g>
			<g>
				<g>
					<path style="fill:#A0D2F4;" d="M195.59,198.378c-0.078-0.747-10.182-28.248-34.262-18.65
						c-24.079,9.598-14.493,28.468-14.513,28.998c-0.02,0.531-4.091,1.331-4.153,2.923c-0.061,1.592,4.638,14.851,6.663,14.716
						c2.025-0.135,4.545-2.058,4.545-2.058s9.463,18.031,32.176,6.555C205.911,220.827,195.59,198.378,195.59,198.378z"/>
				</g>
			</g>
			<g>
				<g>
					<g>
						<path style="fill:#421B36;" d="M146.469,213.629c4.951-2.161,9.993-4.184,14.866-6.516c3.44-1.646,7.134-4.636,6.481-8.93
							c-0.537-3.53-4.225-5.069-7.424-4.21c-3.665,0.984-5.506,4.668-6.029,8.167c-1.172,7.837,3.006,16.138,9.608,20.353
							c3.087,1.971,7.506,3.675,10.968,1.627c2.822-1.669,3.527-5.62,1.842-8.345c-2.448-3.959-7.838-2.739-11.542-1.813
							c-5.758,1.44-11.352,3.452-16.719,5.983c-1.127,0.532-0.331,2.299,0.799,1.766c3.646-1.72,7.393-3.212,11.237-4.428
							c3.279-1.037,7.029-2.389,10.516-2.343c3.206,0.043,5.84,2.775,4.265,6.011c-1.638,3.367-6.28,2.079-8.858,0.762
							c-5.624-2.872-9.535-8.77-10.25-15.009c-0.353-3.083-0.035-6.774,2.091-9.211c1.807-2.072,6.351-2.913,7.444,0.399
							c1.51,4.574-4.38,7.109-7.568,8.501c-4.176,1.824-8.353,3.646-12.529,5.469C144.526,212.363,145.325,214.129,146.469,213.629
							L146.469,213.629z"/>
					</g>
				</g>
			</g>
			<g>
				<g>
					<g>
						<path style="fill:#8380FF;" d="M142.788,207.74c0,0-6.687,3.923-8.055,5.214c-1.368,1.291-2.754,4.941-1.768,8.076
							c0.986,3.135,2.902,6.409,2.902,6.409s2.751,3.679,7.181,2.681c4.43-0.998,8.564-2.218,8.564-2.218
							C151.994,226.299,144.177,206.913,142.788,207.74z"/>
					</g>
				</g>
				<g>
					<g>
						<g>
							<path style="fill:#421B36;" d="M138.238,210.191c1.868,6.767,4.743,13.202,8.518,19.12c0.668,1.048,2.154-0.199,1.49-1.24
								c-3.572-5.6-6.326-11.779-8.093-18.181C139.825,208.699,137.907,208.99,138.238,210.191L138.238,210.191z"/>
						</g>
					</g>
				</g>
				<g>
					<g>
						<g>
							<path style="fill:#421B36;" d="M133.938,213.434c1.096,6.292,3.757,12.241,7.71,17.257c0.772,0.979,2.264-0.259,1.49-1.24
								c-3.739-4.745-6.248-10.367-7.285-16.318C135.639,211.902,133.723,212.204,133.938,213.434L133.938,213.434z"/>
						</g>
					</g>
				</g>
			</g>
		</g>
		<g>
			<g>
				<path style="fill:#FFFFFF;" d="M157.322,185.583c3.126-0.324,6.102-1.262,9.28-1.266c3.562-0.004,7.005,0.749,10.353,1.926
					c0.953,0.335,1.62-1.208,0.694-1.647c-5.978-2.829-14.855-3.993-20.555,0.147C156.777,184.975,156.829,185.635,157.322,185.583
					L157.322,185.583z"/>
			</g>
		</g>
		<g>
			<g>
				<g>
					<path style="fill:#8380FF;" d="M181.042,173.223c1.503-1.456,2.902-2.933,4.211-4.568c1.454-1.817-1.402-4.192-2.731-2.328
						c-1.292,1.812-2.409,3.663-3.461,5.622C178.384,173.208,180.139,174.098,181.042,173.223L181.042,173.223z"/>
				</g>
			</g>
			<g>
				<g>
					<path style="fill:#8380FF;" d="M171.775,171.803c-0.916-2.013-1.886-3.93-3.049-5.814c-1.213-1.964-4.296,0.114-2.971,2.015
						c1.266,1.817,2.646,3.454,4.127,5.096C170.667,173.97,172.246,172.838,171.775,171.803L171.775,171.803z"/>
				</g>
			</g>
			<g>
				<g>
					<path style="fill:#8380FF;" d="M176.92,172.378c0.086-2.723,0.273-5.486,0.018-8.202c-0.208-2.21-3.389-1.895-3.392,0.27
						c-0.003,2.72,0.436,5.444,0.772,8.139C174.531,174.288,176.868,174.029,176.92,172.378L176.92,172.378z"/>
				</g>
			</g>
		</g>
	</g>
	<g>
		<g>
			<g>
				<g>
					<path style="fill:#A0D2F4;" d="M423.801,243.3c-0.668-0.178-27.637-0.512-27.283,23.347
						c0.354,23.859,19.728,21.806,20.178,21.998c0.45,0.192-0.198,3.956,1.152,4.531c1.35,0.575,14.295,0.885,14.843-0.902
						s-0.278-4.584-0.278-4.584s18.613-2.222,16.196-25.522C446.495,241.79,423.801,243.3,423.801,243.3z"/>
				</g>
			</g>
			<g>
				<g>
					<g>
						<path style="fill:#421B36;" d="M420.799,290.551c-0.234-4.967-0.319-9.968-0.725-14.924c-0.287-3.499-1.646-7.657-5.553-8.504
							c-3.212-0.697-5.746,1.97-6.057,5.003c-0.357,3.475,2.208,6.267,5.046,7.865c6.356,3.58,14.866,2.711,20.658-1.585
							c2.708-2.009,5.624-5.25,4.998-8.9c-0.51-2.975-3.676-4.878-6.573-4.323c-4.208,0.806-4.928,5.842-5.346,9.332
							c-0.651,5.424-0.756,10.896-0.34,16.342c0.087,1.144,1.869,1.039,1.781-0.108c-0.283-3.7-0.337-7.412-0.121-11.117
							c0.184-3.161,0.251-6.829,1.436-9.813c1.089-2.743,4.302-4.112,6.569-1.696c2.358,2.513-0.273,6.083-2.251,7.868
							c-4.316,3.894-10.672,5.322-16.272,3.89c-2.768-0.708-5.837-2.193-7.236-4.821c-1.189-2.234-0.421-6.418,2.786-6.271
							c4.43,0.202,4.676,6.1,4.828,9.299c0.199,4.19,0.395,8.38,0.593,12.571C419.072,291.807,420.853,291.699,420.799,290.551
							L420.799,290.551z"/>
					</g>
				</g>
			</g>
			<g>
				<g>
					<g>
						<path style="fill:#8380FF;" d="M414.526,291.785c0,0,1.18,7.038,1.841,8.639c0.661,1.601,3.345,3.99,6.366,4.171
							c3.02,0.181,6.465-0.393,6.465-0.393s4.067-1.159,4.662-5.297s0.903-8.094,0.903-8.094
							C433.509,289.957,414.27,290.319,414.526,291.785z"/>
					</g>
				</g>
				<g>
					<g>
						<g>
							<path style="fill:#421B36;" d="M415.141,296.503c6.433,0.614,12.911,0.253,19.24-1.052c1.12-0.231,0.535-1.918-0.578-1.689
								c-5.988,1.235-12.206,1.576-18.293,0.994C414.378,294.648,413.999,296.393,415.141,296.503L415.141,296.503z"/>
						</g>
					</g>
				</g>
				<g>
					<g>
						<g>
							<path style="fill:#421B36;" d="M416.518,301.265c5.771,1.122,11.761,0.785,17.372-0.968c1.095-0.342,0.52-2.032-0.578-1.689
								c-5.308,1.659-10.966,1.972-16.425,0.911C415.76,299.3,415.39,301.046,416.518,301.265L416.518,301.265z"/>
						</g>
					</g>
				</g>
			</g>
		</g>
		<g>
			<g>
				<path style="fill:#FFFFFF;" d="M435.24,251.162c5.059,4.038,6.649,9.51,7.313,15.68c0.143,1.326,1.895,1.313,2.054,0
					c0.807-6.671-3.47-12.901-8.6-16.674C435.433,249.747,434.678,250.713,435.24,251.162L435.24,251.162z"/>
			</g>
		</g>
		<g>
			<g>
				<g>
					<path style="fill:#8380FF;" d="M457.314,267.566c1.598,1.031,3.193,1.966,4.909,2.788c1.907,0.914,3.423-2.102,1.5-2.896
						c-1.869-0.772-3.738-1.38-5.688-1.908C456.782,265.211,456.354,266.947,457.314,267.566L457.314,267.566z"/>
				</g>
			</g>
			<g>
				<g>
					<path style="fill:#8380FF;" d="M456.667,259.072c1.594-1.224,3.091-2.477,4.52-3.894c1.489-1.477-0.984-3.779-2.394-2.216
						c-1.348,1.494-2.514,3.052-3.663,4.701C454.521,258.537,455.847,259.701,456.667,259.072L456.667,259.072z"/>
				</g>
			</g>
			<g>
				<g>
					<path style="fill:#8380FF;" d="M457.215,263.744c2.428-0.484,4.912-0.886,7.264-1.67c1.914-0.638,0.981-3.389-0.936-2.947
						c-2.408,0.556-4.73,1.505-7.046,2.356C455.033,262.022,455.743,264.038,457.215,263.744L457.215,263.744z"/>
				</g>
			</g>
		</g>
	</g>
	<g>
		<g>
			<g>
				<g>
					<path style="fill:#A0D2F4;" d="M336.922,373.619c-0.264-0.488-14.928-16.385-28.636-3.033
						c-13.707,13.352-1.836,23.51-1.7,23.877c0.136,0.368-2.414,2.064-2.006,3.167c0.408,1.103,7.361,8.816,8.703,8.152
						c1.343-0.664,2.518-2.688,2.518-2.688s11.55,9.621,23.794-4.625C350.305,386.01,336.922,373.619,336.922,373.619z"/>
				</g>
			</g>
			<g>
				<g>
					<g>
						<path style="fill:#421B36;" d="M307.736,397.903c2.765-2.873,5.632-5.678,8.296-8.645c1.881-2.095,3.554-5.178,1.895-7.921
							c-1.364-2.255-4.314-2.262-6.252-0.773c-2.221,1.707-2.435,4.74-1.803,7.273c1.416,5.676,6.611,10.155,12.305,11.164
							c2.663,0.471,6.157,0.384,7.939-1.991c1.453-1.936,0.817-4.83-1.103-6.212c-2.788-2.008-6.119,0.348-8.383,2.026
							c-3.519,2.609-6.766,5.563-9.71,8.806c-0.618,0.681,0.424,1.661,1.044,0.978c2-2.203,4.133-4.28,6.411-6.196
							c1.943-1.634,4.118-3.616,6.509-4.57c2.198-0.877,4.766,0.241,4.608,2.893c-0.165,2.759-3.695,3.193-5.825,3.024
							c-4.647-0.369-8.981-3.286-11.232-7.338c-1.113-2.003-1.938-4.61-1.178-6.873c0.647-1.924,3.507-3.781,5.189-1.832
							c2.323,2.693-0.978,6.086-2.758,7.937c-2.332,2.424-4.665,4.848-6.998,7.271C306.053,397.589,307.097,398.567,307.736,397.903
							L307.736,397.903z"/>
					</g>
				</g>
			</g>
			<g>
				<g>
					<g>
						<path style="fill:#8380FF;" d="M303.56,394.928c0,0-3.451,4.565-4.019,5.833c-0.568,1.267-0.482,4.148,1.077,6.007
							c1.558,1.859,3.791,3.55,3.791,3.55s2.916,1.732,5.655-0.202c2.739-1.933,5.213-3.933,5.213-3.933
							C315.085,404.982,304.274,393.971,303.56,394.928z"/>
					</g>
				</g>
				<g>
					<g>
						<g>
							<path style="fill:#421B36;" d="M301.151,397.885c3.186,4.087,6.966,7.662,11.213,10.631c0.752,0.525,1.413-0.745,0.666-1.267
								c-4.019-2.809-7.643-6.244-10.658-10.111C301.811,396.419,300.585,397.16,301.151,397.885L301.151,397.885z"/>
						</g>
					</g>
				</g>
				<g>
					<g>
						<g>
							<path style="fill:#421B36;" d="M299.135,401.312c2.526,3.981,6.022,7.285,10.136,9.589c0.803,0.45,1.47-0.816,0.666-1.267
								c-3.891-2.179-7.191-5.303-9.58-9.069C299.862,399.787,298.641,400.534,299.135,401.312L299.135,401.312z"/>
						</g>
					</g>
				</g>
			</g>
		</g>
		<g>
			<g>
				<path style="fill:#FFFFFF;" d="M309.188,372.328c4.762-2.819,9.321-2.951,14.621-2.117c1.199,0.189,2.271-1.601,0.918-2.176
					c-5.496-2.336-11.973-0.471-16.151,3.499C308.157,371.93,308.694,372.62,309.188,372.328L309.188,372.328z"/>
			</g>
		</g>
		<g>
			<g>
				<g>
					<path style="fill:#8380FF;" d="M343.002,372.651c1.893,0.18,3.739,0.278,5.641,0.219c2.114-0.065,2.072-3.441,0-3.261
						c-2.015,0.175-3.954,0.494-5.928,0.921C341.446,370.804,341.865,372.543,343.002,372.651L343.002,372.651z"/>
				</g>
			</g>
			<g>
				<g>
					<path style="fill:#8380FF;" d="M338.521,365.406c0.852-1.82,1.606-3.621,2.223-5.536c0.643-1.996-2.611-2.903-3.145-0.867
						c-0.51,1.947-0.829,3.866-1.091,5.858C336.369,365.917,338.083,366.341,338.521,365.406L338.521,365.406z"/>
				</g>
			</g>
			<g>
				<g>
					<path style="fill:#8380FF;" d="M341.156,369.302c1.934-1.546,3.955-3.046,5.682-4.823c1.406-1.447-0.687-3.461-2.186-2.186
						c-1.883,1.601-3.508,3.511-5.173,5.332C338.427,368.776,339.984,370.24,341.156,369.302L341.156,369.302z"/>
				</g>
			</g>
		</g>
	</g>
	<g>
		<g>
			<g>
				<g>
					<path style="fill:#A0D2F4;" d="M105.094,373.272c0.314,0.464,16.651,14.976,29.093,0.179s-0.511-23.82-0.684-24.176
						c-0.174-0.356,2.22-2.317,1.699-3.385c-0.521-1.068-8.284-8.126-9.567-7.323c-1.284,0.802-2.262,2.955-2.262,2.955
						s-12.576-8.515-23.458,7.035C90.397,362.157,105.094,373.272,105.094,373.272z"/>
				</g>
			</g>
			<g>
				<g>
					<g>
						<path style="fill:#421B36;" d="M132.002,345.932c-2.492,3.166-5.093,6.273-7.474,9.523c-1.681,2.294-3.054,5.562-1.112,8.154
							c1.597,2.13,4.564,1.842,6.363,0.15c2.062-1.939,1.973-5.009,1.083-7.493c-1.993-5.564-7.665-9.547-13.49-9.99
							c-2.724-0.207-6.229,0.231-7.782,2.798c-1.266,2.092-0.337,4.937,1.731,6.134c3.005,1.739,6.117-0.963,8.225-2.878
							c3.277-2.976,6.244-6.271,8.879-9.827c0.553-0.747-0.593-1.628-1.148-0.879c-1.79,2.416-3.726,4.717-5.824,6.872
							c-1.79,1.838-3.777,4.048-6.086,5.247c-2.122,1.102-4.816,0.235-4.922-2.447c-0.11-2.79,3.395-3.58,5.553-3.624
							c4.709-0.095,9.359,2.403,12.028,6.251c1.319,1.902,2.411,4.44,1.873,6.791c-0.457,1.999-3.147,4.153-5.033,2.362
							c-2.605-2.474,0.373-6.216,1.977-8.256c2.101-2.671,4.205-5.341,6.307-8.012C133.726,346.079,132.578,345.2,132.002,345.932
							L132.002,345.932z"/>
					</g>
				</g>
			</g>
			<g>
				<g>
					<g>
						<path style="fill:#8380FF;" d="M136.498,348.504c0,0,3.012-4.936,3.456-6.267c0.444-1.331,0.068-4.218-1.685-5.931
							c-1.753-1.713-4.167-3.189-4.167-3.189s-3.105-1.448-5.665,0.77c-2.56,2.218-4.847,4.477-4.847,4.477
							C123.904,339.552,135.876,349.538,136.498,348.504z"/>
					</g>
				</g>
				<g>
					<g>
						<g>
							<path style="fill:#421B36;" d="M138.624,345.289c-3.613-3.789-7.772-7.005-12.339-9.563c-0.809-0.453-1.346,0.89-0.542,1.341
								c4.322,2.421,8.31,5.511,11.729,9.096C138.107,346.83,139.265,345.962,138.624,345.289L138.624,345.289z"/>
						</g>
					</g>
				</g>
				<g>
					<g>
						<g>
							<path style="fill:#421B36;" d="M140.307,341.642c-2.939-3.749-6.785-6.721-11.151-8.624
								c-0.853-0.371-1.396,0.968-0.542,1.341c4.13,1.8,7.761,4.611,10.541,8.157C139.729,343.248,140.882,342.375,140.307,341.642
								L140.307,341.642z"/>
						</g>
					</g>
				</g>
			</g>
		</g>
		<g>
			<g>
				<path style="fill:#FFFFFF;" d="M102.206,350.59c-4.914,4.403-4.078,11.827,2.168,14.61c1.181,0.526,2.225-1.195,1.029-1.761
					c-4.724-2.234-6.365-8.332-2.86-12.512C102.739,350.694,102.437,350.383,102.206,350.59L102.206,350.59z"/>
			</g>
		</g>
		<g>
			<g>
				<g>
					<path style="fill:#8380FF;" d="M96.226,373.307c-1.884,0.257-3.704,0.584-5.542,1.076c-2.043,0.547-1.232,3.823,0.745,3.175
						c1.922-0.63,3.736-1.384,5.561-2.251C98.163,374.75,97.358,373.153,96.226,373.307L96.226,373.307z"/>
				</g>
			</g>
			<g>
				<g>
					<path style="fill:#8380FF;" d="M102.243,379.337c-0.414,1.967-0.736,3.892-0.9,5.898c-0.17,2.091,3.205,2.23,3.26,0.126
						c0.052-2.012-0.076-3.953-0.276-5.953C104.221,378.348,102.456,378.326,102.243,379.337L102.243,379.337z"/>
				</g>
			</g>
			<g>
				<g>
					<path style="fill:#8380FF;" d="M98.787,376.146c-1.529,1.947-3.155,3.868-4.431,5.994c-1.039,1.729,1.459,3.212,2.628,1.629
						c1.467-1.989,2.613-4.219,3.819-6.373C101.565,376.034,99.715,374.965,98.787,376.146L98.787,376.146z"/>
				</g>
			</g>
		</g>
	</g>
</g>
<g id="Character_00000010298534836091398270000006384255821716021167_">
	<g>
		<g>
			<g>
				<path style="fill:#421B36;" d="M214.006,366.805c8.186,8.719,22.375,13.058,33.912,14.375
					c13.207,1.507,26.837-0.741,38.684-6.829c13.825-7.105,24.658-19.026,39.111-25.035c15.921-6.62,32.785-5.395,48.576,0.815
					c1.209,0.475,2.028-1.503,0.883-2.095c-12.257-6.339-26.98-7.587-40.365-4.564c-14.642,3.307-25.753,12.594-37.626,21.176
					c-12.333,8.914-25.865,14.56-41.264,14.707c-7.374,0.071-14.778-0.988-21.819-3.186c-7.287-2.275-13.193-6.188-19.856-9.668
					C214.046,366.4,213.853,366.642,214.006,366.805L214.006,366.805z"/>
			</g>
		</g>
		<g>
			<path style="fill:#421B36;" d="M461.056,214.564c3.173-16.44,5.984-57.364-5.253-70.301c-4.768-5.489-18.678,12.136-19.376,5.011
				c-0.549-5.601,2.503-10.748,3.905-16.146c3.294-12.678-2.91-26.55-12.41-36.05c-9.501-9.5-21.88-15.494-33.992-21.303
				c-14.701,6.512-27.094,17.795-34.864,31.742c-3.997-18.9,3.811-39.43,19.249-50.613c-11.44-13.205-25.431-27.604-42.727-27.107
				c-19.041,0.547-31.742,18.943-38.526,36.402c-6.784,17.459-11.704,37.223-26.737,48.423
				c-14.293,10.648-34.993,11.144-47.997,23.292c-19.539,18.253-12.032,52.458-27.468,74.256
				c-8.234,11.628-21.889,18.107-32.384,27.768c-13.112,12.071-18.676,29.772-20.29,47.661
				c-3.219,35.671,26.712,56.281,38.793,70.045c2.199,2.505,2.893,2.98,5.706,4.638c13.536,7.978,8.911-1.595,23.2,4.943
				c30.843,14.113,70.024,8.457,95.141-14.508c12.828-11.729,22.979-27.858,39.542-33.128c14.251-4.534,30.226,0.18,44.44-4.469
				c11.863-3.88,20.909-13.925,26.387-25.141c6.689-13.693,6.739-26.301,18.747-36.472
				C445.264,244.086,458.199,229.37,461.056,214.564z"/>
		</g>
		<g>
			<g>
				<g>
					<path style="fill:#A0D2F4;" d="M414.076,199.387c0.65-0.204,23.24-14.161,10.353-33.804
						c-12.887-19.644-27.906-7.712-28.381-7.634c-0.475,0.078-1.923-3.392-3.349-3.158c-1.425,0.234-12.348,6.809-11.861,8.583
						c0.487,1.774,2.651,3.663,2.651,3.663s-14.298,11.67,0.009,29.76C396.011,212.62,414.076,199.387,414.076,199.387z"/>
				</g>
			</g>
			<g>
				<g>
					<g>
						<path style="fill:#421B36;" d="M391.632,158.53c2.816,4.005,5.526,8.116,8.48,12.021c2.085,2.757,5.41,5.495,9.104,4.137
							c3.037-1.116,3.736-4.67,2.394-7.355c-1.538-3.076-5.143-4.043-8.345-3.874c-7.172,0.38-13.786,5.593-16.333,12.22
							c-1.191,3.099-1.903,7.331,0.543,10.035c1.994,2.203,5.63,2.114,7.744,0.124c3.072-2.891,1.012-7.456-0.482-10.578
							c-2.322-4.852-5.122-9.455-8.343-13.762c-0.676-0.905-2.102,0.123-1.423,1.03c2.188,2.926,4.192,5.983,5.968,9.176
							c1.515,2.724,3.395,5.809,3.986,8.914c0.543,2.855-1.406,5.688-4.565,4.877c-3.286-0.844-2.984-5.2-2.282-7.728
							c1.532-5.514,6.061-10.056,11.471-11.822c2.674-0.872,6.009-1.258,8.559,0.188c2.167,1.229,3.737,5.112,0.994,6.683
							c-3.789,2.17-7.106-2.602-8.921-5.18c-2.377-3.378-4.751-6.757-7.127-10.135C392.405,156.575,390.982,157.605,391.632,158.53
							L391.632,158.53z"/>
					</g>
				</g>
			</g>
			<g>
				<g>
					<g>
						<path style="fill:#8380FF;" d="M396.195,154.194c0,0-4.695-5.227-6.09-6.208s-4.886-1.55-7.492-0.107
							c-2.606,1.443-5.166,3.738-5.166,3.738s-2.769,3.11-1.079,6.863c1.69,3.753,3.521,7.203,3.521,7.203
							C381.382,165.732,397.181,155.277,396.195,154.194z"/>
					</g>
				</g>
				<g>
					<g>
						<g>
							<path style="fill:#421B36;" d="M393.194,150.598c-5.671,2.885-10.864,6.604-15.435,11.029
								c-0.809,0.783,0.568,1.877,1.372,1.099c4.325-4.187,9.313-7.752,14.679-10.481
								C394.807,151.736,394.2,150.086,393.194,150.598L393.194,150.598z"/>
						</g>
					</g>
				</g>
				<g>
					<g>
						<g>
							<path style="fill:#421B36;" d="M389.535,147.367c-5.389,2.113-10.189,5.555-13.927,9.974c-0.73,0.863,0.64,1.963,1.371,1.099
								c3.536-4.18,8.074-7.427,13.171-9.426C391.203,148.6,390.589,146.953,389.535,147.367L389.535,147.367z"/>
						</g>
					</g>
				</g>
			</g>
		</g>
		<g>
			<g>
				<g>
					<path style="fill:#FFAE7A;" d="M183.578,281.014c17.076-23.3,53.682-19.79,66.097,6.294c3.926,8.249,5.555,19.154,5.075,33.682
						c-1.338,40.536-35.653,40.143-35.653,40.143l-3.61,26.201l-33.195-0.063l-2.017-45.432c0,0-4.363-30.233-1.599-49.323
						C179.292,288.271,181.077,284.426,183.578,281.014z"/>
				</g>
			</g>
			<g>
				<g>
					<g>
						<path style="fill:#421B36;" d="M197.658,285.132c5.27-3.201,10.694-2.504,16.421-1.764c1.312,0.17,2.333-1.568,0.959-2.321
							c-5.914-3.245-13.127-0.788-18.088,2.894C196.249,284.46,196.878,285.606,197.658,285.132L197.658,285.132z"/>
					</g>
				</g>
			</g>
			<g>
				<g>
					<g>
						<path style="fill:#421B36;" d="M200.531,355.387c6.536,5.199,14.833,7.44,23.14,6.784c1.412-0.112,1.432-2.232-0.016-2.224
							c-8.13,0.044-15.523-1.654-23.025-4.731C200.536,355.176,200.453,355.324,200.531,355.387L200.531,355.387z"/>
					</g>
				</g>
			</g>
			<g>
				<g>
					<path style="fill:#421B36;" d="M155.778,292.818c-6.19,17.191-1.122,34.883,11.896,47.704l11.55,11.375
						c1.329-12.149,3.605-42.56,5.545-54.083c1.94-11.523,23.85-26.569,32.729-32.238l-0.039-5.366
						c-11.097-3.796-24.49-1.413-34.901,3.99c-5.871,3.047-11.972,7.209-16.197,12.299
						C166.361,276.498,158.438,285.429,155.778,292.818z"/>
				</g>
			</g>
			<g style="opacity:0.3;">
				<g>
					<path style="fill:#421B36;" d="M209.3,309.666c0.016,2.204-3.422,4.015-7.678,4.046c-4.256,0.031-7.72-1.731-7.735-3.935
						c-0.016-2.204,3.422-4.015,7.678-4.046C205.821,305.7,209.284,307.462,209.3,309.666z"/>
				</g>
			</g>
			<g style="opacity:0.3;">
				<g>
					<path style="fill:#421B36;" d="M251.76,309.36c0.016,2.204-3.422,4.015-7.678,4.046c-4.256,0.031-7.72-1.731-7.736-3.935
						c-0.016-2.204,3.422-4.015,7.678-4.046C248.281,305.394,251.744,307.156,251.76,309.36z"/>
				</g>
			</g>
			<g>
				<g>
					<g>
						<path style="fill:#421B36;" d="M218.794,262.362c3.889-3.135,7.247-6.525,12.231-7.883c4.951-1.35,9.522-0.465,14.38,0.781
							c0.919,0.236,1.493-1.079,0.641-1.553c-8.89-4.949-23.693-1.619-27.511,8.507
							C218.474,262.375,218.689,262.446,218.794,262.362L218.794,262.362z"/>
					</g>
				</g>
			</g>
			<g>
				<g>
					<g>
						<path style="fill:#421B36;" d="M236.654,244.695c-11.31,0.384-19.891,8.184-21.82,19.331
							c-0.246,1.424,1.939,2.016,2.182,0.585c1.719-10.102,9.617-17.716,19.7-19.479
							C236.965,245.087,236.901,244.686,236.654,244.695L236.654,244.695z"/>
					</g>
				</g>
			</g>
			<g>
				<g>
					<path style="fill:#FFAE7A;" d="M168.628,310.575c-2.285-1.12-5.159-0.588-7.19,0.944c-2.031,1.533-3.286,3.924-3.879,6.398
						c-0.985,4.113-0.147,8.773,2.732,11.871c2.88,3.098,7.901,4.218,11.561,2.098L168.628,310.575z"/>
				</g>
			</g>
			<g>
				<g>
					<g>
						<path style="fill:#421B36;" d="M163.662,322.24c0.766-0.552,2.463-0.888,3.386-0.859c1.308,0.04,2.159,0.706,3.056,1.573
							c0.926,0.895,2.52-0.281,1.804-1.413c-0.979-1.546-2.841-2.465-4.663-2.411c-0.861,0.025-1.826,0.281-2.54,0.774
							c-0.812,0.561-0.928,1.222-1.337,2.046C163.28,322.124,163.474,322.375,163.662,322.24L163.662,322.24z"/>
					</g>
				</g>
			</g>
			<g>
				<g>
					<g>
						<path style="fill:#421B36;" d="M240.766,282.834c-4.575-4.861-12.27-4.021-15.526,1.735
							c-4.621,8.17-0.568,21.156,4.285,28.342c0.963,1.425,3.025,0.176,2.281-1.355c-2.809-5.776-5.543-11.714-5.728-18.273
							c-0.242-8.565,6.191-13.825,14.051-9.61C240.664,283.958,241.182,283.275,240.766,282.834L240.766,282.834z"/>
					</g>
				</g>
			</g>
		</g>
		<g>
			<g>
				<g>
					<path style="fill:#421B36;" d="M215.415,317.97c-0.51,2.71,2.012,5.444,4.115,6.813c2.58,1.68,5.826,2.41,8.71,1.069
						c0.752-0.35,0.728-1.54-0.079-1.812c-2.278-0.767-4.677-1.256-6.691-2.653c-1.689-1.171-2.748-3.114-4.489-4.144
						C216.294,316.837,215.56,317.203,215.415,317.97L215.415,317.97z"/>
				</g>
			</g>
		</g>
		<g>
			<g>
				<path style="fill:#421B36;" d="M214.061,298.718c-0.672,0.164-0.639,0.343-1.202,0.779c-1.275,0.986-2.356,1.601-4.007,1.632
					c-2.889,0.055-4.565-1.813-6.929-3.006c-0.903-0.456-2.148,0.524-1.493,1.493c1.939,2.874,6.076,4.418,9.46,3.93
					c1.671-0.241,6.164-2.37,4.519-4.688C214.326,298.744,214.203,298.683,214.061,298.718L214.061,298.718z"/>
			</g>
		</g>
		<g>
			<g>
				<path style="fill:#421B36;" d="M232.582,299.578c1.936,5.757,11.82,3.556,11.23-2.435c-0.102-1.039-1.434-1.534-2.034-0.551
					c-1.077,1.763-1.424,3.864-3.985,3.913c-1.562,0.03-2.814-0.988-4.048-1.821C233.181,298.305,232.367,298.938,232.582,299.578
					L232.582,299.578z"/>
			</g>
		</g>
		<g>
			<g>
				<g>
					<path style="fill:#A0D2F4;" d="M291.049,242.864c-0.763-0.022-29.801,6.453-23.375,31.979
						c6.426,25.526,26.706,18.413,27.237,18.504c0.532,0.092,0.79,4.297,2.385,4.573s15.571-2.673,15.708-4.729
						c0.137-2.057-1.46-4.851-1.46-4.851s19.421-7.102,10.921-31.505C315.031,235.492,291.049,242.864,291.049,242.864z"/>
				</g>
			</g>
			<g>
				<g>
					<g>
						<path style="fill:#421B36;" d="M299.799,294.354c-1.51-5.273-2.869-10.621-4.56-15.839c-1.194-3.683-3.708-7.803-8.117-7.723
							c-3.625,0.066-5.669,3.571-5.235,6.906c0.498,3.821,3.959,6.169,7.41,7.165c7.731,2.232,16.647-0.857,21.777-6.936
							c2.399-2.843,4.707-7.061,3.111-10.821c-1.301-3.065-5.183-4.305-8.152-2.976c-4.314,1.932-3.81,7.521-3.375,11.374
							c0.675,5.988,1.949,11.89,3.776,17.632c0.384,1.206,2.27,0.642,1.885-0.568c-1.241-3.901-2.24-7.872-2.947-11.905
							c-0.603-3.44-1.46-7.395-0.945-10.9c0.474-3.221,3.577-5.505,6.623-3.485c3.168,2.101,1.249,6.6-0.423,9.018
							c-3.647,5.274-10.109,8.418-16.485,8.3c-3.151-0.059-6.823-0.875-8.99-3.342c-1.843-2.097-2.078-6.783,1.402-7.439
							c4.807-0.905,6.566,5.364,7.54,8.76c1.275,4.448,2.548,8.897,3.822,13.346C298.263,296.14,300.148,295.573,299.799,294.354
							L299.799,294.354z"/>
					</g>
				</g>
			</g>
			<g>
				<g>
					<g>
						<path style="fill:#8380FF;" d="M293.377,297.269c0,0,3.05,7.257,4.166,8.808c1.116,1.551,4.603,3.436,7.891,2.865
							c3.288-0.571,6.841-2.06,6.841-2.06s4.073-2.274,3.663-6.868c-0.41-4.593-1.082-8.918-1.082-8.918
							C313.294,290.496,292.731,295.759,293.377,297.269z"/>
					</g>
				</g>
				<g>
					<g>
						<g>
							<path style="fill:#421B36;" d="M295.233,302.177c7.062-0.971,13.926-3,20.389-6.005c1.144-0.532,0.089-2.195-1.048-1.667
								c-6.116,2.843-12.706,4.785-19.387,5.703C293.944,300.38,293.979,302.349,295.233,302.177L295.233,302.177z"/>
						</g>
					</g>
				</g>
				<g>
					<g>
						<g>
							<path style="fill:#421B36;" d="M297.918,306.941c6.481-0.258,12.826-2.137,18.405-5.442c1.089-0.645,0.044-2.313-1.048-1.666
								c-5.278,3.126-11.274,4.896-17.403,5.14C296.606,305.024,296.652,306.992,297.918,306.941L297.918,306.941z"/>
						</g>
					</g>
				</g>
			</g>
		</g>
		<g>
			<g>
				<path style="fill:#421B36;" d="M160.214,246.407c17.343-5.221,34.411-18.14,42.479-34.624c9.025-18.44,2.034-39.482,5.57-58.907
					c1.73-9.503,6.013-18.844,14.971-23.448c8.748-4.496,19.213-3.92,28.722-5.139c8.811-1.13,16.957-3.81,23.62-9.889
					c6.555-5.98,10.883-14.052,13.856-22.315c7.809-21.709,7.009-54.301,32.369-64.409c3.12-1.244,1.809-6.343-1.411-5.119
					c-18.752,7.122-25.824,26.659-29.997,44.67c-4.685,20.219-9.59,45.445-33.133,51.014c-16.948,4.008-37.059,0.755-47.598,17.89
					c-10.057,16.352-5.396,36.387-5.984,54.392c-0.434,13.315-5.055,24.225-14.064,34.007c-8.286,8.998-18.684,15.896-29.906,20.676
					C159.018,245.499,159.511,246.618,160.214,246.407L160.214,246.407z"/>
			</g>
		</g>
		<g>
			<path style="fill:#421B36;" d="M312.967,227.927c-6.706,5.279-13.525,10.679-18.281,17.765
				c-3.27,4.872-5.449,10.374-8.004,15.656c-2.555,5.282-5.608,10.496-10.164,14.193c-4.556,3.697-10.896,5.643-16.435,3.708
				l-0.778-25.28l53.662-36.872l0.27,8.182"/>
		</g>
		<g>
			<g>
				<path style="fill:#421B36;" d="M274.067,275.622c11.216-1.454,19.346-13.592,24.739-22.395
					c7.91-12.913,16.068-28.606,32.84-30.592c1.417-0.168,1.492-2.367,0-2.277c-12.832,0.767-21.902,10.515-28.354,20.779
					c-3.946,6.278-7.254,12.974-11.613,18.988c-4.926,6.797-10.67,10.654-17.81,14.762
					C273.553,275.068,273.663,275.674,274.067,275.622L274.067,275.622z"/>
			</g>
		</g>
		<g>
			<g>
				<g>
					<path style="fill:#A0D2F4;" d="M265.195,131.871c-0.519,0.47-15.625,23.228,4.866,36.041
						c20.491,12.812,29.393-4.798,29.803-5.075c0.41-0.277,3.256,2.342,4.487,1.51c1.231-0.832,8.609-11.674,7.391-13.122
						c-1.218-1.448-4.053-2.283-4.053-2.283s8.34-17.055-12.81-27.805C276.383,111.736,265.195,131.871,265.195,131.871z"/>
				</g>
			</g>
			<g>
				<g>
					<g>
						<path style="fill:#421B36;" d="M303.741,160.394c-4.354-2.531-8.655-5.207-13.094-7.585c-3.134-1.679-7.418-2.807-10.286,0.05
							c-2.358,2.349-1.482,5.971,0.927,7.902c2.76,2.213,6.545,1.566,9.464,0.03c6.538-3.44,10.476-11.156,10.005-18.444
							c-0.22-3.408-1.375-7.669-4.824-9.143c-2.811-1.201-6.17,0.447-7.29,3.215c-1.627,4.023,2.262,7.402,5,9.677
							c4.257,3.535,8.854,6.632,13.715,9.271c1.021,0.554,1.911-1.019,0.887-1.575c-3.303-1.793-6.49-3.787-9.524-6.007
							c-2.588-1.894-5.671-3.967-7.559-6.615c-1.735-2.434-1.133-5.92,2.168-6.52c3.434-0.624,5.025,3.576,5.456,6.239
							c0.941,5.812-1.338,12.003-5.634,15.981c-2.123,1.965-5.074,3.76-8.078,3.506c-2.554-0.216-5.691-3.169-3.804-5.817
							c2.607-3.657,7.759-0.626,10.564,1.003c3.674,2.134,7.346,4.27,11.019,6.405C303.86,162.553,304.747,160.979,303.741,160.394
							L303.741,160.394z"/>
					</g>
				</g>
			</g>
			<g>
				<g>
					<g>
						<path style="fill:#8380FF;" d="M301.343,166.409c0,0,6.636,2.865,8.361,3.182s5.233-0.653,7.047-3.123
							s3.219-5.715,3.219-5.715s1.25-4.097-1.943-6.877c-3.193-2.78-6.389-5.216-6.389-5.216
							C310.221,149.255,299.956,165.82,301.343,166.409z"/>
					</g>
				</g>
				<g>
					<g>
						<g>
							<path style="fill:#421B36;" d="M305.694,168.478c4.058-5.135,7.311-10.844,9.679-16.945c0.419-1.08-1.337-1.51-1.754-0.437
								c-2.241,5.773-5.368,11.249-9.208,16.108C303.697,168.107,304.974,169.389,305.694,168.478L305.694,168.478z"/>
						</g>
					</g>
				</g>
				<g>
					<g>
						<g>
							<path style="fill:#421B36;" d="M310.503,169.923c4.126-4.293,7.132-9.573,8.724-15.31c0.311-1.12-1.443-1.559-1.754-0.436
								c-1.506,5.427-4.349,10.413-8.252,14.473C308.414,169.489,309.696,170.763,310.503,169.923L310.503,169.923z"/>
						</g>
					</g>
				</g>
			</g>
		</g>
		<path style="fill:#421B36;" d="M336.632,116.817c-5.309,0.087-10.149,3.102-14.072,6.679
			c-9.523,8.683-15.087,20.759-22.547,31.268c-7.46,10.509-18.462,20.191-31.344,19.837l1.995,16.93
			c10.603-4.08,20.978-9.357,29.044-17.357c8.317-8.248,13.724-18.91,20.586-28.404c6.861-9.494,16.122-18.342,27.716-20.01
			C347.545,120.47,341.94,116.73,336.632,116.817z"/>
		<path style="fill:#421B36;" d="M432.686,150.375c-24.985,11.157-28.777,38.234-53.616,49.692l-3.533,16.85
			c7.689,3.312,18.724-10.178,29.532-19.701c6.379-5.62,21.786-12.662,27.082-19.169c4.973-6.11,9.492-1.493,11.285-9.079
			C445.229,161.383,437.447,156.643,432.686,150.375z"/>
		<g>
			<g>
				<path style="fill:#421B36;" d="M177.473,345.24c-14.79-13.161-33.704-25.73-37.861-46.535
					c-2.235-11.184-0.361-24.963,6.158-34.53c5.731-8.411,14.893-13.979,21.937-21.19c1.72-1.761-0.937-4.419-2.701-2.702
					c-7.841,7.632-17.837,13.559-23.627,23.092c-5.851,9.634-7.937,22.666-6.205,33.716c3.482,22.221,23.23,38.373,41.459,49.239
					C177.295,346.727,178.073,345.774,177.473,345.24L177.473,345.24z"/>
			</g>
		</g>
		<g>
			<g>
				<path style="fill:#421B36;" d="M295.956,352.562c11.148-10.266,24.097-14.794,39.059-16.266
					c14.357-1.413,28.922-0.321,43.135-3.196c28.594-5.784,42.197-30.13,56.034-53.215c8.381-13.983,18.514-28.156,34.759-33.265
					c1.755-0.552,1.025-3.279-0.764-2.77c-26.98,7.676-37.107,38.23-51.877,58.897c-9.563,13.381-21.679,23.696-38.057,27.3
					c-15.103,3.323-30.695,1.864-45.952,3.843c-13.355,1.733-29.201,6.153-36.712,18.383
					C295.437,352.51,295.762,352.741,295.956,352.562L295.956,352.562z"/>
			</g>
		</g>
		<g>
			<g>
				<path style="fill:#8380FF;" d="M223.005,263.042c11.807-25.847,33.255-44.248,61.967-48.007
					c28.151-3.685,61.302,5.202,86.843-10.694c0.825-0.514,0.101-1.739-0.759-1.298c-14.896,7.63-30.64,9.672-47.231,9.656
					c-16.321-0.016-32.954-1.345-48.972,2.561c-23.455,5.719-45.356,24.004-52.474,47.518
					C222.269,263.141,222.841,263.401,223.005,263.042L223.005,263.042z"/>
			</g>
		</g>
		<g>
			<g>
				<path style="fill:#8380FF;" d="M327.251,221.343c27.16,7.373,58.85,5.643,84.053-7.618c0.765-0.402,0.092-1.451-0.661-1.131
					c-13.543,5.759-26.945,10.134-41.693,11.482c-13.943,1.274-27.954,0.031-41.52-3.379
					C327.011,220.592,326.834,221.23,327.251,221.343L327.251,221.343z"/>
			</g>
		</g>
		<g>
			<g>
				<path style="fill:#8380FF;" d="M347.151,135.085c14.218-9.249,26.25-21.737,34.967-36.289c2.498-4.17,4.71-8.504,6.638-12.965
					c0.334-0.774-0.805-1.448-1.142-0.668c-6.664,15.422-16.842,29.228-29.598,40.161c-3.648,3.127-7.504,5.999-11.532,8.619
					C345.772,134.405,346.435,135.551,347.151,135.085L347.151,135.085z"/>
			</g>
		</g>
		<g>
			<g>
				<path style="fill:#8380FF;" d="M155.225,300.357c-3.585-13.818-2.515-28.303,4.81-40.785
					c7.643-13.022,20.906-19.332,33.744-26.12c11.437-6.047,21.515-13.361,28.58-24.408c6.891-10.776,10.306-23.409,9.848-36.175
					c-0.048-1.346-2.142-1.354-2.099,0c0.485,15.054-4.44,29.949-14.151,41.531c-9.883,11.788-23.913,17.154-36.842,24.713
					c-10.575,6.183-19.156,14.415-23.864,25.895c-4.583,11.176-5.235,24.25-0.5,35.479
					C154.87,300.769,155.307,300.673,155.225,300.357L155.225,300.357z"/>
			</g>
		</g>
		<g>
			<g>
				<path style="fill:#8380FF;" d="M168.552,383.649c-2.026,0.748-44.072,7.84-50.658,30.129
					c-6.585,22.29,3.471,54.361,3.471,54.361H298.21c0,0,9.651-102.53-52.151-91.87l-30.368,7.38H168.552z"/>
			</g>
			<g>
				<path style="fill:#FFAE7A;" d="M171.852,383.649c0,0,18.129,31.733,50.335,24.161c10.103-2.375,10.975-28.407,10.975-28.407
					S186.12,380.918,171.852,383.649z"/>
			</g>
			<g>
				<g>
					<path style="fill:#421B36;" d="M149.563,427.813c4.065,11.083,7.477,22.395,11.424,33.519c0.745,2.099,1.498,4.199,2.39,6.241
						c0.68,1.557,2.961,0.211,2.285-1.336c-1.781-4.075-3.154-8.518-4.592-12.775c-2.015-5.966-3.978-11.949-6.003-17.912
						c-0.958-2.822-1.927-5.642-2.953-8.441C151.533,425.523,148.975,426.209,149.563,427.813L149.563,427.813z"/>
				</g>
			</g>
			<g>
				<g>
					<path style="fill:#421B36;" d="M266.245,406.372c-1.814,4.799-3.627,9.597-5.441,14.396c-0.155,0.409,0.016,1.003,0.34,1.287
						c9.561,8.385,13.013,22.99,10.86,35.215c-0.55,3.124-1.484,6.183-3.022,8.967c-0.824,1.492,1.461,2.828,2.285,1.336
						c3.051-5.523,4.089-12.039,3.932-18.288c-0.174-6.917-1.81-13.893-5.077-20.014c-1.82-3.409-4.199-6.535-7.108-9.086
						c0.113,0.429,0.227,0.858,0.34,1.287c1.814-4.799,3.627-9.597,5.441-14.396C269.4,405.481,266.842,404.792,266.245,406.372
						L266.245,406.372z"/>
				</g>
			</g>
			<g>
				<g>
					<path style="fill:#A0D2F4;" d="M126.154,407.295c9.206,4.486,16.165,10.802,23.52,17.753c0.509,0.481,1.474-0.171,1.017-0.785
						c-5.932-7.952-15.107-13.804-24.003-17.881C126.077,406.103,125.538,406.995,126.154,407.295L126.154,407.295z"/>
				</g>
			</g>
			<g>
				<g>
					<path style="fill:#A0D2F4;" d="M270.974,403.406c2.682-3.887,5.065-8.399,6.028-13.063c0.272-1.318-1.565-1.821-2.009-0.554
						c-1.564,4.464-3.13,8.625-5.676,12.648C268.648,403.492,270.28,404.411,270.974,403.406L270.974,403.406z"/>
				</g>
			</g>
			<g>
				<g>
					<path style="fill:#A0D2F4;" d="M165.607,384.399c4.082,19.237,28.027,30.628,45.818,32.828
						c8.191,1.013,16.014-1.275,21.323-7.818c6.719-8.281,7.39-19.223,7.888-29.433c0.081-1.656-2.497-1.653-2.575,0
						c-0.434,9.183-0.922,19.084-6.482,26.831c-5.883,8.198-15.376,9.451-24.658,7.348c-17.138-3.885-33.7-13.031-40.294-30.036
						C166.383,383.492,165.463,383.723,165.607,384.399L165.607,384.399z"/>
				</g>
			</g>
		</g>
		<g>
			<path style="fill:#8380FF;" d="M172.591,328.007l0.082,0.004c-1.319-0.24-1.243-0.334-2.558-0.074
				c-1.315,0.26-2.598,1.14-2.93,2.439c-0.402,1.573,0.743,3.214,2.21,3.91c1.289,0.612,2.87,0.651,4.121-0.034
				c1.251-0.685,2.089-2.128,1.921-3.544C175.269,329.292,174.016,328.04,172.591,328.007z"/>
		</g>
		<g>
			<path style="fill:#8380FF;" d="M174.482,342.035c0.765,3.086,1.529,6.172,2.294,9.258c0.402,1.622,0.805,3.32,0.413,4.945
				c-0.44,1.825-1.939,3.353-3.755,3.83c-1.816,0.476-3.872-0.12-5.151-1.495c-1.478-1.588-2.151-3.93-1.86-6.079
				c0.796-5.882,2.295-11.045,4.388-15.976c0,0,0.863-1.064,1.571-0.189S174.482,342.035,174.482,342.035z"/>
		</g>
		<g>
			<g>
				<path style="fill:#FFFFFF;" d="M264.628,142.705c-2.258,6.501-0.254,14.506,6.142,17.934c0.82,0.439,1.731-0.639,1.019-1.321
					c-4.765-4.566-7.474-9.586-6.43-16.411C265.433,142.431,264.791,142.234,264.628,142.705L264.628,142.705z"/>
			</g>
		</g>
		<g>
			<g>
				<path style="fill:#FFFFFF;" d="M273.223,164.678c1.178,0,1.18-1.831,0-1.831C272.044,162.847,272.043,164.678,273.223,164.678
					L273.223,164.678z"/>
			</g>
		</g>
		<g>
			<g>
				<path style="fill:#FFFFFF;" d="M307.094,248.702c4.73,3.518,7.426,7.588,9.742,12.919c0.495,1.138,2.22,0.308,1.945-0.82
					c-1.368-5.607-6.175-10.596-11.412-12.752C306.965,247.882,306.799,248.482,307.094,248.702L307.094,248.702z"/>
			</g>
		</g>
		<g>
			<g>
				<path style="fill:#FFFFFF;" d="M321.042,264.319c0.268,0,0.269-0.417,0-0.417C320.773,263.902,320.773,264.319,321.042,264.319
					L321.042,264.319z"/>
			</g>
		</g>
		<g>
			<g>
				<path style="fill:#FFFFFF;" d="M381.012,175.224c-2.257,4.777-2.486,12.31,2.265,15.756c0.708,0.513,1.395-0.449,1.09-1.09
					c-1.045-2.196-2.442-4.047-2.953-6.49c-0.553-2.643-0.328-5.23,0.619-7.746C382.254,175.067,381.283,174.652,381.012,175.224
					L381.012,175.224z"/>
			</g>
		</g>
		<g>
			<g>
				<g>
					<path style="fill:#8380FF;" d="M316.096,239.787c1.64-0.963,3.193-1.966,4.7-3.128c1.674-1.292-0.337-4.003-1.911-2.643
						c-1.53,1.322-2.915,2.717-4.265,4.22C313.753,239.202,315.111,240.366,316.096,239.787L316.096,239.787z"/>
				</g>
			</g>
			<g>
				<g>
					<path style="fill:#8380FF;" d="M308.219,236.542c-0.376-1.974-0.82-3.875-1.443-5.789c-0.648-1.995-3.817-0.823-3.056,1.14
						c0.727,1.876,1.594,3.618,2.549,5.386C306.775,238.217,308.413,237.557,308.219,236.542L308.219,236.542z"/>
				</g>
			</g>
			<g>
				<g>
					<path style="fill:#8380FF;" d="M312.638,238.155c0.661-2.386,1.42-4.785,1.779-7.238c0.292-1.996-2.585-2.402-3.053-0.491
						c-0.588,2.4-0.786,4.9-1.068,7.352C310.118,239.328,312.237,239.602,312.638,238.155L312.638,238.155z"/>
				</g>
			</g>
		</g>
		<g>
			<g>
				<g>
					<path style="fill:#8380FF;" d="M424.197,201.714c0.12,1.898,0.314,3.736,0.672,5.605c0.397,2.077,3.724,1.505,3.22-0.513
						c-0.489-1.962-1.11-3.827-1.843-5.71C425.776,199.887,424.126,200.574,424.197,201.714L424.197,201.714z"/>
				</g>
			</g>
			<g>
				<g>
					<path style="fill:#8380FF;" d="M430.647,196.149c1.932,0.555,3.829,1.016,5.817,1.324c2.073,0.321,2.456-3.036,0.361-3.242
						c-2.003-0.197-3.948-0.21-5.957-0.155C429.803,194.104,429.654,195.863,430.647,196.149L430.647,196.149z"/>
				</g>
			</g>
			<g>
				<g>
					<path style="fill:#8380FF;" d="M427.214,199.365c1.831,1.666,3.63,3.426,5.658,4.853c1.65,1.161,3.31-1.223,1.815-2.503
						c-1.877-1.607-4.019-2.912-6.08-4.27C427.304,196.587,426.103,198.355,427.214,199.365L427.214,199.365z"/>
				</g>
			</g>
		</g>
		<g>
			<g>
				<g>
					<path style="fill:#8380FF;" d="M287.942,113.288c1.098-1.552,2.1-3.106,2.995-4.786c0.994-1.866-1.955-3.509-2.829-1.622
						c-0.85,1.835-1.538,3.676-2.149,5.602C285.566,113.72,287.282,114.221,287.942,113.288L287.942,113.288z"/>
				</g>
			</g>
			<g>
				<g>
					<path style="fill:#8380FF;" d="M279.427,113.573c-1.155-1.644-2.343-3.194-3.698-4.682c-1.412-1.551-3.817,0.822-2.316,2.297
						c1.435,1.411,2.942,2.642,4.54,3.86C278.801,115.694,280.021,114.419,279.427,113.573L279.427,113.573z"/>
				</g>
			</g>
			<g>
				<g>
					<path style="fill:#8380FF;" d="M284.119,113.224c-0.38-2.446-0.676-4.946-1.359-7.329c-0.556-1.939-3.345-1.125-2.984,0.81
						c0.453,2.43,1.302,4.789,2.054,7.14C282.305,115.331,284.349,114.708,284.119,113.224L284.119,113.224z"/>
				</g>
			</g>
		</g>
	</g>
	<g style="opacity:0.2;">
		<path style="fill:#421B36;" d="M222.106,467.741c0.3,0.117,0.602,0.232,0.878,0.398h-0.878c0-0.048,0-0.096,0-0.144
			C222.106,467.911,222.106,467.826,222.106,467.741z M223.137,463.882c0.767-1.176,0.305-1.806-1.031-1.728
			c0,0.591,0,1.185,0,1.778C222.473,464.027,222.835,464.063,223.137,463.882z M279.476,459.211c-0.045,0.72-0.42,1.192-0.681,1.877
			c0.775,0.11,1.406,0.572,2.199,0.255c0.252-0.491,0.519-1.011,0.84-1.638C281.604,458.64,279.674,457.717,279.476,459.211z
			 M282.673,468.139h1.961C284.356,467.488,283.452,467.592,282.673,468.139z M268.192,461.416c0.955-0.775,1.56-2.042,0.512-2.914
			c-1.548-0.256-1.85,0.023-2.113,1.162C266.965,460.371,267.198,461.257,268.192,461.416z M297.287,429.696
			c-0.02-0.155-0.042-0.31-0.063-0.465c-0.03,0.075-0.066,0.147-0.087,0.228C297.182,429.544,297.236,429.617,297.287,429.696z
			 M239.39,463.157c0.364,0.935,1.187,0.814,1.914,1.084c1.168-0.71,0.677-1.516,0.835-2.607
			C240.582,461.184,239.779,461.69,239.39,463.157z M294.701,468.139h1.86C296.11,467.675,295.294,467.666,294.701,468.139z
			 M280.892,437.003c0.55-0.589,0.863-1.032,0.846-1.495c-0.829,0.189-1.665,0.349-2.506,0.47
			C279.668,436.59,280.033,437.243,280.892,437.003z M286.932,458.677c-2.009-0.589-2.726,2.759-0.513,2.517
			C287.97,461.096,287.943,459.586,286.932,458.677z M234.821,467.526c-0.486,0.178-0.837,0.308-1.184,0.434
			c-0.021,0.061-0.04,0.118-0.06,0.179h1.93C235.352,467.917,235.132,467.706,234.821,467.526z M276.447,468.139h1.651
			C277.484,467.711,276.868,467.803,276.447,468.139z M259.852,462.211c-1.642-1.294-2.388,0.39-2.367,1.954
			C259.154,464.07,260.903,464.626,259.852,462.211z M266.634,466.109c0.326,0.803,1.029,1.142,1.783,1.434
			c0.909-0.569,1.068-1.377,0.913-2.291C268.378,464.344,266.881,464.96,266.634,466.109z M253.856,451.361
			c-0.483,0.223-0.975,0.433-1.465,0.644c0.033,0.007,0.058,0.024,0.094,0.027C253.163,451.887,253.618,451.7,253.856,451.361z
			 M298.612,461.35c0.033-0.863,0.062-1.798,0.086-2.796C297.02,458.767,297.251,460.808,298.612,461.35z M282.084,451.434
			c0.524,0.213,1.013,0.412,1.604,0.651C287.102,449.931,281.546,447.963,282.084,451.434z M260.471,451.076
			c-0.188-0.456-0.4-0.848-0.634-1.22c-0.573-0.085-1.063-0.157-1.561-0.231c-0.409,0.468-0.626,0.993-0.783,1.457
			c0.27,0.715,1.325,0.189,1.305,1.094C260.205,451.537,260.205,451.537,260.471,451.076z M275.297,459.407
			c-0.798-1.022-2.325-0.75-2.576,0.544C273.018,461.975,276.273,461.293,275.297,459.407z M257.058,454.028
			c-0.063-0.409-0.126-0.821-0.199-1.294c-1.691-1.315-3.012,1.388-1.595,2.57C255.839,454.841,256.706,454.82,257.058,454.028z
			 M263.538,447.934c-0.209-0.211-0.54-0.395-0.531-0.56c-0.068-0.671-0.344-0.955-0.689-1c-0.567,0.429-1.15,0.84-1.744,1.239
			C261.137,449.092,262.798,449.575,263.538,447.934z M279.089,466.292c1.252,3.127,4.151-0.81,1.247-1.826
			C279.868,465.151,279.471,465.734,279.089,466.292z M269.87,457.716c1.176,0.47,1.176,0.47,1.989,0.282
			c0.799-1.474,0.717-1.738-0.823-2.5C269.87,456.246,269.87,456.246,269.87,457.716z M295.953,464.444
			c0.326-0.304,0.855-0.476,1.062-0.891c-0.209-0.577-0.43-1.189-0.638-1.761C294.275,461.201,293.669,464.091,295.953,464.444z
			 M290.604,432.026c-0.774,0.448-1.561,0.872-2.371,1.254c0.014,0.059,0.025,0.118,0.045,0.176
			C289.773,434.102,290.898,433.631,290.604,432.026z M274.073,452.274c-1.796,1.054-0.749,1.143-0.736,2.435
			C275.866,456.17,276.158,453.131,274.073,452.274z M271.303,443.147c-0.431,0.213-0.875,0.431-1.362,0.671
			c-0.398,1.04,0.74,1.146,0.56,2.051c1.395-0.041,1.659-0.234,2.127-1.536C272.265,443.904,271.906,443.448,271.303,443.147z
			 M282.148,438.93c0.429,1.231,2.268,1.204,2.613-0.152C284.505,437.012,281.638,436.977,282.148,438.93z M277.06,458.047
			c0.467-0.188,0.886-0.358,1.412-0.571c0.385-0.729,0.007-1.559-0.851-1.665C276.065,454.921,275.268,457.997,277.06,458.047z
			 M290.209,451.909c0.463-0.785,0.648-2.222-0.518-2.58c-0.338,0.161-0.714,0.34-1.135,0.542
			C287.629,451.198,288.777,452.631,290.209,451.909z M282.206,445.399c1.581,1.689,3.898-0.711,1.439-2.012
			C282.396,443.915,282.396,443.915,282.206,445.399z M231.648,461.452c0.789-0.54,0.917-1.186,1.125-2.111
			c-0.783-1.404-1.981-0.768-2.514,0.455C230.463,460.551,230.847,461.148,231.648,461.452z M298.705,449.027
			c-0.018-0.799-0.039-1.611-0.068-2.443c-0.588-0.102-1.213,0.157-1.43,1.027C297.496,448.427,298.067,449.013,298.705,449.027z
			 M284.775,456.73c-1.298-2.182-2.834-0.83-2.381,1.106C283.344,458.612,284.741,457.92,284.775,456.73z M288.629,468.139h1.421
			C289.557,467.814,289.023,467.776,288.629,468.139z M295.529,431.018c-0.519,0.325-0.79,0.707-1.248,1.167
			c0.531,0.822,0.498,1.629,1.588,1.81C296.945,432.992,297.226,431.527,295.529,431.018z M274.584,467.501
			c0.552-0.37,0.961-0.825,1.105-1.539c-0.418-0.409-0.528-1.113-1.226-1.4C272.936,465.008,272.754,467.243,274.584,467.501z
			 M250.605,467.046c0.715-0.986,0.756-2.299-0.493-2.369C247.825,465.083,248.272,467.564,250.605,467.046z M244.193,467.187
			c1.488-0.566,1.076-2-0.257-2.336c-0.709,0.19-1.122,0.721-1.613,1.238C242.414,467.21,243.401,467.028,244.193,467.187z
			 M270.558,468.139h1.379C271.519,467.529,271.402,467.461,270.558,468.139z M277.517,437.407
			c-0.757,0.183-1.187,0.776-1.751,1.196c0.263,0.689,0.97,0.794,1.448,1.296C278.851,439.543,279.465,437.746,277.517,437.407z
			 M260.864,454.308c0.64,0.973,1.698,0.912,2.412,0.087C263.22,451.449,260.607,452.198,260.864,454.308z M268.045,446.517
			c-0.477,0.399-0.943,0.752-1.203,1.29c0.131,0.759,0.509,1.248,1.288,1.407c0.455-0.491,0.944-0.868,1.544-1.194
			C269.397,447.141,268.805,446.753,268.045,446.517z M265.938,445.68c0.551-0.928,0.314-1.857-0.245-2.214
			c-0.573,0.567-1.168,1.115-1.785,1.64C264.242,445.7,265.184,445.82,265.938,445.68z M284.78,462.771
			c-0.349-0.333-0.736-0.701-1.121-1.069C279.97,462.149,283.894,466.359,284.78,462.771z M257.069,459.628
			c-0.209-1.498-2.496-0.98-2.419,0.531C254.803,461.675,257.222,461.303,257.069,459.628z M278.736,462.913
			c-0.386-0.528-0.816-1.018-1.566-1.111c-0.746,0.463-0.589,1.325-0.922,2.115C277.387,464.983,278.636,464.438,278.736,462.913z
			 M279.037,441.864c-0.054,1.25,2.427,1.061,2.522-0.215c-0.198-0.387-0.406-0.791-0.624-1.218
			C279.887,440.254,278.898,440.519,279.037,441.864z M280.048,454.959c0.628,0.494,1.205-0.439,1.616-0.835
			c0.565-0.798-0.591-1.133-1.151-1.558C278.709,452.854,278.663,453.979,280.048,454.959z M295.596,455.638
			c-0.987-0.031-1.415,1.443-1.198,2.207c0.278,0.429,0.824,0.327,1.173,0.542C296.821,457.933,296.988,455.848,295.596,455.638z
			 M297.385,454.631c0.481,0.174,0.924,0.335,1.365,0.495c0.006-0.822,0.008-1.671,0.003-2.55c-0.376,0.138-0.72,0.262-1.088,0.398
			C297.575,453.509,297.486,454.03,297.385,454.631z M295.303,443.291c-1.196,0.797-0.273,4.004,1.077,2.432
			c-0.132-0.547,0.406-0.695,0.602-1.147C296.548,443.995,296.313,443.237,295.303,443.291z M287.577,440.741
			c-0.904-0.374-2.597-0.204-2.328,1.04c0.589,0.218,0.094,0.746,0.277,1.046c0.711,0.248,1.228-0.254,1.759-0.25
			C287.746,441.984,287.717,441.415,287.577,440.741z M293.035,466.745c0.953-0.384,0.708-0.861,0.29-1.504
			c-0.712-1.05-1.682,0.001-2.318,0.501C291.11,467.051,292.122,467.763,293.035,466.745z M291.28,435.889
			c0.091,0.183,0.184,0.37,0.288,0.58c1.761,0.656,2.664,0.299,1.806-1.69C292.282,433.852,291.403,434.671,291.28,435.889z
			 M253.739,457.834c1.055-1.854-0.004-3.203-1.841-1.755c-0.05,0.36-0.099,0.725-0.151,1.096
			C252.301,457.743,252.91,458.03,253.739,457.834z M250.905,453.251c-0.127-0.215-0.276-0.352-0.431-0.458
			c-0.61,0.24-1.222,0.473-1.839,0.696c-0.099,0.179-0.182,0.369-0.223,0.577C249.126,455.427,251.779,455.014,250.905,453.251z
			 M272.636,462.791c-0.506-0.803-0.506-0.803-1.346-1.186C268.055,462.826,271.259,465.486,272.636,462.791z M240.728,468.139h0.2
			C240.861,468.133,240.795,468.137,240.728,468.139z M252.658,464.089c0.478-0.525,1.283,0.199,1.604-0.617
			C254.068,459.476,249.584,464.367,252.658,464.089z M245.909,468.139h1.663C246.873,467.559,246.223,467.657,245.909,468.139z
			 M240.459,458.067c0.393-0.086,0.753-0.164,1.106-0.242c0.627-1.212,0.289-1.829-0.278-2.034c-0.344,0.093-0.689,0.191-1.031,0.28
			c-0.196,0.051-0.395,0.092-0.591,0.143C239.332,456.641,239.394,457.3,240.459,458.067z M233.668,462.099
			c-0.818,0.9-0.025,2.356,1.147,2.13C236.377,463.438,235.651,460.883,233.668,462.099z M286.217,452.54
			c-1.772,1.023-1.346,2.278,0.567,2.491c0.816-0.415,0.541-1.203,0.854-1.741C287.134,453.024,286.703,452.796,286.217,452.54z
			 M274.585,440.627c-0.63,0.278-1.233,0.545-1.88,0.83c0.23,1.213,1.141,1.161,1.86,1.434c0.408-0.339,0.79-0.657,1.128-0.938
			C275.853,440.985,275.163,440.871,274.585,440.627z M293.99,460.317c-0.217-1.024-0.995-1.774-1.995-1.626
			c-0.583,0.586-0.565,1.194-0.461,1.808C292.392,461.041,293.186,461.166,293.99,460.317z M250.786,459.133
			c-0.738-0.697-2.464-0.257-2.232,0.842C249.072,462.026,251.346,461.075,250.786,459.133z M264.806,458.107
			c0.505-0.251,1.174-0.028,1.477-0.639c-0.031-0.426-0.657-0.771-0.332-1.328c-0.566-1.382-1.747-0.114-2.14,0.747
			C264.033,457.379,264.195,457.907,264.806,458.107z M292.886,448.984c0.286-0.577,0.586-1.089,0.914-1.595
			c-0.965-1.92-1.759-0.957-2.557,0.398C291.657,448.355,291.931,449.011,292.886,448.984z M289.525,443.495
			c-1.174,0.27-1.214,0.769-1.005,2.047c0.466,0.465,1.01,0.508,1.606,0.318C290.889,444.853,290.82,443.878,289.525,443.495z
			 M244.412,461.1c0.242-0.592,0.789-1.066,0.478-1.774c-1.442-0.08-1.412-1.615-2.369,0.675
			C242.704,461.234,243.383,461.397,244.412,461.1z M258.48,468.139h0.719c-0.188-0.065-0.383-0.121-0.585-0.16
			C258.558,468.03,258.527,468.086,258.48,468.139z M256.254,466.994c0.325-0.402,0.61-0.756,0.887-1.099
			c-0.316-0.753-0.316-0.753-1.254-1.322C254.372,465.134,254.228,467.452,256.254,466.994z M247.089,455.688
			c-0.759,0.286-2.21,0.821-1.726,1.876c0.513,0.086,1.104,0.11,1.436,0.694C247.746,458.72,248.202,455.897,247.089,455.688z
			 M290.42,456.874c-0.126-0.328-0.23-0.599-0.332-0.867C286.363,454.335,289.235,460.981,290.42,456.874z M296.496,438.281
			c-0.451-0.318-0.887-0.624-1.308-0.921C292.125,438.677,297.272,441.472,296.496,438.281z M275.667,447.642
			c-0.237-0.649-0.697-0.91-1.724-0.908c-1.286-0.103-1.084,1.12-0.234,1.664C274.2,449.082,275.971,448.562,275.667,447.642z
			 M226.838,460.121c-0.106-0.467-0.335-0.799-0.611-1.019c-0.589,0.104-1.18,0.197-1.771,0.295
			c-0.105,0.154-0.196,0.335-0.261,0.553C225.221,461.312,225.74,461.345,226.838,460.121z M266.978,454.284
			c0.36,0.619,0.952,0.609,1.42,0.792c1.67-0.539,0.611-1.581-0.005-2.499c-0.337,0.027-0.621,0.048-0.887,0.068
			C267.309,453.256,267.134,453.797,266.978,454.284z M266.31,449.971c-0.663-0.297-1.688-0.565-2.129-0.063
			c0.104,0.205,0.216,0.422,0.341,0.668c-0.236,0.223-0.467,0.442-0.732,0.691C264.947,453.034,266.387,451.537,266.31,449.971z
			 M285.783,465.304c-1.369,1.798,0.03,2.643,1.544,1.656C288.21,465.556,287.021,465.075,285.783,465.304z M236.787,459.52
			c0.062,0.406-0.257,0.64-0.4,0.977c0.908,1.117,2.599,0.35,2.489-1.063C238.318,458.927,236.454,458.219,236.787,459.52z
			 M294.344,450.789c0.211,0.318,0.411,0.619,0.645,0.97c0.494,0.038,1.025,0.184,1.539-0.134c0.03-0.529,0.057-1.026,0.086-1.549
			c-0.437-0.204-0.848-0.394-1.191-0.553C294.751,449.794,294.503,450.266,294.344,450.789z M275.017,436.296
			c-0.513,0.002-1.025-0.02-1.538-0.045C273.941,436.593,274.639,436.647,275.017,436.296z M287.023,448.719
			c1.263-1.539-0.917-3.283-1.841-1.48c0.222,0.492,0.191,1.09,0.699,1.48C286.226,448.719,286.599,448.719,287.023,448.719z
			 M252.92,468.139h0.107C252.991,468.135,252.957,468.14,252.92,468.139z M260.145,457.386c0.005-1.607-1.713-2.145-2.423-0.705
			C258.261,458.211,258.791,458.421,260.145,457.386z M298.033,436.601c-0.056-0.639-0.117-1.282-0.181-1.928
			c-0.144-0.022-0.289-0.046-0.445-0.076C297.57,435.407,297.59,436.15,298.033,436.601z M270.336,437.628
			c-0.194,0.396-0.373,0.761-0.546,1.114c0.635,1.356,1.992,0.986,2.535-0.233C272.109,437.386,271.191,437.574,270.336,437.628z
			 M276.973,451.847c1.042-0.082,2.32-1.072,0.975-1.948C276.669,449.119,274.995,451.865,276.973,451.847z M227.526,463.837
			c1.247,0.339,2.673,0.03,2.096-1.8c-0.522-0.052-0.972-0.096-1.47-0.145C227.909,462.567,227.3,463.078,227.526,463.837z
			 M293.305,454.602c1.543-1.309-1.703-2.733-2.023-0.739C291.415,454.873,292.504,455.127,293.305,454.602z M270.066,450.036
			c0.527,0.551,0.478,1.08,0.351,1.571c0.682,0.575,1.311,0.597,2.008-0.008C272.513,450.18,271.518,449.21,270.066,450.036z
			 M262.587,460.787c1.366-0.647-0.106-2.904-1.251-1.72C260.713,460.35,261.066,461.346,262.587,460.787z M298.341,440.609
			c-0.111,0.009-0.215,0.011-0.339,0.032c-0.211,0.414-0.397,0.777-0.619,1.214c0.382,0.418,0.746,0.63,1.076,0.716
			C298.423,441.924,298.384,441.27,298.341,440.609z M292.611,442.619c0.366-0.298,0.746-0.608,1.098-0.893
			C294.005,438.773,289.31,441.622,292.611,442.619z M287.375,436.087c0-0.443,0-0.899,0-1.376
			c-0.294-0.193-0.569-0.376-0.823-0.545c-0.372,0.192-0.703,0.364-1.147,0.593C285.009,435.935,286.401,437.221,287.375,436.087z
			 M298.294,467.116c0.041-0.547,0.094-1.302,0.149-2.25c-0.124-0.029-0.251-0.057-0.383-0.084c-0.721,0.661-0.31,1.164-0.061,1.929
			C298.073,466.938,298.178,467.051,298.294,467.116z M288.441,439.546c0.639,0.087,1.249,0.111,1.854,0.014
			C291.952,437.753,286.951,436.642,288.441,439.546z M277.323,445.981c2.526-1.082,0.43-3.438-1.247-1.454
			C276.415,445.07,276.612,445.633,277.323,445.981z M228.507,468.139h0.521C228.848,468.074,228.675,468.08,228.507,468.139z
			 M265.106,468.139h0.634C265.513,468.096,265.302,468.097,265.106,468.139z M290.319,462.052
			c-0.937-0.209-1.584,0.014-1.995,0.806c0.174,0.36,0.348,0.721,0.515,1.067C289.981,464.237,291.306,463.049,290.319,462.052z
			 M264.45,464.483c1.06-0.284,1.802-0.732,1.799-1.914c-0.152-0.146-0.328-0.314-0.472-0.453c-1.036,0.19-1.574,0.844-1.946,1.693
			C263.986,464.105,264.176,464.258,264.45,464.483z M281.277,448.293c0-0.445,0-0.901,0-1.458
			c-0.622-0.127-1.109-0.151-1.598,0.003C278.661,448.233,280.033,449.523,281.277,448.293z M261.163,466.876
			c0.839,0.144,1.725,0.435,2.085-0.594c-0.21-0.449-0.62-0.739-0.98-1.114c-0.492,0.078-0.97,0.153-1.597,0.252
			C260.879,466.034,261.021,466.455,261.163,466.876z M236.699,465.737c0.089,0.49,0.176,0.971,0.264,1.461
			c0.838,0.279,1.398-0.027,1.804-0.717c-0.059-0.674-0.287-1.222-1.116-1.362C237.375,465.296,237.037,465.517,236.699,465.737z
			 M245.345,463.853c0.253,0.2,0.629,0.235,0.912,0.358c1.125-0.367,1.125-0.367,1.478-1.34c-0.322-0.283-0.662-0.579-1.106-0.969
			C246.22,462.62,245.291,463.166,245.345,463.853z M267.997,442.662c1.159,0.293,1.595-1.252,0.718-1.973
			c-0.287,0.042-0.583,0.168-0.842,0.337c-0.252,0.313-0.498,0.632-0.763,0.934C267.048,442.3,267.272,442.595,267.997,442.662z
			 M235.781,457.334c-0.051-0.048-0.092-0.099-0.129-0.152c-0.396,0.092-0.788,0.197-1.185,0.286
			c0.29,0.054,0.573,0.179,0.864,0.354C235.485,457.654,235.623,457.506,235.781,457.334z M224.048,466.203
			c0.577,0.922,2.363,0.904,2.792-0.052C226.22,465.341,224.426,465.159,224.048,466.203z M233.088,466.071
			c-0.445-0.538-0.654-1.214-1.402-1.19c-0.107,0.201-0.204,0.379-0.33,0.615C228.718,465.447,231.751,467.304,233.088,466.071z
			 M221.705,461.931c-0.185,0.545-0.372,1.096-0.544,1.599c0.342,0.821,0.349,0.819,0.945,0.909c0-0.169,0-0.338,0-0.508
			c0-0.593,0-1.187,0-1.778c0-0.085,0-0.17,0-0.254C221.98,461.909,221.855,461.918,221.705,461.931z M221.114,468.139h0.992
			c0-0.048,0-0.096,0-0.144C221.709,467.76,221.344,467.82,221.114,468.139z M196.395,463.523c0.985,0.738,2.104,1.185,2.807,0.104
			c-0.103-0.538-0.194-1.022-0.299-1.566c-0.148-0.131-0.297-0.227-0.445-0.305c-0.466,0.008-0.932,0.026-1.398,0.03
			C196.6,462.103,196.313,462.734,196.395,463.523z M188.822,467.501c1.042-0.804,1.346-1.642,0.581-2.649
			c-1.23-0.307-1.573-0.152-2.341,1.09c0.215,0.495,0.443,1.019,0.678,1.559C188.174,467.501,188.581,467.501,188.822,467.501z
			 M148.822,464.407c1.867-0.333,1.907-2.603-0.064-2.655C146.953,461.559,147.252,464.415,148.822,464.407z M130.128,439.809
			c0.474,0,0.964,0,1.459,0c0.152-0.295,0.289-0.562,0.421-0.819c-0.698-0.46-1.389-0.945-2.074-1.449
			C129.059,438.184,129.353,439.028,130.128,439.809z M140.47,446.577c-0.581,0-1.056,0-1.498,0
			c-1.042,1.402-0.049,3.071,1.694,2.638c0.204-0.385,0.376-0.709,0.6-1.133C140.976,447.535,140.706,447.022,140.47,446.577z
			 M126.73,436.741c0.725,0.168,1.255-0.001,1.697-0.348c-0.63-0.499-1.251-1.018-1.868-1.547c-0.172,0.21-0.315,0.466-0.424,0.772
			C126.327,435.98,126.538,436.377,126.73,436.741z M138.574,454.359c0.32,0.358,0.594,0.662,0.855,0.951
			C143.799,454.187,138.237,450.044,138.574,454.359z M162.684,452.11c-0.181-1.801-1.053-3.785-2.842-1.854
			C159.155,451.458,161.582,452.173,162.684,452.11z M190.147,462.972c0.258,0.752,0.648,1.271,1.377,1.448
			C194.929,463.109,191.978,460.128,190.147,462.972z M135.543,450.538c0,0.292,0,0.578,0,0.874
			c0.476,0.307,0.926,0.599,1.414,0.915C139.663,451.28,137.496,447.906,135.543,450.538z M146.018,446.24
			c-0.727,0.511-1.286,1.081-1.617,1.892c0.48,0.368,0.904,0.695,1.376,1.055C147.567,448.636,147.906,446.841,146.018,446.24z
			 M148.897,449.406c-1.533,0.384-1.382,1.605-0.732,2.566C149.688,453.172,151.431,449.783,148.897,449.406z M123.674,456.733
			c-0.197,0.204-0.395,0.407-0.674,0.695c1.021,1.003,1.927,1.259,2.785,0.082C126.522,455.42,122.933,454.979,123.674,456.733z
			 M143.068,449.296c-2.217,0.566-1.566,3.92,0.752,2.642c-0.065-0.601,0.016-1.118,0.328-1.602
			C143.726,449.929,143.379,449.595,143.068,449.296z M177.662,466.77c-0.04-0.374-0.085-0.786-0.133-1.234
			c-0.765-0.727-0.765-0.727-1.665-0.806C173.935,466.39,176.42,468.22,177.662,466.77z M179.47,467.595
			c-0.352,0.133-0.638,0.324-0.849,0.545h1.681C180.082,467.932,179.816,467.739,179.47,467.595z M147.771,456.59
			c-0.192,0.613,0.616,0.865,0.793,1.407c0.521,0.859,1.341-0.201,1.683-0.719c0.768-0.88-0.643-1.408-1.193-1.836
			C148.32,455.535,148.071,456.107,147.771,456.59z M129.845,468.139h1.474C130.708,467.787,130.196,467.857,129.845,468.139z
			 M173.326,467.615c-0.257,0.136-0.432,0.323-0.585,0.524h1.313C173.864,467.91,173.638,467.722,173.326,467.615z M120.398,453.64
			c-0.474,0.821,0.658,0.923,0.823,1.741C124.872,454.569,121.696,450.991,120.398,453.64z M183.569,466.911
			c0.973-2.313-1.883-3.397-2.374-0.7C181.843,467.454,182.762,466.884,183.569,466.911z M125.231,433.673
			c-0.528-0.479-1.052-0.964-1.569-1.46C123.145,433.491,124.362,434.322,125.231,433.673z M152.721,460.878
			c0.269-0.325,0.527-0.637,0.799-0.965c-0.452-0.574-0.658-1.331-1.572-1.416c-0.343,0.227-0.722,0.481-1.131,0.754
			C150.536,461.151,151.264,461.067,152.721,460.878z M156.003,445.852c0.614-0.661,0.194-2.046-0.643-2.657
			C153.101,444.03,153.573,446.564,156.003,445.852z M144.715,459.581c-0.333,2.105,1.835,2.194,2.676,0.509
			C146.787,458.254,145.966,458.654,144.715,459.581z M137.909,457.402c0.159-1.128-0.283-1.681-1.385-1.985
			C134.5,456.401,136.374,459.663,137.909,457.402z M193.192,466.136c0.912,1.393,1.91,1.148,2.933,0.061
			c-0.216-0.519-0.376-0.904-0.594-1.429C194.032,464.659,193.879,464.949,193.192,466.136z M168.663,462.776
			c-0.513-1.18-1.268-0.709-2.198-0.798c-0.269,0.38-0.483,0.684-0.725,1.028C166.425,464.421,168.471,464.68,168.663,462.776z
			 M118.547,455.695c-0.088,0.015-0.151,0.05-0.228,0.074c0.174,0.863,0.348,1.699,0.522,2.492
			C119.723,457.873,120.287,456.452,118.547,455.695z M129.142,441.671c-0.739-2.072-3.52-1.104-2.635,0.9
			c0.507,0.096,0.997,0.188,1.524,0.288C128.441,442.521,128.857,442.179,129.142,441.671z M139.79,461.167
			c2.043,0.168,1.462-4.152-0.858-2.15C138.366,460.468,138.654,460.619,139.79,461.167z M125.762,444.103
			c-0.676-0.329-1.296-0.554-2.08-0.304C121.935,446.562,126.766,446.659,125.762,444.103z M145.217,467.179
			c0.554-0.07,1.085-0.138,1.557-0.199c0.558-0.636,0.411-1.314,0.367-2.035C145.925,464.256,143.453,466.185,145.217,467.179z
			 M183.434,460.588c-0.676-0.203-1.361-0.431-2.052-0.682c-0.053,0.107-0.104,0.214-0.168,0.322
			C181.922,461.842,183.029,461.425,183.434,460.588z M173.026,464.096c1.758,0.754,2.275-2.246,0.431-2.371
			C172.1,462.07,171.454,463.486,173.026,464.096z M118.388,427.876c0.34-0.029,0.589-0.145,0.788-0.311
			c-0.563-0.626-1.113-1.255-1.655-1.887c-0.115,0.335-0.224,0.652-0.33,0.961C117.528,427.167,117.929,427.58,118.388,427.876z
			 M133.451,455.33c3.467-0.741-0.537-4.82-1-1.283C132.663,454.533,132.835,455.056,133.451,455.33z M124.578,467.683
			c-0.213,0.143-0.442,0.298-0.678,0.456h1.312C125.073,467.936,124.897,467.756,124.578,467.683z M115.724,428.274
			c-0.03,0.818-0.049,1.637-0.056,2.457c0.156-0.007,0.32-0.031,0.499-0.089C117.182,429.389,116.547,428.379,115.724,428.274z
			 M137.9,444.742c0.507-1.523-2.03-1.856-2.398-0.423C136.287,445.864,137.3,447.239,137.9,444.742z M131.826,444.888
			c-0.547-2.179-2.044-1.574-2.572,0.186c0.566,0.623,0.566,0.623,1.786,1.133C131.503,445.796,131.681,445.296,131.826,444.888z
			 M145.975,455.343c0.351-0.611,0.351-0.611,1.14-0.92C146.299,450.596,142.364,454.019,145.975,455.343z M159.107,460.749
			c-0.039-2.395-1.25-2.877-2.491-0.705C157.01,461.112,158.175,461.6,159.107,460.749z M132.719,459.811
			c0.478,1.375,0.574,1.445,1.792,1.23c-0.299-0.63,0.311-0.808,0.63-1.112C134.812,458.276,132.827,457.933,132.719,459.811z
			 M213.584,460.858c-0.201,0.021-0.402,0.036-0.603,0.056C213.185,460.98,213.392,460.967,213.584,460.858z M133.85,440.251
			c-0.222,0.673-0.881,0.556-1.339,0.814c-0.149,0.78,0.235,1.287,0.715,1.729C135.515,442.908,135.766,441.248,133.85,440.251z
			 M170.999,454.827c-0.633-0.382-1.259-0.775-1.881-1.174c-0.055,0.126-0.115,0.248-0.202,0.355
			C169.454,454.95,170.211,454.93,170.999,454.827z M190.588,468.139h1.836C191.873,467.995,190.902,467.591,190.588,468.139z
			 M187.04,463.026c-0.271-0.914-1.007-1.039-1.673-1.326c-0.361,0.251-0.698,0.485-1.033,0.716c0.11,0.56,0.309,1.042,0.568,1.499
			C186.398,464.244,186.426,464.232,187.04,463.026z M120.127,429.346c0.3,0,0.488,0,0.676,0c-0.823,1.088,0.284,1.485,1.21,1.235
			c-0.529-0.538-1.051-1.081-1.565-1.631C120.326,429.054,120.215,429.179,120.127,429.346z M129.964,458.035
			c0.27,0.128,0.526,0.25,0.789,0.375c0.41-0.344,0.787-0.66,1.102-0.926c-0.016-1.199-0.452-2.275-1.796-1.774
			c-0.219,0.33-0.422,0.637-0.619,0.935c0.266,0.262,0.496,0.488,0.698,0.686C130.071,457.602,130.023,457.795,129.964,458.035z
			 M126.394,448.852c0.805-0.261,1.999,0.285,2.422-0.502c0.094-0.724,0.141-1.702-0.84-1.728
			C126.697,446.981,126.093,447.425,126.394,448.852z M156.638,447.227c0.324,0.612,0.613,1.162,0.902,1.712
			c0.878-0.079,1.103-0.162,1.823-0.685C159.206,446.775,157.647,445.875,156.638,447.227z M142.938,467.69
			c-0.22,0.167-0.406,0.309-0.592,0.45h1.561C143.706,467.943,143.402,467.779,142.938,467.69z M202.334,462.761
			c0.185,0.374,0.352,0.715,0.546,1.107c1.275,0.927,2.894-0.402,1.753-1.851C203.786,461.958,202.899,461.82,202.334,462.761z
			 M169.407,465.126c-0.137,0.399-0.258,0.754-0.366,1.065c0.196,0.705,0.537,1.196,1.287,1.305
			c0.291-0.279,0.588-0.563,0.924-0.885c0-0.397,0-0.85,0-1.334c-0.374-0.188-0.708-0.356-1.047-0.525
			C169.912,464.889,169.648,465.012,169.407,465.126z M166.86,468.139h0.977c-0.074-0.083-0.149-0.166-0.241-0.245
			C167.305,467.931,167.071,468.023,166.86,468.139z M142.16,455.477c-0.036,1.068-0.557,2.157,0.704,2.943
			c0.656-0.384,1.04-0.864,1.259-1.591c-0.281-0.437-0.596-0.926-0.936-1.454C142.839,455.409,142.519,455.44,142.16,455.477z
			 M148.005,445.642c0.435,0.433,0.921,0.333,1.322,0.268c1.223-0.881,1.226-1.662,0.806-2.075
			c-0.603,0.106-1.206,0.192-1.808,0.238C148.085,444.412,147.94,444.917,148.005,445.642z M118.446,449.542
			c-0.565,0.15-0.927,0.487-1.107,0.867c0.078,0.477,0.157,0.949,0.238,1.413c0.281,0.233,0.715,0.33,1.294,0.149
			C119.929,451.471,119.674,449.729,118.446,449.542z M163.276,460.555c0.45,0.197,0.908,0.397,1.395,0.61
			C167.725,460.096,162.756,456.69,163.276,460.555z M197.141,468.139h1.368C198.101,467.85,197.53,467.838,197.141,468.139z
			 M161.456,455.703c-2.016,0.292-1.879,2.511,0.112,2.456C162.934,458.316,162.299,455.968,161.456,455.703z M160.493,468.139
			h1.488c-0.209-0.217-0.518-0.384-0.973-0.439C160.804,467.832,160.64,467.981,160.493,468.139z M153.174,446.89
			c-0.385-0.195-0.783-0.398-1.186-0.602c-0.319,0.123-0.623,0.241-0.948,0.366c-0.028,0.571-0.055,1.106-0.087,1.735
			C152.036,449.259,153.718,448.3,153.174,446.89z M168.492,457.082c0.012-1.001-0.912-1.297-1.746-1.452
			C164.636,457.658,167.619,458.964,168.492,457.082z M141.947,445.598c1.222,0.762,1.895-0.115,2.168-1.274
			c-0.072-0.186-0.18-0.332-0.311-0.442c-0.393-0.06-0.785-0.127-1.176-0.209C141.883,443.874,141.289,444.618,141.947,445.598z
			 M142.828,463.909c0.761-0.405,1.199,0.134,2.006,0.002c-0.66-0.866-0.982-1.766-1.821-2.346
			c-1.249,0.289-0.281,0.897-1.104,1.216C141.125,463.224,142.211,464.267,142.828,463.909z M178.519,463.882
			c0.317,0.117,0.629,0.232,0.993,0.366c0.38-0.209,0.775-0.426,1.131-0.62c-0.092-0.538-0.168-0.989-0.247-1.449
			C179.27,460.955,177.82,462.689,178.519,463.882z M132.615,448.61c0.51,0.128,0.984,0.248,1.438,0.362
			C136.688,446.883,132.261,445.028,132.615,448.61z M149.318,467.91c-0.259,0.063-0.485,0.141-0.685,0.23h0.939
			C149.503,468.073,149.423,468.001,149.318,467.91z M153.922,462.833c0.173,0.353,0.351,0.719,0.529,1.085
			c0.532,0.185,0.994-0.072,1.532-0.09c0.028-0.689,0.561-1.295-0.058-2.01C154.734,461.499,154.47,461.412,153.922,462.833z
			 M135.872,468.139h2.012c-0.421-0.203-0.788-0.38-1.166-0.563C136.321,467.742,136.048,467.936,135.872,468.139z M212.388,467.03
			c2.026,0.38,2.108-1.178,0.959-2.425C211.746,464.215,211.757,466.109,212.388,467.03z M137.59,463.996
			c1.544-1.34-0.23-2.429-1.645-1.693C134.588,463.349,136.512,464.323,137.59,463.996z M153.988,457.71
			c0.5,0.849,2.379,0.44,1.997-0.638c0.325-0.856-0.809-2.02-1.381-1.13C154.281,456.553,153.36,456.951,153.988,457.71z
			 M151.144,465.246c-0.145,0.322-0.262,0.585-0.373,0.834c0.205,0.409,0.39,0.78,0.545,1.089c0.669,0.296,1.125-0.073,1.613-0.238
			c-0.094-0.767,0.688-1.248-0.107-1.848C152.242,464.904,151.708,465.224,151.144,465.246z M218.752,461.142
			c1.015,0.231,1.555-0.391,1.545-1.097c-0.713,0.101-1.428,0.186-2.143,0.278C218.236,460.602,218.42,460.884,218.752,461.142z
			 M128.788,452.913c-0.966-0.293-2.316,0.241-2.273,1.409c0.626,1.343,1.506,0.546,2.384-0.101
			C128.796,453.719,128.767,453.419,128.788,452.913z M176.227,458.936c-1.049,0.503-1.519,1.79-0.246,2.233
			C177.817,461.175,178.343,459.095,176.227,458.936z M119.196,437.622c-0.482,0-0.98,0-1.597,0
			c-0.154,0.474-0.279,0.863-0.403,1.248C117.982,440.578,120.832,438.913,119.196,437.622z M184.944,468.139h1.336
			C185.875,467.726,185.315,467.811,184.944,468.139z M121.804,467.276c2.289-1.337-0.233-3.165-1.203-1.803
			c0.157,0.575,0.294,1.065,0.408,1.461C121.278,467.07,121.551,467.166,121.804,467.276z M123.673,464.176
			c0.838,0.162,1.552,0.123,2.182-0.613C125.26,461.149,122.808,461.929,123.673,464.176z M152.912,454.81
			c0.123-0.494,0.222-0.893,0.317-1.274c-0.36-0.831-1.604-0.945-2.266-0.49C150.787,454.622,151.359,455.093,152.912,454.81z
			 M163.06,466.754c0.991-0.015,2.196,1.271,2.418-0.487C165.482,464.411,162.624,464.885,163.06,466.754z M215.344,461.873
			c-0.797,1.839,0.05,2.654,1.866,1.684C216.95,462.365,216.907,461.484,215.344,461.873z M130.034,463.909
			c0.223,0.079,0.493,0.174,0.743,0.262c1.408-0.689,1.474-1.077,0.432-2.368c-0.854-0.063-0.854-0.063-1.566,0.674
			C130.265,462.842,129.74,463.428,130.034,463.909z M128.325,461.095c0.328-0.558,0.328-0.558,0.262-1.791
			C126.153,457.31,125.769,461.405,128.325,461.095z M117.335,431.919c-0.026,0.421-0.048,0.784-0.069,1.151
			c0.727,0.854,1.656,0.207,2.472-0.154C119.597,431.528,118.326,430.998,117.335,431.919z M158.456,467.258
			c0.529-0.296,0.744-0.738,0.881-1.247c-0.12-0.302-0.24-0.606-0.374-0.946C156.715,464.461,156.322,466.874,158.456,467.258z
			 M127.674,467.305c0.51-0.314,1.084-0.401,1.489-0.959c-0.723-1.807-1.787-1.189-2.968-0.187
			C126.563,466.795,127.199,466.946,127.674,467.305z M116.082,440.565c0.052,0.588,0.11,1.17,0.17,1.751
			c0.057-0.026,0.107-0.059,0.165-0.084C116.605,441.31,116.409,440.797,116.082,440.565z M120.933,461.16
			c0.525-0.589,1.472-0.603,1.846-1.461c-0.11-0.213-0.22-0.431-0.387-0.759C120.684,458.585,119.538,459.835,120.933,461.16z
			 M153.933,451.026c0.553,1.007,2.269,1.625,2.536,0.063C156.029,450.078,153.445,449.343,153.933,451.026z M208.677,463.556
			c1.311,1.2,3.617-0.659,1.901-1.491C209.697,462.012,208.331,462.354,208.677,463.556z M172.119,455.976
			c-0.194,1.154,0.22,1.575,1.133,2.134c0.708-0.52,1.097-0.962,1.223-1.311c-0.548-0.291-1.094-0.592-1.638-0.9
			C172.615,455.912,172.377,455.935,172.119,455.976z M140.139,467.296c-0.202-0.999,0.987-1.16,0.926-2.106
			C138.895,464.312,137.171,467.003,140.139,467.296z M116.591,435.418c-0.145-0.546-0.431-0.833-0.877-0.893
			c0.021,0.641,0.045,1.281,0.078,1.918C116.147,436.188,116.452,435.815,116.591,435.418z M218.502,465.335
			c-1.016,0.415-0.601,0.977,0.014,1.71c1.767,0.347,1.713-0.924,1.234-2.245C219.168,464.779,218.646,464.693,218.502,465.335z
			 M157.22,453.112c-0.1,0.22-0.219,0.482-0.329,0.724c0.814,1.075,0.847,1.1,1.796,1.375c0.299-0.454,0.472-0.971,0.589-1.498
			C158.745,452.917,157.887,452.971,157.22,453.112z M171.078,459.381c-0.477-0.053-0.465-0.566-0.918-0.864
			c-1.025,0.323-1.404,2.637-0.112,2.661C170.671,461.07,171.738,459.932,171.078,459.381z M207.97,466.6
			c0.035-0.397,0.07-0.796,0.105-1.189C206.1,463.33,204.645,469.159,207.97,466.6z M116.335,424.274
			c-0.106-0.128-0.215-0.256-0.321-0.384c-0.022,0.23-0.049,0.458-0.069,0.689c0.007,0.004,0.017,0.007,0.024,0.011
			C116.152,424.506,116.261,424.396,116.335,424.274z M123.904,437.758c-0.102,0.307-0.196,0.585-0.288,0.862
			c0.094,0.279,0.187,0.556,0.299,0.889C125.785,440.234,127.042,436.03,123.904,437.758z M131.661,450.598
			c-0.786-0.064-0.522-0.805-1.005-1.134c-0.575,0.177-0.947,0.609-1.298,1.196c0.179,0.349,0.364,0.711,0.568,1.111
			C130.696,451.614,132.488,451.592,131.661,450.598z M161.512,461.866c-0.365,0.513-0.929,0.724-1.522,0.757
			c-0.455,1.411,1.62,1.747,2.355,0.904C162.122,462.901,162.328,462.157,161.512,461.866z M165.427,454.379
			c-0.321-1.201-0.45-1.906-1.871-1.423C162.482,454.152,164.507,455.618,165.427,454.379z M120.515,448.365
			c0.403,0.139,0.717,0.247,1.017,0.35c0.317-0.258,0.606-0.491,0.893-0.725C122.298,445.622,120.117,446.223,120.515,448.365z
			 M121.703,442.841c1.618-0.941,0.345-1.23,0.049-2.338c-0.912,0.642-0.988,0.72-1.434,1.483
			C120.566,442.571,121.115,442.679,121.703,442.841z M200.729,466.783c0.602,0.039,1.06-0.377,1.064-1.004
			C201.439,463.535,197.632,466.691,200.729,466.783z M215.444,468.101c-0.011,0.013-0.018,0.025-0.029,0.038h1.036
			C216.131,468.049,215.767,468.029,215.444,468.101z M121.884,434.382c-0.421,0.287-0.85,0.582-1.357,0.929
			C121.337,437.954,124.318,435.837,121.884,434.382z M123.598,450.94c0.461,0.356,0.908,0.7,1.331,1.026
			C126.88,450.678,124.022,448.223,123.598,450.94z M203.414,468.139h1.081C204.114,468.077,203.767,468.089,203.414,468.139z
			 M132.618,466.079c0.146,0.902,1.077,0.493,1.629,0.845c0.806,0.043,0.241-1.075,0.227-1.595
			C133.936,464.69,132.617,465.32,132.618,466.079z M119.351,445.581c-0.02-0.552,0.287-1.03-0.019-1.612
			c-0.764,0.011-1.644-0.315-2.069,0.768C118.603,445.654,118.603,445.654,119.351,445.581z"/>
	</g>
</g>
</svg>
