<?xml version="1.0" encoding="utf-8"?>
<!-- Generator: Adobe Illustrator 27.5.0, SVG Export Plug-In . SVG Version: 6.00 Build 0)  -->
<svg version="1.1" xmlns="http://www.w3.org/2000/svg" xmlns:xlink="http://www.w3.org/1999/xlink" x="0px" y="0px"
	 viewBox="0 0 500 500" style="enable-background:new 0 0 500 500;" xml:space="preserve">
<g id="Background_Simple">
	<path style="fill:#FFE6DE;" d="M262.48,445.585c-113.652,19.112-207.173-36.812-225.755-147.24
		c-9.438-56.091,9.076-110.398,44.477-152.758c1.156-1.392,2.333-2.764,3.538-4.126c1.059-1.215,2.146-2.431,3.254-3.626
		c1.117-1.225,2.264-2.44,3.421-3.646c0.284-0.304,0.578-0.608,0.872-0.912c0.676-0.696,1.353-1.382,2.039-2.068
		c0.108-0.118,0.225-0.235,0.333-0.343c1.637-1.637,3.293-3.254,4.979-4.842c1.549-1.46,3.127-2.901,4.724-4.322
		c0.813-0.725,1.627-1.451,2.46-2.156c4.871-4.224,9.938-8.262,15.182-12.094c0.755-0.549,1.509-1.098,2.274-1.646
		c0.323-0.225,0.647-0.461,0.98-0.686c3.136-2.215,6.331-4.361,9.585-6.42c0.265-0.176,0.529-0.343,0.804-0.51
		c25.708-16.181,54.905-27.658,85.886-32.872c48.142-8.096,94.579-0.97,133.519,18.328c0.265,0.118,0.519,0.255,0.774,0.382
		c1.735,0.863,3.46,1.754,5.155,2.676c0.48,0.255,0.961,0.519,1.431,0.774c1.803,0.99,3.587,2.009,5.361,3.058
		c3.871,2.284,7.655,4.704,11.35,7.233c3.391,2.342,6.714,4.793,9.938,7.341c0.951,0.735,1.882,1.49,2.813,2.264
		c0.862,0.696,1.705,1.401,2.548,2.117c0.98,0.833,1.95,1.666,2.911,2.519c2.637,2.333,5.214,4.744,7.713,7.233
		c0.304,0.294,0.608,0.598,0.902,0.902v0.01c0.176,0.167,0.353,0.343,0.529,0.519c0.206,0.206,0.402,0.412,0.608,0.608v0.01
		c1.186,1.215,2.362,2.44,3.509,3.695c23.973,25.894,40.782,58.894,47.25,97.323C476.416,332.727,376.123,426.463,262.48,445.585z"
		/>
	<path style="fill:#FFFFFF;" d="M424.406,201.286c3.277-2.917,3.703-8.492,0.907-11.874c-2.795-3.381-8.351-4.011-11.832-1.341
		c0.746-4.13-1.352-8.621-4.998-10.699c-3.646-2.078-8.58-1.593-11.752,1.154c-3.172,2.747-4.357,7.561-2.822,11.466
		c-1.968-0.447-4.082-0.576-5.96,0.164c-1.877,0.74-3.446,2.505-3.484,4.523c-0.036,1.936,1.131,5.978,2.809,6.943L424.406,201.286z
		"/>
	<path style="fill:#FFFFFF;" d="M84.161,297.852c2.149-1.914,2.429-5.571,0.595-7.789c-1.834-2.218-5.478-2.631-7.762-0.88
		c0.49-2.709-0.887-5.655-3.278-7.018c-2.392-1.363-5.628-1.045-7.709,0.757c-2.081,1.802-2.858,4.96-1.851,7.522
		c-1.291-0.293-2.678-0.378-3.91,0.108s-2.261,1.643-2.285,2.967c-0.024,1.27,0.742,3.921,1.843,4.555L84.161,297.852z"/>
	<path style="fill:#FFFFFF;" d="M439.356,248.885c2.173-1.935,2.455-5.632,0.602-7.874c-1.854-2.242-5.538-2.66-7.847-0.889
		c0.495-2.738-0.896-5.717-3.314-7.095c-2.418-1.378-5.69-1.057-7.793,0.765s-2.889,5.014-1.871,7.604
		c-1.305-0.297-2.707-0.382-3.952,0.109c-1.245,0.49-2.285,1.661-2.31,2.999c-0.024,1.284,0.75,3.964,1.863,4.604L439.356,248.885z"
		/>
	<path style="fill:#FFFFFF;" d="M410.306,349.605c2.173-1.935,2.455-5.632,0.602-7.874c-1.854-2.242-5.538-2.66-7.847-0.889
		c0.495-2.738-0.896-5.717-3.314-7.095c-2.418-1.378-5.689-1.057-7.793,0.765c-2.104,1.822-2.889,5.014-1.871,7.604
		c-1.305-0.297-2.707-0.382-3.952,0.109c-1.245,0.491-2.285,1.661-2.31,2.999c-0.024,1.284,0.75,3.964,1.863,4.604L410.306,349.605z
		"/>
	<path style="fill:#FFFFFF;" d="M357.534,178.48c2.173-1.935,2.455-5.632,0.602-7.874c-1.854-2.242-5.538-2.66-7.847-0.889
		c0.495-2.738-0.896-5.717-3.314-7.095c-2.418-1.378-5.689-1.057-7.793,0.765c-2.104,1.822-2.889,5.014-1.871,7.604
		c-1.305-0.297-2.707-0.382-3.952,0.109s-2.285,1.661-2.31,2.999c-0.024,1.284,0.75,3.964,1.863,4.604L357.534,178.48z"/>
	<path style="fill:#FFFFFF;" d="M134.44,160.753c1.837-1.635,2.075-4.76,0.508-6.655c-1.567-1.895-4.681-2.248-6.632-0.752
		c0.418-2.314-0.758-4.832-2.801-5.997c-2.044-1.165-4.809-0.893-6.587,0.647c-1.778,1.54-2.442,4.238-1.582,6.427
		c-1.103-0.251-2.288-0.323-3.34,0.092c-1.052,0.415-1.931,1.404-1.953,2.535c-0.02,1.085,0.634,3.351,1.575,3.892L134.44,160.753z"
		/>
	<path style="fill:#FFFFFF;" d="M123.521,234.346c4.913-4.374,5.552-12.734,1.36-17.804c-4.192-5.07-12.522-6.014-17.743-2.011
		c1.119-6.192-2.027-12.927-7.494-16.043c-5.467-3.116-12.865-2.389-17.622,1.73c-4.757,4.119-6.533,11.337-4.231,17.193
		c-2.95-0.671-6.121-0.864-8.936,0.246c-2.815,1.109-5.167,3.757-5.224,6.782c-0.054,2.904,1.695,8.963,4.213,10.411
		L123.521,234.346z"/>
	<path style="fill:#FFFFFF;" d="M360.724,133.253c5.239-4.664,5.92-13.578,1.45-18.983c-4.469-5.406-13.352-6.412-18.918-2.144
		c1.194-6.602-2.161-13.783-7.99-17.105c-5.829-3.322-13.717-2.548-18.789,1.844c-5.072,4.392-6.966,12.088-4.511,18.332
		c-3.146-0.715-6.527-0.921-9.528,0.262s-5.509,4.005-5.57,7.231c-0.058,3.096,1.807,9.557,4.492,11.101L360.724,133.253z"/>
	<path style="fill:#FFFFFF;" d="M203.872,132.493c3.799-3.382,4.292-9.845,1.052-13.765c-3.241-3.92-9.681-4.65-13.717-1.554
		c0.865-4.787-1.567-9.994-5.794-12.403c-4.227-2.409-9.946-1.847-13.624,1.337s-5.051,8.765-3.271,13.293
		c-2.281-0.519-4.733-0.668-6.909,0.19c-2.176,0.858-3.995,2.904-4.039,5.243c-0.042,2.245,1.311,6.93,3.257,8.049L203.872,132.493z
		"/>
</g>
<g id="Plants_2">
	<g>
		<g>
			<g>
				<path style="fill:#8380FF;" d="M73.516,382.564c21.826,1.819,39.675,19.122,42.127,40.897c0.132,1.174,1.99,1.187,1.856,0
					c-1.246-11.067-6.221-21.576-14.232-29.359c-8.009-7.78-18.652-12.469-29.751-13.394
					C72.325,380.608,72.332,382.465,73.516,382.564L73.516,382.564z"/>
			</g>
			<path style="fill:#8380FF;" d="M89.838,386.572c-8.117-6.467-19.345-8.829-29.379-6.179c-2.773,0.732-5.845,2.282-6.311,5.112
				c-0.424,2.578,1.698,5.028,4.168,5.879c2.47,0.851,5.174,0.494,7.755,0.088C75.714,389.953,80.434,389.195,89.838,386.572"/>
			<path style="fill:#8380FF;" d="M102.396,393.84c-6.797-0.622-16.122-0.577-21.134,4.057c-2.105,1.946-3.893,5.278-2.077,7.497
				c1.515,1.851,4.415,1.477,6.699,0.768c6.783-2.104,13.105-5.68,18.403-10.41"/>
			<path style="fill:#8380FF;" d="M99.078,390.972c-0.581-5.553-3.409-15.65-9.273-19.716c-2.463-1.708-6.348-3.15-8.383-1.655
				c-1.698,1.247-0.768,3.613,0.407,5.474c3.489,5.527,8.465,10.669,14.484,14.969"/>
		</g>
		<g>
			<path style="fill:#8380FF;" d="M392.673,422.34c-4.523-5.496-12.302-8.793-19.127-6.247c4.934-8.872,4.616-20.195-0.807-28.804
				c-5.423-8.609-15.76-14.199-26.297-14.221c5.681-6.389,6.006-16.555,0.742-23.262c-5.264-6.706-15.588-9.283-23.625-5.895
				c3.243-7.786,6.05-15.96,5.791-24.333c-0.259-8.373-4.09-17.054-11.584-21.433c-6.539-3.821-14.919-3.85-22.249-1.698
				c-14.656,4.303-25.625,16.502-31.475,30.011c-5.85,13.509-7.278,28.339-8.228,42.925c-3.476-9.633-12.709-17.161-23.233-18.943
				c-10.524-1.782-21.914,2.255-28.658,10.158c-1.814-7.971-4.238-16.019-9.231-22.644c-4.993-6.624-13.008-11.655-21.562-11.396
				c-8.554,0.259-16.938,7.015-16.846,15.17c-2.453-3.672-4.975-7.418-8.569-10.103c-3.594-2.686-8.529-4.155-12.816-2.655
				c-7.613,2.663-9.014,12.637-6.558,20.003c2.456,7.366,7.423,14.074,8.016,21.782c-11.96-0.332-23.775,6.817-28.547,17.273
				c-4.772,10.456-2.203,23.567,6.206,31.678c-14.569,3.465-22.91,21.473-15.781,34.067h293.028
				C396.86,449.263,402.736,434.567,392.673,422.34z"/>
			<g>
				<path style="fill:#421B36;" d="M380.28,415.125c-3.988-1.941-8.582-1.288-12.322,0.952c-4.248,2.545-7.101,6.787-9.8,10.814
					c0.534,0,1.069,0,1.603,0c-4.985-7.161-15.885-5.574-18.526,2.782c-0.361,1.142,1.431,1.63,1.79,0.493
					c2.141-6.772,11.053-8.199,15.133-2.338c0.409,0.587,1.198,0.605,1.603,0c4.088-6.1,11.049-15.254,19.581-11.1
					C380.413,417.248,381.356,415.648,380.28,415.125L380.28,415.125z"/>
			</g>
			<g>
				<path style="fill:#421B36;" d="M109.118,421.383c8.352-4.527,18.774-0.258,21.535,8.82c0.277,0.912,1.487,0.849,1.79,0
					c0.964-2.697,3.991-4.13,6.699-3.32c1.147,0.343,1.637-1.448,0.494-1.79c-3.729-1.115-7.685,0.985-8.983,4.617
					c0.597,0,1.193,0,1.79,0c-3.116-10.242-14.845-15.034-24.262-9.93C107.131,420.35,108.067,421.953,109.118,421.383
					L109.118,421.383z"/>
			</g>
			<g>
				<path style="fill:#421B36;" d="M151.181,395.122c-0.297-4.435,0.86-9.278,4.676-11.977c3.251-2.3,8.193-2.204,10.545,1.359
					c0.655,0.993,2.264,0.064,1.603-0.937c-2.775-4.204-8.54-4.907-12.658-2.309c-4.678,2.951-6.376,8.583-6.022,13.865
					C149.404,396.308,151.261,396.317,151.181,395.122L151.181,395.122z"/>
			</g>
		</g>
		<g>
			<path style="fill:#8380FF;" d="M150.916,192.686c-1.932-2.93-4.007-5.865-6.87-7.894c-2.863-2.029-6.692-3.02-9.948-1.71
				c-3.859,1.552-5.952,5.96-6.008,10.119c-0.056,4.159,1.526,8.147,3.141,11.98c6.415,15.227,28.398,44.05,36.631,58.375
				c-12.356-8.417-40.054-29.783-53.647-36.009c-4.613-2.113-10.853-3.774-14.107,0.118c-3.007,3.595-0.909,9.07,1.72,12.95
				c11.506,16.978,47.257,28.842,67.762,28.365l8.728-7.769C173.936,236.833,164.552,213.365,150.916,192.686z"/>
			<g>
				<path style="fill:#421B36;" d="M109.467,237.385c17.183,9.644,34.077,20.123,52.147,28.065c1.083,0.476,2.029-1.123,0.937-1.603
					c-18.07-7.942-34.963-18.421-52.147-28.065C109.361,235.197,108.424,236.799,109.467,237.385L109.467,237.385z"/>
			</g>
			<g>
				<path style="fill:#421B36;" d="M170.391,243.465c-10.399-14.395-19.292-29.823-26.537-46.036
					c-0.487-1.089-2.087-0.146-1.603,0.937c7.245,16.213,16.138,31.641,26.537,46.036
					C169.481,245.361,171.092,244.436,170.391,243.465L170.391,243.465z"/>
			</g>
		</g>
		<g>
			<path style="fill:#8380FF;" d="M402.864,332.668c2.93-1.932,5.865-4.007,7.894-6.87c2.029-2.863,3.02-6.692,1.71-9.947
				c-1.553-3.859-5.96-5.952-10.119-6.008c-4.159-0.056-8.147,1.526-11.98,3.141c-15.226,6.415-44.05,28.398-58.375,36.631
				c8.417-12.356,29.783-40.054,36.009-53.647c2.113-4.613,3.774-10.853-0.118-14.107c-3.595-3.007-9.07-0.909-12.949,1.72
				c-16.978,11.506-27.513,31.943-27.037,52.447l6.441,24.043C358.717,355.689,382.185,346.304,402.864,332.668z"/>
			<g>
				<path style="fill:#421B36;" d="M362.045,290.921c-8.787,15.654-18.059,31.031-27.803,46.108
					c-0.65,1.006,0.956,1.938,1.603,0.937c9.744-15.077,19.016-30.454,27.803-46.108
					C364.233,290.814,362.63,289.877,362.045,290.921L362.045,290.921z"/>
			</g>
			<g>
				<path style="fill:#421B36;" d="M352.085,352.143c14.395-10.399,29.823-19.292,46.036-26.537
					c1.089-0.487,0.146-2.087-0.937-1.603c-16.213,7.245-31.641,16.138-46.036,26.537
					C350.188,351.233,351.114,352.845,352.085,352.143L352.085,352.143z"/>
			</g>
		</g>
		<g>
			<g>
				<path style="fill:#8380FF;" d="M327.544,276.258c17.964-19.682,35.927-39.363,53.891-59.045
					c0.804-0.881-0.505-2.197-1.313-1.313c-17.964,19.682-35.927,39.363-53.891,59.045
					C325.427,275.826,326.737,277.142,327.544,276.258L327.544,276.258z"/>
			</g>
			<path style="fill:#8380FF;" d="M364.103,236.425c2.893-13.091,8.225-21.377,17.956-30.133c1.149-1.034,2.422-2.062,3.926-2.246
				c1.504-0.184,3.241,0.844,3.325,2.428c0.052,0.97-0.497,1.85-1.031,2.644c-6.382,9.482-14.002,18.051-22.58,25.391
				c10.535-10.857,25.896-16.349,40.572-14.506c1.98,0.249,4.262,0.873,5.027,2.802c0.572,1.441,0.024,3.16-0.978,4.314
				c-1.003,1.154-2.385,1.856-3.747,2.488c-13.397,6.217-28.491,8.36-42.985,6.103"/>
			<path style="fill:#8380FF;" d="M349.381,252.335c9.973-3.093,20.831-2.975,30.74,0.334c0.999,0.334,2.098,0.802,2.499,1.817
				c0.511,1.294-0.39,2.713-1.363,3.673c-4.435,4.376-11.142,5.428-17.134,4.268c-5.992-1.16-11.464-4.237-16.824-7.271"/>
			<path style="fill:#8380FF;" d="M355.952,243.381c0.741-8.271-0.943-16.764-4.767-24.042c-0.386-0.734-0.882-1.526-1.666-1.691
				c-1-0.21-1.881,0.706-2.424,1.61c-2.474,4.12-2.237,9.532-0.526,14.057c1.711,4.525,4.716,8.36,7.674,12.114"/>
		</g>
		<g>
			<g>
				<path style="fill:#8380FF;" d="M95.165,275.357c11.965-0.268,23.947,3.693,33.208,11.331
					c8.725,7.196,14.779,17.252,17.207,28.281c0.257,1.166,2.047,0.673,1.79-0.494c-2.531-11.497-8.954-22.078-18.142-29.472
					c-9.583-7.713-21.778-11.777-34.063-11.502C93.972,273.527,93.968,275.384,95.165,275.357L95.165,275.357z"/>
			</g>
			<path style="fill:#8380FF;" d="M113.37,277.902c-9.511-6.064-21.916-7.335-32.459-3.326c-2.914,1.108-6.057,3.133-6.238,6.245
				c-0.165,2.835,2.409,5.241,5.176,5.879c2.767,0.638,5.649-0.056,8.391-0.79C98.49,283.168,103.505,281.81,113.37,277.902"/>
			<path style="fill:#8380FF;" d="M127.435,285.281c-7.417,0.103-14.73,3.481-19.618,9.061c-2.053,2.344-3.605,6.149-1.389,8.34
				c1.849,1.828,4.94,1.093,7.329,0.066c7.091-3.048,13.516-7.635,18.702-13.352"/>
		</g>
		<g>
			<g>
				<path style="fill:#8380FF;" d="M176.399,173.114c8.802,6.592,15.35,16.059,18.336,26.651c3.306,11.729,2.08,24.495-3.193,35.457
					c-0.516,1.072,1.085,2.015,1.603,0.937c5.491-11.415,6.826-24.661,3.38-36.887c-3.126-11.089-9.987-20.869-19.189-27.76
					C176.379,170.795,175.452,172.406,176.399,173.114L176.399,173.114z"/>
			</g>
			<path style="fill:#8380FF;" d="M189.042,186.286c-3.736-10.643-12.709-19.303-23.477-22.66c-2.976-0.928-6.699-1.276-8.763,1.06
				c-1.88,2.128-1.341,5.61,0.441,7.82c1.782,2.21,4.478,3.444,7.088,4.56C174.086,181.24,178.869,183.268,189.042,186.286"/>
			<path style="fill:#8380FF;" d="M195.547,200.777c-5.898-4.499-13.736-6.359-21.026-4.988c-3.062,0.576-6.633,2.61-6.243,5.702
				c0.326,2.579,3.211,3.91,5.724,4.578c7.46,1.982,15.346,2.341,22.955,1.047"/>
		</g>
		<g>
			<g>
				<path style="fill:#8380FF;" d="M360.187,172.854c-11.088,3.041-21.027,9.697-27.98,18.866
					c-7.608,10.033-11.243,22.798-10.322,35.329c0.087,1.184,1.944,1.194,1.856,0c-0.885-12.038,2.504-24.217,9.72-33.928
					c6.688-9.001,16.427-15.517,27.219-18.477C361.831,174.329,361.342,172.537,360.187,172.854L360.187,172.854z"/>
			</g>
			<path style="fill:#8380FF;" d="M343.986,182.291c7.376-8.534,18.897-13.304,30.147-12.483c3.109,0.227,6.701,1.267,7.766,4.197
				c0.97,2.668-0.807,5.711-3.275,7.115c-2.468,1.404-5.428,1.564-8.266,1.646C359.751,183.074,354.557,183.209,343.986,182.291"/>
			<path style="fill:#8380FF;" d="M332.624,193.39c7.136-2.026,15.11-0.884,21.391,3.062c2.638,1.658,5.215,4.859,3.72,7.593
				c-1.248,2.281-4.42,2.462-7.003,2.162c-7.667-0.889-15.137-3.444-21.743-7.436"/>
		</g>
		<g>
			<g>
				<path style="fill:#8380FF;" d="M408.586,359.779c-12.063,0.69-23.736,5.511-32.633,13.722
					c-8.812,8.133-14.567,19.347-16.204,31.207c-0.161,1.168,1.627,1.674,1.79,0.493c1.57-11.375,6.928-22.072,15.288-29.979
					c8.574-8.109,19.998-12.914,31.758-13.587C409.774,361.568,409.782,359.711,408.586,359.779L408.586,359.779z"/>
			</g>
			<path style="fill:#8380FF;" d="M390.716,365.618c8.998-6.801,21.263-9.055,32.091-5.898c2.993,0.873,6.287,2.641,6.715,5.729
				c0.39,2.812-1.984,5.416-4.692,6.272c-2.707,0.856-5.635,0.393-8.428-0.12C405.968,369.684,400.86,368.729,390.716,365.618"/>
			<path style="fill:#8380FF;" d="M377.282,374.094c7.402-0.488,14.961,2.297,20.277,7.471c2.233,2.173,4.083,5.843,2.048,8.203
				c-1.698,1.969-4.838,1.482-7.3,0.649c-7.311-2.474-14.081-6.535-19.705-11.822"/>
		</g>
		<g>
			<path style="fill:#8380FF;" d="M98.252,330.021c-3.533-1.236-7.588-2.082-10.899-0.336c-5.084,2.681-5.523,10.312-2.375,15.121
				c3.148,4.808,8.626,7.463,13.836,9.89c10.24,4.772,20.479,9.544,30.719,14.315l4.745-0.364
				C129.449,350.983,115.537,336.067,98.252,330.021z"/>
			<g>
				<path style="fill:#421B36;" d="M92.781,338.657c8.022,2.32,14.895,8.048,21.037,13.48c5.774,5.107,11.071,10.734,16.885,15.791
					c0.898,0.781,2.216-0.527,1.313-1.313c-6.093-5.299-11.627-11.21-17.715-16.52c-6.17-5.381-13.031-10.917-21.027-13.229
					C92.124,336.534,91.633,338.325,92.781,338.657L92.781,338.657z"/>
			</g>
		</g>
	</g>
</g>
<g id="Character_00000151509582978927205000000003054056462890914697_">
	<g>
		<g>
			<path style="fill:#421B36;" d="M291.212,350.601l-99.618-0.416c0,0-34.839,57.127-40.684,103.238l85.75,0.414l3.562-8.167
				l3.415,8.384h81.18C324.819,454.053,332.637,400.735,291.212,350.601z"/>
			<path style="fill:#8380FF;" d="M213.004,371.472c-0.076-4.852,0.484-9.713,1.663-14.431c16.837,2.524,34.22,3.13,48.743,1.553
				c1.194,4.721,1.735,9.479,1.06,14.295C246.578,374.148,227.794,374.04,213.004,371.472z"/>
			<path style="fill:#8380FF;" d="M295.694,368.439c1.741-1.989-1.37-9.49-3.98-12.625l-21.371,2.247
				c1.207,3.748,2.012,10.058,1.152,13.9C271.495,371.961,295.273,368.92,295.694,368.439z"/>
			<path style="fill:#8380FF;" d="M194.38,354.029c0,0-5.171,8.708-3.669,12.082c2.07,4.647,15.051,4.647,15.051,4.647
				c-0.32-4.797,0.286-9.648,1.779-14.244L194.38,354.029z"/>
			<g>
				<path style="fill:#A0D2F4;" d="M244.696,358.557c-2.674-1.083-5.508-2.069-8.371-2.474c-1.29-0.182-3.029-0.361-3.958,0.769
					c-0.733,0.892-0.9,2.267-1.058,3.368c-0.524,3.645-0.537,7.433-0.189,11.095c0.123,1.297,0.243,2.687,0.737,3.906
					c0.492,1.214,1.42,1.389,2.643,1.414c3.389,0.069,6.848-0.477,10.197-0.961c1.178-0.17,0.677-1.96-0.493-1.79
					c-2.591,0.375-5.262,0.7-7.905,0.849c-0.709,0.04-1.424,0.073-2.134,0.035c-0.252-0.013-0.365-0.074-0.546-0.059
					c-0.184,0.016-0.125-0.059,0.05,0.06c0.021,0.014,0.056-0.048,0.055,0.058c0.001-0.219-0.277-0.646-0.374-1.05
					c-0.136-0.57-0.226-1.152-0.296-1.734c-0.399-3.331-0.396-6.769-0.09-10.107c0.109-1.196,0.215-2.518,0.686-3.638
					c-0.032,0.077,0.13-0.255,0.187-0.333c-0.04,0.055,0.034-0.017,0.106-0.038c0.559-0.161,1.143-0.128,1.718-0.07
					c2.905,0.296,5.847,1.399,8.541,2.491C245.31,360.796,245.791,359.001,244.696,358.557L244.696,358.557z"/>
			</g>
			<g>
				<path style="fill:#A0D2F4;" d="M232.436,368.448c3.512-0.623,7.103-0.696,10.642-0.268c0.499,0.06,0.928-0.47,0.928-0.928
					c0-0.552-0.428-0.868-0.928-0.928c-3.713-0.448-7.455-0.318-11.136,0.335c-0.494,0.088-0.772,0.691-0.648,1.142
					C231.438,368.321,231.941,368.536,232.436,368.448L232.436,368.448z"/>
			</g>
			<g>
				<path style="fill:#8380FF;" d="M171.8,406.71c14.598-3.514,27.37-13.15,34.769-26.214c0.589-1.041-1.014-1.978-1.603-0.937
					c-7.173,12.667-19.508,21.954-33.659,25.361C170.146,405.2,170.637,406.99,171.8,406.71L171.8,406.71z"/>
			</g>
			<g>
				<path style="fill:#8380FF;" d="M240.804,433.087c-2.319-17.452-3.831-35.487-2.056-53.059c0.12-1.188-1.737-1.179-1.856,0
					c-1.776,17.572-0.264,35.607,2.056,53.059C239.103,434.254,240.961,434.269,240.804,433.087L240.804,433.087z"/>
			</g>
			<g>
				<path style="fill:#8380FF;" d="M252.599,386.532c1.07,14.831,2.14,29.662,3.21,44.494c0.227-0.298,0.454-0.597,0.681-0.895
					c-5.402,1.671-10.969,2.349-16.615,2.028c-1.194-0.068-1.19,1.789,0,1.857c5.799,0.329,11.56-0.378,17.109-2.094
					c0.368-0.114,0.711-0.484,0.681-0.895c-1.07-14.831-2.14-29.662-3.21-44.494C254.37,385.348,252.513,385.338,252.599,386.532
					L252.599,386.532z"/>
			</g>
			<g>
				<path style="fill:#8380FF;" d="M280.268,385.964c4.555,16.763,19.259,30.032,36.432,32.75c1.169,0.185,1.672-1.604,0.493-1.79
					c-16.559-2.621-30.735-15.259-35.135-31.453C281.745,384.319,279.953,384.808,280.268,385.964L280.268,385.964z"/>
			</g>
		</g>
		<g>
			<path style="fill:#421B36;" d="M374.239,260.648c-2.54-5.745-11.303-7.175-14.614-12.584c-3.065-5.006-0.382-11.572-2.907-16.821
				c-3.389-7.042-13.998-8.263-19.674-13.954c-9.221-9.243-1.716-25.292-9.129-35.799c-4.275-6.059-12.677-8.924-16.855-15.039
				c-3.037-4.446-3.384-9.925-3.98-15.133c-1.527-13.348-5.448-26.875-14.453-37.496c-9.005-10.621-23.854-17.815-38.411-15.747
				l-29.161,208.151c13.889-0.59,135.953-20.129,143.243-29.503C372.052,271.893,376.667,266.14,374.239,260.648z"/>
			<g>
				<path style="fill:#421B36;" d="M295.064,127.075c-0.702,12.605,4.894,25.496,13.779,34.351
					c4.892,4.875,10.606,7.978,16.803,10.892c9.065,4.262,14.458,9.566,16.322,19.705c2.157,11.735,3.781,21.688,16.285,26.021
					c7.055,2.445,14.717,2.864,21.225,6.803c7.903,4.784,12.542,12.59,14.459,21.461c0.336,1.554,2.558,0.859,2.336-0.644
					c-1.68-11.384-9.629-21.299-20.385-25.46c-6.348-2.456-13.388-2.774-19.56-5.702c-8.787-4.168-10.157-12.458-11.628-21.143
					c-0.856-5.052-1.909-10.265-5.118-14.412c-4.193-5.418-10.842-7.65-16.772-10.561c-16.467-8.082-25.37-23.473-27.23-41.312
					C295.546,126.749,295.083,126.738,295.064,127.075L295.064,127.075z"/>
			</g>
		</g>
		<g>
			<g>
				<path style="fill:#8380FF;" d="M307.872,190.476c-10.272,2.823-19.459,8.995-25.876,17.511
					c-6.951,9.224-10.257,20.932-9.418,32.425c0.086,1.184,1.944,1.194,1.856,0c-0.803-11.005,2.263-22.114,8.818-31.022
					c6.144-8.35,15.142-14.383,25.114-17.124C309.516,191.95,309.027,190.159,307.872,190.476L307.872,190.476z"/>
			</g>
			<path style="fill:#8380FF;" d="M292.986,199.23c6.786-7.852,17.387-12.241,27.737-11.485c2.861,0.209,6.165,1.166,7.145,3.862
				c0.892,2.455-0.743,5.255-3.013,6.546c-2.271,1.292-4.994,1.439-7.606,1.515C307.491,199.951,302.711,200.076,292.986,199.23"/>
			<path style="fill:#8380FF;" d="M281.981,208.686c6.566-1.864,15.74-3.537,21.52,0.094c2.428,1.525,4.799,4.471,3.422,6.986
				c-1.148,2.098-4.067,2.265-6.443,1.99c-7.054-0.818-13.927-3.169-20.005-6.842"/>
			<path style="fill:#8380FF;" d="M284.714,205.257c-0.452-5.565,0.467-16.01,5.482-21.087c2.106-2.133,5.659-4.265,7.935-3.171
				c1.899,0.913,1.42,3.409,0.608,5.456c-2.411,6.075-6.354,12.046-11.479,17.381"/>
		</g>
		<g>
			<path style="fill:#A0D2F4;" d="M131.448,274.868c0,0,33.708-44.625,46.581-56.492c12.872-11.866,44.27-15.604,44.27-15.604
				l39.339,0.637c0,0,43.34,7.983,57.544,28.845c14.204,20.862,38.618,56.92,36.398,61.307c-2.219,4.387-31.38,19.402-31.38,19.402
				l-21.901-16.941c0,0,3.082,48.445-7.127,54.133c-10.209,5.689-105.511,5.365-110.979-4.643
				c-6.548-11.986-5.354-41.318-5.354-41.318S140.326,296.359,131.448,274.868z"/>
			<g>
				<g>
					<path style="fill:#8380FF;" d="M304.927,295.199c4.099-13.873,10.261-27.034,18.274-39.077
						c0.664-0.997-0.944-1.928-1.603-0.937c-8.098,12.17-14.319,25.503-18.461,39.521
						C302.798,295.854,304.589,296.345,304.927,295.199L304.927,295.199z"/>
				</g>
				<path style="fill:#8380FF;" d="M307.873,284.66c5.087-9.444,13.082-17.296,22.617-22.212c0.79-0.407,1.693-0.804,2.539-0.531
					c1.717,0.554,1.548,3.045,0.878,4.72c-4.313,10.78-15.315,18.538-26.917,18.981"/>
				<path style="fill:#8380FF;" d="M319.011,262.971c7.161-8.01,11.803-18.239,13.117-28.902c0.292-2.374,0.248-5.185-1.65-6.641
					c-2.017-1.547-5.14-0.549-6.731,1.434c-1.591,1.983-2.049,4.616-2.454,7.126c-1.437,8.903-2.874,17.806-4.311,26.71"/>
			</g>
			<g style="opacity:0.3;">
				<path style="fill:#421B36;" d="M187.822,321.142c-0.484-0.301-0.936-0.583-1.39-0.864c-0.017-0.811-0.702-0.72-1.197-0.887
					c-0.64,0.146-1.314,0.226-1.708,0.86c0.074,0.215,0.279,0.518,0.203,0.628c-0.654,0.952-0.061,1.4,0.574,1.851
					c0.375-0.148,0.654-0.254,0.931-0.363c0,0.248,0,0.496,0,0.745C186.505,323.497,187.748,322.432,187.822,321.142z"/>
				<path style="fill:#421B36;" d="M221.44,287.817c0.967-0.362,2.42-1.442,1.329-2.472c-0.217-1.154-0.387-2.007-1.725-1.906
					c-1.443-0.015-2.03-0.854-2.381-1.897c-0.332,0.175-0.67,0.331-1,0.514c-0.455,0.252-0.884,0.502-1.328,0.753
					c0.295,0.138,0.613,0.232,0.972,0.219C220.324,283.021,218.791,287.268,221.44,287.817z"/>
				<path style="fill:#421B36;" d="M242.475,279.436c-1.254,1.268-0.785,3.489,0.967,3.825
					C247.233,282.59,245.758,278.558,242.475,279.436z"/>
				<path style="fill:#421B36;" d="M234.439,301.223c4.085-0.266,2.326-5.425-0.292-3.948
					C232.277,298.548,232.865,299.943,234.439,301.223z"/>
				<path style="fill:#421B36;" d="M268.324,307.505c0.127,0.549,0.264,1.135,0.394,1.692
					C274.595,312.39,273.011,302.533,268.324,307.505z"/>
				<path style="fill:#421B36;" d="M255.884,314.196c1.561,0.109,1.561,0.109,2.981-0.618c0-0.651,0-1.313,0-1.922
					c-1.708-1.893-3.018-1.611-4.024,0.711C255.248,313.081,255.572,313.649,255.884,314.196z"/>
				<path style="fill:#421B36;" d="M274.525,292.467c-1.141,0.4-1.09,1.511-1.533,2.492
					C275.767,299.08,279.62,293.41,274.525,292.467z"/>
				<path style="fill:#421B36;" d="M225.625,279.345c-0.483,0.17-0.999,0.348-1.296,0.454c-2.69,2.961,3.733,4.918,3.538,1.117
					C227.325,280.127,226.602,279.603,225.625,279.345z"/>
				<path style="fill:#421B36;" d="M295.964,291.576l-0.651-1.461c-0.065,0.156-0.13,0.311-0.204,0.499
					C295.351,291.007,295.648,291.319,295.964,291.576z"/>
				<path style="fill:#421B36;" d="M192.254,316.739c-0.63-2.575-4.576-2.03-3.996,0.726
					C188.91,319.768,191.836,318.723,192.254,316.739z"/>
				<path style="fill:#421B36;" d="M192.918,321.556l0.399-0.464c0,0,1.153-0.209,2.886-0.602
					C195.024,318.697,193.072,319.362,192.918,321.556z"/>
				<path style="fill:#421B36;" d="M257.813,302.025c-2.343-0.832-3.213,2.925-1.336,3.685
					C259.39,305.905,260.147,303.919,257.813,302.025z"/>
				<path style="fill:#421B36;" d="M248.379,304.976c1.046-0.431,1.734-0.773,2.015-1.983
					C245.557,298.569,244.63,306.363,248.379,304.976z"/>
				<path style="fill:#421B36;" d="M266.052,292.452c-1.349,0.303-1.282,1.508-1.833,2.115c0.157,3.025,3.93,2.001,3.945-0.492
					C267.564,293.275,266.95,292.688,266.052,292.452z"/>
				<path style="fill:#421B36;" d="M240.955,304.762c0.315-1.424,0.204-2.679-1.39-3.421
					C235.485,302.762,237.802,306.491,240.955,304.762z"/>
				<path style="fill:#421B36;" d="M289.004,282.996c0.462-0.155,0.753-0.425,0.955-0.733c-0.883-0.345-1.988-0.76-3.327-1.229
					C286.347,282.201,287.024,283.214,289.004,282.996z"/>
				<path style="fill:#421B36;" d="M254.988,285.805c0.39,0.566,0.563,1.133,1.096,1.562
					C261.818,287.963,257.158,280.002,254.988,285.805z"/>
				<path style="fill:#421B36;" d="M290.77,294.544c0.513,0.477,0.873,1.081,1.111,1.795c0.669,0,1.32,0,1.963,0
					C296.715,293.681,290.785,290.662,290.77,294.544z"/>
				<path style="fill:#421B36;" d="M270.151,300.871c0.887-0.824,2.436-1.141,2.124-2.473c-0.061-1.056-1.616-2.224-2.354-1.338
					c-0.594,1.116-1.783,1.421-1.709,2.834C268.925,300.363,269.388,300.571,270.151,300.871z"/>
				<path style="fill:#421B36;" d="M188.522,326.675l2.243-2.612C188.878,323.603,188.003,325.121,188.522,326.675z"/>
				<path style="fill:#421B36;" d="M220.026,302.121c-0.166,0.061-0.333,0.126-0.501,0.191c0.013,0.204,0.001,0.439-0.011,0.684
					C219.688,302.7,219.86,302.408,220.026,302.121z"/>
				<path style="fill:#421B36;" d="M219.121,299.464c-0.926-1.362-1.814-2.454-3.569-1.705c-0.174,0.602-1.014,0.916-0.823,1.718
					c0.951,0.78,1.78,1.733,3.221,1.676C218.32,300.617,218.7,300.069,219.121,299.464z"/>
				<path style="fill:#421B36;" d="M250.042,295.021c-0.021-2.36-2.712-3.445-3.699-1.097c0.383,0.833,0.987,1.608,0.396,2.542
					C248.333,297.294,249.101,296.12,250.042,295.021z"/>
				<path style="fill:#421B36;" d="M248.164,287.916c0.79-0.668,1.479-1.249,2.204-1.86c-0.207-1.266-1.362-1.757-1.953-2.666
					c-1.65,0.987-1.951,1.373-2.113,2.77C247.245,286.599,247.704,286.979,248.164,287.916z"/>
				<path style="fill:#421B36;" d="M267.692,277.586c-0.079-0.576-0.146-1.074-0.213-1.558c-0.859-0.151-1.732-0.293-2.618-0.428
					c-0.385,0.203-0.754,0.433-1.072,0.718C264.289,278.65,266.076,279.76,267.692,277.586z"/>
				<path style="fill:#421B36;" d="M212.445,305.653c1.798-0.804,1.91-1.117,1.247-3.486c-1.753-0.848-2.121-0.674-3.14,1.558
					C211.195,305.095,211.195,305.095,212.445,305.653z"/>
				<path style="fill:#421B36;" d="M203.685,301.686c-1.803,0.757-2.012,1.072-1.969,3.07c1.823,1.151,2.863,0.481,3.972-0.786
					C204.956,302.388,204.956,302.388,203.685,301.686z"/>
				<path style="fill:#421B36;" d="M191.921,307.387c-0.604-0.584-1.175-1.135-1.895-1.835c-0.725,0.527-1.259,0.914-1.735,1.259
					c0,0.745,0,1.359,0,1.98C189.755,310.572,191.818,309.539,191.921,307.387z"/>
				<path style="fill:#421B36;" d="M289.8,324.565c0.114,0.148,0.228,0.296,0.342,0.443
					C290.062,324.858,289.95,324.711,289.8,324.565z"/>
				<path style="fill:#421B36;" d="M241.34,284.824c-1.502-1.244-3.65-1.138-4.32,0.84
					C238.387,287.743,242.017,288.071,241.34,284.824z"/>
				<path style="fill:#421B36;" d="M225.277,297.412l2.242,1.402C227.506,297.205,226.301,296.962,225.277,297.412z"/>
				<path style="fill:#421B36;" d="M237.074,276.766c0.291,1.465,1.538,1.706,2.722,2.177c0.651-0.987,1.683-1.738,1.079-3.218
					c-0.493-0.399-0.936-0.589-1.348-0.643c-0.308,0.04-0.617,0.096-0.925,0.14C238.041,275.483,237.542,276.033,237.074,276.766z"
					/>
				<path style="fill:#421B36;" d="M217.316,288.062c-0.727,0.375-1.48,0.763-2.246,1.158c0.001,1.526,0.608,2.511,2.128,3.049
					c0.684-0.764,1.447-1.294,1.98-2.272C218.361,289.557,218.427,288.358,217.316,288.062z"/>
				<path style="fill:#421B36;" d="M301.826,314.271c2.461-1.093,2.784-3.41-0.243-3.656
					C299.467,311.168,299.219,314.135,301.826,314.271z"/>
				<path style="fill:#421B36;" d="M292.581,310.581c-2.726,0.252-1.623,4.519,0.988,3.515
					C295.681,313.566,294.233,310.533,292.581,310.581z"/>
				<path style="fill:#421B36;" d="M305.236,315.101c-1.391,0.825-1.171,3.117,0.482,3.244l0.856-2.94l-0.281-0.632
					C305.962,314.733,305.604,314.813,305.236,315.101z"/>
				<path style="fill:#421B36;" d="M261.738,309.821c1.673,0.128,2.091-2.407,1.016-3.352
					C259.821,305.209,258.222,309.186,261.738,309.821z"/>
				<path style="fill:#421B36;" d="M281.317,307.196c-1.127-1.193-3.65-0.907-3.582,1.105
					C277.862,311.664,282.359,309.453,281.317,307.196z"/>
				<path style="fill:#421B36;" d="M261.777,279.112c-5.952,2.359,1.903,6.627,1.524,1.25
					C262.843,279.987,262.372,279.6,261.777,279.112z"/>
				<path style="fill:#421B36;" d="M293.394,287.391c0.231-0.114,0.394-0.256,0.521-0.416l-1.291-2.899
					C289.965,283.873,290.396,289.112,293.394,287.391z"/>
				<path style="fill:#421B36;" d="M286.423,299.011c0.437,1.152,1.136,2.675,2.729,2.148c0.366-0.829,0.652-1.476,0.94-2.128
					C288.937,295.535,288.187,297.088,286.423,299.011z"/>
				<path style="fill:#421B36;" d="M297.504,296.793c-1.764,0.241-2.631,2.76-1.257,3.933c0.615-0.1,1.266-0.209,1.862-0.307
					c0.368-0.561,0.713-1.087,1.067-1.628l-0.414-0.931C298.342,297.504,297.932,297.155,297.504,296.793z"/>
				<path style="fill:#421B36;" d="M255.648,293.684c0,0.796,0,1.46,0,2.134C260.327,298.509,260.187,290.104,255.648,293.684z"/>
				<path style="fill:#421B36;" d="M209.779,306.954c-1.55-1.256-3.192-1.164-3.607,1.031
					C206.856,311.335,209.753,309.607,209.779,306.954z"/>
				<path style="fill:#421B36;" d="M293.951,323.139c1.075-0.935,1.046-3.054-0.439-3.563c-0.633,0.545-1.64,0.001-2.375,0.721
					C291.094,322.054,291.89,323.764,293.951,323.139z"/>
				<path style="fill:#421B36;" d="M297.471,332.898c-0.284,0.138-0.683,0.251-1.015,0.421c0.878,1.168,1.63,2.173,2.214,2.956
					C299.376,334.714,299.121,334.015,297.471,332.898z"/>
				<path style="fill:#421B36;" d="M242.707,306.458c-0.56,0.422-0.817,0.865-0.885,1.297l1.9,1.188c0,0,0.301,0.347,0.867,0.881
					C245.947,307.912,245.634,306.199,242.707,306.458z"/>
				<path style="fill:#421B36;" d="M275.136,310.225c-0.527,0.338-1.029,0.662-1.655,1.061c-0.031,0.31-0.03,0.58-0.016,0.834
					c0.758-0.44,1.531-0.939,2.311-1.467C275.584,310.509,275.387,310.365,275.136,310.225z"/>
				<path style="fill:#421B36;" d="M253.261,279.309c-0.967,0.387-2.065,0.383-2.436,1.526c0.754,2.268,0.93,2.381,3.129,2
					C254.246,281.264,255.155,280.472,253.261,279.309z"/>
				<path style="fill:#421B36;" d="M215.012,307.635c-0.019,0.733,0.209,1.259,0.551,1.61c0.666-0.966,1.326-1.974,1.963-2.986
					C216.691,306.232,215.623,306.81,215.012,307.635z"/>
				<path style="fill:#421B36;" d="M268.691,289.218c-0.643,0.853,0.1,1.59,0.653,2.217c1.074,2.017,2.604,0.078,2.964-1.261
					C272.358,288.745,269.42,288.096,268.691,289.218z"/>
				<path style="fill:#421B36;" d="M285.03,302.111c-1.356-0.286-2.313-0.017-2.57,1.453c0.557,0.97,0.557,0.97,0.43,2.006
					c1.447,0.491,2.216-0.615,3.115-1.197C286.253,303.222,285.472,302.712,285.03,302.111z"/>
				<path style="fill:#421B36;" d="M294.517,302.603c-1.644-0.864-2.672-0.778-3.33,0.526
					C290.606,306.753,295.586,305.988,294.517,302.603z"/>
				<path style="fill:#421B36;" d="M243.736,301.22c1.666-0.915,2.296-2.532,0.855-3.904c-1.895-0.483-2.472,0.68-2.931,2.05
					C242.261,300.155,243.232,300.256,243.736,301.22z"/>
				<path style="fill:#421B36;" d="M198.989,300.983c2.536,0.111,2.265-4.102-0.325-3.356
					C196.32,298.012,196.776,300.98,198.989,300.983z"/>
				<path style="fill:#421B36;" d="M273.553,284.329c0.006,1.023-0.975,1.977,0.153,3.068
					C277.672,288.249,277.668,282.797,273.553,284.329z"/>
				<path style="fill:#421B36;" d="M260.174,315.681c-0.015,0.144-0.027,0.258-0.04,0.381c0.89-0.003,1.812-0.065,2.763-0.186
					C262.143,315.098,260.981,314.791,260.174,315.681z"/>
				<path style="fill:#421B36;" d="M288.445,315.07c-1.278,0.379-2.18,1.163-2.331,2.679
					C288.635,319.973,292.253,316.325,288.445,315.07z"/>
				<path style="fill:#421B36;" d="M196.823,312.088c-0.575-0.927-1.402-1.319-2.045-1.922c-1.452,0.592-1.412,1.929-1.91,2.981
					C194.628,314.957,195.809,314.053,196.823,312.088z"/>
				<path style="fill:#421B36;" d="M264.842,313.823c3.13,1.266,3.744-1.567,1.532-3.486
					C264.527,311.019,263.403,312.622,264.842,313.823z"/>
				<path style="fill:#421B36;" d="M232.944,290.101c0.167,0.474,0.306,0.873,0.475,1.353
					C239.434,293.818,235.175,284.577,232.944,290.101z"/>
				<path style="fill:#421B36;" d="M212.884,310.299c-1.008,0.215-1.711,0.848-2.287,1.774c0.086,0.705,0.632,1.481,1.24,1.907
					c0.694-0.723,1.42-1.595,2.156-2.562C213.849,311.035,213.503,310.678,212.884,310.299z"/>
				<path style="fill:#421B36;" d="M214.101,293.513c-2.424-1.095-5.038,0.546-2.215,2.551
					C213.662,297.215,215.361,295.423,214.101,293.513z"/>
				<path style="fill:#421B36;" d="M238.885,296.822c1.284-0.763,2.862-1.365,1.62-3.041c-0.496-1.615-1.652-1.015-2.801-0.468
					C238.321,294.755,237.216,296.077,238.885,296.822z"/>
				<path style="fill:#421B36;" d="M285.596,284.744c-0.41-0.783-1.337-0.497-1.875-0.998
					C278.878,285.526,286.205,290.389,285.596,284.744z"/>
				<path style="fill:#421B36;" d="M278.294,279.592c-1.932,1.313,0.349,3.574,2.019,3.049
					C283.063,281.441,280.375,279.002,278.294,279.592z"/>
				<path style="fill:#421B36;" d="M267.25,284.264c-0.522-0.141-0.984-0.265-1.41-0.382c-0.616,0.568-1.155,1.064-1.673,1.541
					C264.488,289.292,269.275,287.27,267.25,284.264z"/>
				<path style="fill:#421B36;" d="M252.165,288.846c-0.35,0.203-0.816,0.209-1.2,0.297c-1.588,1.697,1.153,3.379,2.492,2.417
					C255.404,290.874,253.983,287.876,252.165,288.846z"/>
				<path style="fill:#421B36;" d="M199.166,318.725c1.834,0.201,2.287-2.147,0.975-3.305
					C197.391,314.555,196.239,318.178,199.166,318.725z"/>
				<path style="fill:#421B36;" d="M196.451,302.635c-0.69-0.353-1.276-0.652-1.876-0.957c-0.507,0.353-0.952,0.663-1.361,0.948
					c-0.17,0.701-0.326,1.343-0.478,1.969C194.426,306.478,196.409,304.722,196.451,302.635z"/>
				<path style="fill:#421B36;" d="M214.238,285.333c-0.132-0.398-0.366-0.702-0.639-0.944c-0.97,0.573-1.912,1.142-2.826,1.708
					C211.617,287.809,214.504,287.13,214.238,285.333z"/>
				<path style="fill:#421B36;" d="M297.228,310.171c0.987-0.404,1.211-1.303,1.789-2.012c-0.308-2.46-5.105-1.993-3.594,0.348
					C296.224,308.863,296.516,309.71,297.228,310.171z"/>
				<path style="fill:#421B36;" d="M301.748,331.983l0.921-3.165c-0.141-0.093-0.307-0.192-0.527-0.321
					C298.826,329.463,299.979,331.998,301.748,331.983z"/>
				<path style="fill:#421B36;" d="M285.966,312.152c-0.836-1.514-2.118-1.261-3.5-1.057
					C281.721,314.814,284.549,315.336,285.966,312.152z"/>
				<path style="fill:#421B36;" d="M208.534,292.219c1.998-2.246,0.995-5.673-2.367-2.566
					C205.847,290.899,207.458,292.313,208.534,292.219z"/>
				<path style="fill:#421B36;" d="M206.002,299.49c1.654,1.717,3.286,0.902,3.839-1.264
					C208.373,296.62,205.225,297.128,206.002,299.49z"/>
				<path style="fill:#421B36;" d="M251.8,297.417c-0.379,0.445-0.73,0.858-1.193,1.402
					C253.211,304.815,256.497,297.41,251.8,297.417z"/>
				<path style="fill:#421B36;" d="M254.891,276.728c0.276,0.74,0.575,1.412,1.317,1.759c1.853-0.256,1.983-1.806,2.722-2.996
					C257.729,274.087,255.609,275.425,254.891,276.728z"/>
				<path style="fill:#421B36;" d="M288.751,306.21c-1.049,0.799-2.172,0.728-2.521,2.157
					C288.616,311.513,292.318,307.682,288.751,306.21z"/>
				<path style="fill:#421B36;" d="M277.622,289.188c-0.429,2.024,1.467,4.207,3.174,2.195c0-0.699,0-1.418,0-2.18
					C279.717,288.891,278.712,288.916,277.622,289.188z"/>
				<path style="fill:#421B36;" d="M297.377,319.076c1.845-1.614,1.845-1.614,0.966-3.252c-2.167-0.434-3.803,0.53-2.399,2.791
					C296.42,318.769,296.932,318.932,297.377,319.076z"/>
				<path style="fill:#421B36;" d="M229.048,284.565c-0.239,0.439-0.415,0.76-0.548,1.008c0.157,1.117,0.999,1.587,1.822,2.289
					C233.588,286.618,232.127,283.798,229.048,284.565z"/>
				<path style="fill:#421B36;" d="M225.804,287.954c-4.829,1.757,2.014,6.087,1.779,1.317
					C227.256,288.543,226.596,288.236,225.804,287.954z"/>
				<path style="fill:#421B36;" d="M232.135,277.129c0.001-0.185-0.048-0.4-0.126-0.623c-1.032,0.255-2.061,0.537-3.087,0.846
					C229.337,278.428,230.858,278.531,232.135,277.129z"/>
				<path style="fill:#421B36;" d="M286.22,289.966c0.602,0.769,1.244,1.396,1.928,1.919c1.467-0.118,1.779-1.126,1.935-2.283
					C289.504,287.384,287.277,288.595,286.22,289.966z"/>
				<path style="fill:#421B36;" d="M245.149,291.159c0-0.943,0-1.645,0-2.31c-1.697-0.496-4.115-0.05-3.674,2.094
					C242.714,291.78,243.838,291.101,245.149,291.159z"/>
				<path style="fill:#421B36;" d="M236.623,281.925c-0.164-2.394-3.097-3.878-3.753-0.861
					C234.14,282.848,234.619,282.957,236.623,281.925z"/>
				<path style="fill:#421B36;" d="M299.505,325.821c-0.591-0.784-1.154-1.402-1.968-1.878c-1.405,0.619-1.405,0.619-2.066,1.567
					c0.313,0.572,0.625,1.143,0.922,1.683C297.674,327.485,298.845,326.856,299.505,325.821z"/>
				<path style="fill:#421B36;" d="M199.808,306.188c-0.952,0.185-2.047-0.167-2.598,0.795c-0.246,1.928,2.638,3.401,3.697,1.628
					C200.559,307.804,200.565,306.827,199.808,306.188z"/>
				<path style="fill:#421B36;" d="M220.68,296.324c1.744,0.051,1.762,0.036,2.495-2.272
					C220.82,290.996,218.998,293.673,220.68,296.324z"/>
				<path style="fill:#421B36;" d="M249.813,312.385c-0.301-2.046-1.087-1.588-2.761-1.612c-0.188,0.26-0.311,0.516-0.395,0.771
					c0.708,0.523,1.537,1.073,2.481,1.605C249.379,312.915,249.606,312.664,249.813,312.385z"/>
				<path style="fill:#421B36;" d="M276.742,303.962c-0.202-2.258-2.35-2.436-3.514-0.678
					C272.405,305.575,276.024,305.945,276.742,303.962z"/>
				<path style="fill:#421B36;" d="M292.931,328.656c0.55,0.724,1.081,1.423,1.592,2.1
					C294.886,329.504,294.064,328.693,292.931,328.656z"/>
				<path style="fill:#421B36;" d="M206.07,316.987c0.046,0.184,0.098,0.348,0.154,0.499c1.241-0.506,2.385-1.057,3.346-1.652
					C208.349,315.193,207.011,315.944,206.07,316.987z"/>
				<path style="fill:#421B36;" d="M299.911,303.275c0.681,0.105,0.533,0.76,0.71,1.207c0.289,0.092,0.757,0.229,1.231,0.318
					l-1.216-2.73C300.304,302.333,300.039,302.698,299.911,303.275z"/>
				<path style="fill:#421B36;" d="M277.819,297.502c0.316,1.663,1.734,4.472,3.368,2.347c0.333-0.742-1.076-1.132-0.41-1.965
					C280.356,296.847,278.911,297.084,277.819,297.502z"/>
				<path style="fill:#421B36;" d="M301.63,323.481c0.893-0.07,0.724-0.811,0.984-1.244c0.274-0.457,0.86-0.716,0.908-1.353
					c-0.418-0.568-0.848-1.073-1.429-1.335C299.484,319.661,300.145,322.328,301.63,323.481z"/>
				<path style="fill:#421B36;" d="M231.35,294.956c0-0.69,0-1.302,0-2.165C227.362,291.117,228.182,298.888,231.35,294.956z"/>
				<path style="fill:#421B36;" d="M260.441,297.493c0.235,0.415,0.436,0.772,0.712,1.256c-2.517,1.656-0.054,2.69,1.697,1.487
					c0.197-0.71,0.371-1.341,0.592-2.137C262.33,298.131,261.745,296.659,260.441,297.493z"/>
				<path style="fill:#421B36;" d="M282.696,295.416c2.232,1.619,3.698,0.188,2.43-2.31
					C283.688,292.737,281.485,293.875,282.696,295.416z"/>
				<path style="fill:#421B36;" d="M260.586,291.428c0.706-0.039,1.217,0.146,1.857,0.472c0.229-0.609,0.416-1.111,0.613-1.641
					C262.103,286.905,258.886,288.602,260.586,291.428z"/>
				<path style="fill:#421B36;" d="M201.861,311.497c-0.533,1.291,0.496,2.987,1.829,3.088c0.892-0.585,1.066-1.664,1.635-2.617
					C204.188,311.195,203.085,311.83,201.861,311.497z"/>
				<path style="fill:#421B36;" d="M247.895,275.252c-1.784-0.055-1.059,1.779-0.678,2.828
					C249.784,280.027,250.453,275.57,247.895,275.252z"/>
				<path style="fill:#421B36;" d="M276.262,278.428c0.05-0.156,0.1-0.314,0.15-0.471c-0.865-0.221-1.759-0.438-2.676-0.65
					C274.096,278.78,274.774,278.712,276.262,278.428z"/>
				<path style="fill:#421B36;" d="M268.53,280.545c-0.962,1.303,1.931,2.409,3.113,1.971
					C272.763,280.139,270.292,279.368,268.53,280.545z"/>
				<path style="fill:#421B36;" d="M204.02,296.045c0.952,0.035,1.035-1.069,0.937-2.022c-0.325-1.555-1.783-0.691-2.923-0.354
					C201.816,295.036,202.395,296.228,204.02,296.045z"/>
				<path style="fill:#421B36;" d="M253.844,306.872c-0.53-0.27-0.999-0.509-1.429-0.725
					C248.388,308.248,255.478,311.928,253.844,306.872z"/>
				<path style="fill:#421B36;" d="M267.931,304.102c-0.245-0.402-0.942,0.059-1.014-0.591c0.008-0.01,0.015-0.015,0.024-0.025
					l-0.024,0.023c0.139-0.369,0.28-0.739,0.421-1.108c-3.75-1.707-4.074,5.288-0.422,1.112c-0.078,0.412-0.297,1.047-0.465,1.704
					C267.221,304.967,268.026,305.119,267.931,304.102z"/>
				<path style="fill:#421B36;" d="M183.076,330.814c0.456,0.258,0.871,0.493,1.273,0.722l2.286-2.662
					c-0.481-0.063-0.946-0.123-1.4-0.182C184.11,328.161,182.894,329.733,183.076,330.814z"/>
				<path style="fill:#421B36;" d="M185.235,314.182c0-0.123,0-0.247,0-0.371c2.133,0.642,2.944-1.711,1.367-2.976
					c-0.54,0-0.954,0-1.367,0c0,0.247,0,0.496,0,0.743C182.735,309.579,182.788,314.939,185.235,314.182z"/>
				<path style="fill:#421B36;" d="M180.871,324.431v3.244C183.028,327.486,183.044,324.879,180.871,324.431z"/>
				<path style="fill:#421B36;" d="M180.871,333.155v2.43l1.449-1.687C182.05,333.626,181.574,333.395,180.871,333.155z"/>
				<path style="fill:#421B36;" d="M182.524,315.985c-0.536-0.377-1.122-0.556-1.653-0.576v3.302
					C181.902,318.548,182.961,317.275,182.524,315.985z"/>
			</g>
			<g>
				<path style="fill:#421B36;" d="M176.925,253.31c0.691,3.742,3.358,7.614,5.581,10.641c-0.142-0.193,0.038-0.535-0.076,0.074
					c-0.101,0.541-0.058,1.15-0.086,1.7c-0.099,1.924-0.2,3.849-0.305,5.773c-0.64,11.805-1.83,23.601-2.087,35.42
					c-0.199,9.15-0.01,18.303-0.009,27.454c0,1.195,1.856,1.197,1.856,0c0-8.228-0.151-16.456-0.039-24.683
					c0.098-7.205,0.573-14.36,1.114-21.542c0.375-4.984,0.655-9.975,0.93-14.965c0.12-2.167,0.235-4.335,0.347-6.503
					c0.049-0.943,0.307-2.117,0.155-3.054c-0.195-1.203-1.436-2.46-2.064-3.47c-1.389-2.233-3.042-4.711-3.527-7.337
					C178.498,251.643,176.709,252.14,176.925,253.31L176.925,253.31z"/>
			</g>
			<g>
				<path style="fill:#421B36;" d="M236.616,354.801c14.563-13.095,27.22-29.406,36.848-46.433c0.333-0.589-0.534-1.086-0.902-0.527
					c-10.947,16.649-23.027,31.77-36.32,46.586C236.014,354.681,236.362,355.029,236.616,354.801L236.616,354.801z"/>
			</g>
			<g>
				<path style="fill:#421B36;" d="M259.4,340.257c5.022-4.832,10.012-9.683,14.944-14.61c0.571-0.571-0.325-1.467-0.886-0.886
					c-4.849,5.012-9.62,10.081-14.372,15.181C258.89,340.151,259.193,340.456,259.4,340.257L259.4,340.257z"/>
			</g>
		</g>
		<g>
			<path style="fill:#944D4D;" d="M228.904,113.153c16.017-21.528,49.995-18.024,61.352,6.288c3.592,7.689,5.031,17.828,4.489,31.32
				c-1.514,37.643-33.384,37.049-33.384,37.049l-6.449,28.79l-32.613-9.033l3.131-37.937c0,0-3.851-28.111-1.155-45.825
				C224.874,119.865,226.558,116.306,228.904,113.153z"/>
			<path style="fill:#421B36;" d="M261.638,97.861c0,0-16.532,20.873-27.166,35.051c-10.634,14.178,7.843,28.485,3.657,52.141
				c-2.957,16.709-14.423,17.426-19.547,18.721c-5.124,1.295-6.452,1.515-6.452,1.515s-26.373-23.008-5.508-74.866
				C216.217,106.577,240.76,88.023,261.638,97.861z"/>
			<g>
				<path style="fill:#421B36;" d="M242.816,120.135c4.911-2.974,9.996-2.456,15.343-1.601c1.067,0.171,1.911-1.294,0.794-1.883
					c-5.481-2.892-12.047-0.856-16.706,2.51C241.67,119.577,242.182,120.519,242.816,120.135L242.816,120.135z"/>
			</g>
			<g>
				<path style="fill:#421B36;" d="M261.611,150.018c1.243,4.814,7.51,6.085,11.46,3.911c1.21-0.666,0.146-2.314-1.054-1.803
					c-3.922,1.67-6.81,0.178-9.708-2.514C262.006,149.33,261.504,149.607,261.611,150.018L261.611,150.018z"/>
			</g>
			<g>
				<path style="fill:#421B36;" d="M244.162,182.339c6.111,4.755,13.727,6.854,21.44,6.336c1.151-0.077,1.177-1.813,0-1.81
					c-7.553,0.021-14.44-1.626-21.338-4.657C244.186,182.174,244.081,182.276,244.162,182.339L244.162,182.339z"/>
			</g>
			<ellipse style="opacity:0.3;fill:#421B36;" cx="249.581" cy="141.204" rx="7.159" ry="3.707"/>
			<path style="opacity:0.3;fill:#421B36;" d="M291.847,141.376c0,2.047-3.205,3.707-7.159,3.707c-3.954,0-7.159-1.66-7.159-3.707
				c0-2.047,3.205-3.707,7.159-3.707C288.642,137.669,291.847,139.329,291.847,141.376z"/>
			<g>
				<path style="fill:#421B36;" d="M260.095,99.634c3.548-3.013,6.747-6.118,11.392-7.351c4.618-1.226,8.908-0.417,13.411,0.85
					c0.743,0.209,1.226-0.881,0.531-1.26c-8.341-4.546-21.612-1.606-25.531,7.609C259.843,99.611,259.981,99.73,260.095,99.634
					L260.095,99.634z"/>
			</g>
			<g>
				<path style="fill:#421B36;" d="M276.971,81.547c-10.441,0.37-18.418,7.538-20.271,17.819c-0.209,1.157,1.565,1.652,1.772,0.489
					c1.676-9.43,9.097-16.454,18.547-17.952C277.222,81.87,277.173,81.54,276.971,81.547L276.971,81.547z"/>
			</g>
			<path style="fill:#944D4D;" d="M214.82,140.512c-2.115-1.055-4.788-0.581-6.684,0.829c-1.896,1.41-3.079,3.622-3.646,5.916
				c-0.942,3.814-0.196,8.148,2.459,11.044c2.654,2.896,7.311,3.971,10.724,2.026"/>
			<g>
				<path style="fill:#421B36;" d="M210.117,151.292c0.737-0.558,2.256-0.909,3.163-0.883c1.247,0.036,2.083,0.668,2.922,1.516
					c0.737,0.745,2.064-0.225,1.476-1.139c-0.896-1.391-2.545-2.24-4.201-2.208c-0.787,0.015-1.645,0.236-2.309,0.668
					c-0.734,0.478-0.897,1.086-1.29,1.808C209.803,151.193,209.969,151.404,210.117,151.292L210.117,151.292z"/>
			</g>
			<g>
				<path style="fill:#421B36;" d="M281.968,115.269c-4.228-4.378-11.232-3.732-14.261,1.54c-4.335,7.544-0.584,19.49,3.794,26.201
					c0.764,1.171,2.471,0.156,1.863-1.089c-2.626-5.38-5.095-10.978-5.218-17.089c-0.16-8.008,5.985-13.068,13.298-8.885
					C281.872,116.191,282.31,115.623,281.968,115.269L281.968,115.269z"/>
			</g>
			<path style="fill:#944D4D;" d="M212.667,205.169c0,0,6.659,11.326,31.931,12.205c23.015,0.801,27.099-11.592,27.099-11.592
				s-17.635-6.787-46.645-3.239C221.924,202.926,216.074,204.339,212.667,205.169z"/>
			<g>
				<path style="fill:#421B36;" d="M245.05,131.481c2.46,2.968,8.148,3.826,11.154,1.207c0.592-0.516-0.047-1.401-0.725-1.245
					c-1.784,0.411-3.2,1.048-5.096,0.949c-1.829-0.095-3.338-0.784-5.008-1.469C245.033,130.782,244.865,131.257,245.05,131.481
					L245.05,131.481z"/>
			</g>
			<g>
				<path style="fill:#421B36;" d="M274.331,130.7c0.927,1.66,3.668,1.636,5.286,1.331c2.032-0.383,4.048-1.514,4.829-3.489
					c0.342-0.864-0.831-1.271-1.396-0.813c-1.344,1.09-2.469,2.126-4.237,2.466c-1.437,0.276-2.948-0.292-4.32,0.106
					C274.323,130.351,274.245,130.546,274.331,130.7L274.331,130.7z"/>
			</g>
			<g>
				<path style="fill:#421B36;" d="M255.83,214.249c3.865-7.615,6.46-16.871,7.036-25.393c0.057-0.847-1.252-0.999-1.463-0.198
					c-2.201,8.354-4.264,16.909-6.196,25.328C255.123,214.347,255.647,214.609,255.83,214.249L255.83,214.249z"/>
			</g>
			<g>
				<path style="fill:#421B36;" d="M233.839,126.03c-5.555,9.712-1.854,19.989,2.798,29.299c3.88,7.763,8.819,16.314,7.053,25.342
					c-1.703,8.704-8.297,15.39-16.644,17.955c-0.695,0.214-0.404,1.296,0.302,1.094c10.654-3.042,18.446-12.843,17.814-24.142
					c-0.944-16.877-20.742-32.132-11.082-49.408C234.167,126.014,233.929,125.874,233.839,126.03L233.839,126.03z"/>
			</g>
		</g>
		<g>
			<path style="fill:#421B36;" d="M209.175,210.366c17.109,17.004,46.018,17.493,64.368,2.244c0.754-0.626-0.242-1.931-1.055-1.367
				c-20.304,14.099-43.195,13.159-62.798-1.544C209.297,209.405,208.841,210.034,209.175,210.366L209.175,210.366z"/>
		</g>
		<g>
			<path style="fill:#421B36;" d="M286.331,248.876c-2.683,2.83-3.919,6.967-4.849,10.678c-0.279,1.115,1.465,1.591,1.719,0.474
				c0.854-3.763,2.505-7.312,3.271-11.07C286.487,248.88,286.392,248.811,286.331,248.876L286.331,248.876z"/>
		</g>
		<path style="fill:#8380FF;" d="M271.997,227.543c2.488,0.883,10.744,5.142,10.106,16.26c-0.535,9.321-22.354,56.372-32.963,55.789
			c-10.609-0.583-44.87-36.226-46.722-48.293c-1.851-12.067,6.089-19.566,15.166-18.86c9.077,0.706,20.412,6.706,24.568,13.615
			C242.152,246.056,250.028,219.745,271.997,227.543z"/>
		<g>
			<path style="fill:#944D4D;" d="M168.386,300.623c-7.882-1.69-17.522-6.555-27-13.449c-9.423,20.811-26.088,60.893-25.624,71.097
				c0.626,13.763,6.409,27.317,23.459,29.402c19.463,2.38,42.808-53.577,48.007-76.677l-13.292-18.035L168.386,300.623z"/>
			<g>
				<path style="fill:#944D4D;" d="M215.926,289.133c0,0,19.193-9.232,19.539-9.318c0.346-0.086,3.216-0.653,3.411-4.594
					c0.195-3.941-4.845-3.091-4.845-3.091c7.645-3.812,2.268-8.313,2.268-8.313s2.555-1.038,0.345-4.426
					c-2.209-3.389-11.821-1.591-11.821-1.591l3.17-1.521c1.706-1.237,5.194-3.187,3.332-6.674
					c-1.959-3.669-9.983-1.376-18.478,4.145c-7.359,4.784-11.371,8.151-11.278,8.099c0,0,0.464-9.117-4.761-5.567
					c-5.225,3.55-19.954,30.604-19.766,31.361c0,0-17.823,24.768-17.979,25.321c-2.452,8.682,17.971,27.823,17.971,27.823
					s9.271-27.207,9.863-28.097c0,0,11.991-0.819,16.006-10.014C205.202,297.407,212.063,290.989,215.926,289.133z"/>
				<g>
					<path style="fill:#421B36;" d="M214.071,280.28c6.297-3.65,13.148-6.194,20.297-7.559c1.172-0.224,0.676-2.013-0.493-1.79
						c-7.296,1.393-14.314,4.022-20.74,7.746C212.1,279.276,213.034,280.881,214.071,280.28L214.071,280.28z"/>
				</g>
				<g>
					<path style="fill:#421B36;" d="M208.763,275.177c7.996-6.042,17.549-9.778,27.54-10.663c1.181-0.104,1.192-1.962,0-1.857
						c-10.312,0.913-20.212,4.67-28.477,10.916C206.885,274.286,207.809,275.899,208.763,275.177L208.763,275.177z"/>
				</g>
				<g>
					<path style="fill:#421B36;" d="M205.755,268.301c5.169-5.482,11.928-9.219,19.314-10.702c1.171-0.235,0.675-2.025-0.493-1.79
						c-7.675,1.54-14.764,5.485-20.133,11.179C203.623,267.857,204.934,269.173,205.755,268.301L205.755,268.301z"/>
				</g>
				<g>
					<path style="fill:#421B36;" d="M187.698,275.517c3.956-5.513,8.846-10.547,14.389-14.475c0.967-0.685,0.041-2.296-0.937-1.603
						c-5.82,4.124-10.901,9.353-15.055,15.141C185.397,275.552,187.007,276.48,187.698,275.517L187.698,275.517z"/>
				</g>
			</g>
			<g>
				<path style="fill:#421B36;" d="M139.527,348.471c10.604-18.401,21.931-36.363,34.027-53.82c0.682-0.984-0.926-1.914-1.603-0.937
					c-12.096,17.457-23.423,35.419-34.027,53.82C137.326,348.571,138.93,349.507,139.527,348.471L139.527,348.471z"/>
			</g>
		</g>
		<g>
			<path style="fill:#944D4D;" d="M329.307,310.905c-1.223,0.494,18.654-11.306,18.654-11.306
				c11.443,21.025,21.806,40.786,22.113,50.442c0.439,13.77-4.281,27.73-21.12,31.126c-19.221,3.875-44.489-53.217-51.455-75.846
				l9.747-24.172L329.307,310.905z"/>
			<g>
				<path style="fill:#944D4D;" d="M267.553,281.955c0,0-19.193-9.232-19.539-9.318c-0.346-0.086-3.216-0.653-3.411-4.594
					c-0.195-3.941,4.845-3.091,4.845-3.091c-7.645-3.812-2.268-8.313-2.268-8.313s-2.555-1.038-0.345-4.426
					c2.209-3.389,11.821-1.591,11.821-1.591l-3.17-1.521c-1.706-1.237-5.194-3.187-3.332-6.675
					c1.959-3.668,9.983-1.376,18.478,4.146c7.359,4.784,11.371,8.151,11.278,8.099c0,0-0.464-9.117,4.761-5.567
					c5.225,3.551,19.954,30.604,19.766,31.361c0,0,36.507,52.074,36.663,52.627c2.453,8.682-36.526-5.69-36.526-5.69
					s-9.128-20.026-9.93-21.773c-0.035-0.076-0.103-0.12-0.186-0.128c-1.283-0.118-12.106-1.359-15.881-10.004
					C278.278,290.229,271.417,283.811,267.553,281.955z"/>
				<g>
					<path style="fill:#421B36;" d="M270.346,271.499c-6.427-3.725-13.444-6.353-20.74-7.746c-1.167-0.223-1.668,1.566-0.493,1.79
						c7.149,1.365,13.999,3.909,20.297,7.559C270.444,273.703,271.38,272.099,270.346,271.499L270.346,271.499z"/>
				</g>
				<g>
					<path style="fill:#421B36;" d="M275.653,266.397c-8.265-6.246-18.165-10.003-28.477-10.916c-1.19-0.105-1.183,1.752,0,1.857
						c9.991,0.884,19.544,4.62,27.54,10.663C275.669,268.72,276.595,267.109,275.653,266.397L275.653,266.397z"/>
				</g>
				<g>
					<path style="fill:#421B36;" d="M279.036,259.81c-5.369-5.694-12.458-9.639-20.133-11.179c-1.167-0.234-1.666,1.555-0.493,1.79
						c7.386,1.482,14.145,5.219,19.314,10.701C278.545,261.994,279.856,260.68,279.036,259.81L279.036,259.81z"/>
				</g>
				<g>
					<path style="fill:#421B36;" d="M297.384,267.402c-4.154-5.788-9.235-11.017-15.055-15.141
						c-0.977-0.692-1.905,0.917-0.937,1.603c5.543,3.928,10.433,8.962,14.389,14.475
						C296.472,269.302,298.083,268.376,297.384,267.402L297.384,267.402z"/>
				</g>
			</g>
			<g>
				<path style="fill:#421B36;" d="M305.152,282.553c16.225,18.788,31.066,38.737,44.406,59.672c0.64,1.005,2.248,0.075,1.603-0.937
					c-13.424-21.067-28.37-41.142-44.697-60.048C305.682,280.335,304.374,281.652,305.152,282.553L305.152,282.553z"/>
			</g>
		</g>
		<g>
			<path style="fill:#421B36;" d="M222.507,249.473c0.782,1.567,2.357,2.726,4.066,3.079c1.681,0.347,4.301,0.035,4.777-1.977
				c0.115-0.488-0.153-1.006-0.648-1.142c-0.471-0.129-1.026,0.159-1.142,0.648c-0.001,0.005-0.071,0.223-0.046,0.165
				c0.036-0.083-0.1,0.119-0.013,0.023c-0.12,0.133-0.186,0.184-0.268,0.231c-0.277,0.161-0.462,0.207-0.824,0.286
				c-0.036,0.008-0.151,0.026-0.05,0.012c-0.082,0.011-0.166,0.017-0.249,0.023c-0.166,0.011-0.332,0.012-0.499,0.005
				c-0.342-0.014-0.454-0.032-0.838-0.134c-1.167-0.313-2.114-1.055-2.664-2.157c-0.224-0.449-0.858-0.574-1.27-0.333
				C222.383,248.47,222.282,249.023,222.507,249.473L222.507,249.473z"/>
		</g>
		<g>
			<path style="fill:#421B36;" d="M229.173,257.822c0.202,1.632,0.988,3.061,2.308,4.055c1.307,0.983,3.018,1.286,4.603,0.965
				c0.477-0.097,0.795-0.688,0.648-1.142c-0.164-0.505-0.631-0.752-1.142-0.648c-0.076,0.015-0.151,0.03-0.227,0.042
				c-0.1,0.017,0.095-0.004-0.074,0.007c-0.154,0.01-0.307,0.02-0.462,0.019c-0.154-0.001-0.308-0.011-0.461-0.025
				c-0.29-0.028,0.167,0.038-0.119-0.019c-0.061-0.012-0.121-0.023-0.181-0.036c-0.151-0.033-0.3-0.073-0.446-0.12
				c-0.088-0.028-0.175-0.06-0.262-0.092c-0.047-0.018-0.124-0.055-0.034-0.013c-0.294-0.135-0.574-0.296-0.835-0.487
				c-0.128-0.094,0.153,0.136-0.055-0.046c-0.055-0.048-0.111-0.096-0.165-0.146c-0.108-0.1-0.211-0.205-0.309-0.315
				c-0.049-0.055-0.096-0.111-0.143-0.168c0.082,0.099-0.011-0.013-0.042-0.058c-0.086-0.12-0.166-0.243-0.24-0.371
				c-0.075-0.127-0.143-0.257-0.206-0.391c-0.025-0.052-0.077-0.184-0.029-0.062c-0.027-0.068-0.052-0.138-0.076-0.207
				c-0.048-0.139-0.089-0.281-0.124-0.424c-0.017-0.072-0.033-0.143-0.047-0.216c-0.008-0.039-0.044-0.292-0.02-0.102
				c-0.059-0.48-0.384-0.953-0.928-0.928C229.649,256.914,229.109,257.306,229.173,257.822L229.173,257.822z"/>
		</g>
	</g>
	<g>
		<g>
			<path style="fill:#421B36;" d="M196.405,233.517c-2.906-1.658-6.391-2.957-9.58-3.932c-0.648-0.198-1.119,0.841-0.472,1.12
				c3.087,1.328,6.576,2.599,9.88,3.22C196.47,233.969,196.636,233.649,196.405,233.517L196.405,233.517z"/>
		</g>
		<g>
			<path style="fill:#421B36;" d="M182.63,226.536c-0.044-0.004-0.089-0.009-0.133-0.013c0.217,0.165,0.434,0.33,0.65,0.495
				c-0.076-0.402-0.456-0.705-0.863-0.705c-0.227,0-0.465,0.099-0.625,0.259c-0.153,0.153-0.269,0.405-0.259,0.625
				c0.01,0.229,0.085,0.466,0.259,0.625c0.169,0.155,0.39,0.27,0.625,0.259c0.078-0.011,0.157-0.021,0.235-0.032
				c0.115-0.027,0.215-0.08,0.301-0.158c0.169-0.131,0.287-0.301,0.327-0.515c-0.217,0.165-0.434,0.33-0.65,0.495
				c0.044-0.004,0.089-0.009,0.133-0.013c0.18-0.018,0.336-0.062,0.468-0.194c0.115-0.115,0.201-0.303,0.194-0.468
				c-0.008-0.171-0.064-0.348-0.194-0.468c-0.045-0.035-0.089-0.069-0.134-0.104C182.86,226.566,182.749,226.536,182.63,226.536
				L182.63,226.536z"/>
		</g>
		<g>
			<path style="fill:#421B36;" d="M200.151,230.418c-1.882-2.083-3.589-4.286-5.538-6.319c-1.744-1.819-3.445-4.03-5.554-5.419
				c-0.824-0.543-1.981,0.559-1.391,1.391c1.466,2.067,3.715,3.687,5.599,5.375c2.105,1.885,4.366,3.519,6.519,5.337
				C200.038,230.995,200.376,230.667,200.151,230.418L200.151,230.418z"/>
		</g>
		<g>
			<path style="fill:#421B36;" d="M204.633,227.607c-0.26-1.532-0.84-3-1.349-4.463c-0.426-1.225-0.675-2.645-1.608-3.579
				c-0.476-0.476-1.314-0.121-1.319,0.546c-0.01,1.32,0.818,2.516,1.373,3.687c0.662,1.397,1.277,2.848,2.165,4.119
				C204.162,228.302,204.71,228.062,204.633,227.607L204.633,227.607z"/>
		</g>
	</g>
	<g>
		<g>
			<path style="fill:#421B36;" d="M280.887,226.766c1.252-1.67,2.586-3.279,3.904-4.898c0.704-0.866-0.598-1.872-1.214-0.936
				c-1.174,1.783-2.335,3.579-3.579,5.314C279.607,226.79,280.496,227.287,280.887,226.766L280.887,226.766z"/>
		</g>
		<g>
			<path style="fill:#421B36;" d="M283.685,230.426c4.191-1.749,8.298-3.673,12.46-5.489c1.108-0.484,0.142-2.257-0.97-1.659
				c-3.942,2.118-7.936,4.126-11.844,6.308C282.889,229.832,283.194,230.63,283.685,230.426L283.685,230.426z"/>
		</g>
		<g>
			<path style="fill:#421B36;" d="M286.31,236.185c2.249-0.127,4.984,0.514,7.14-0.263c0.695-0.251,0.9-1.482,0-1.625
				c-2.325-0.369-4.848,0.736-7.14,1.038C285.786,235.405,285.75,236.217,286.31,236.185L286.31,236.185z"/>
		</g>
	</g>
</g>
<g id="Plants_1_00000138558988678142629990000007004462203627644318_">
	<g>
		<path style="fill:#A0D2F4;" d="M307.118,153.654c-0.502,0.067-4.917,5.68-0.997,7.795c3.262,1.76,5.985-2.336,5.985-2.336
			s1.911,5.361,5.755,2.292c3.844-3.07,0.151-6.489,0.151-6.489s5.366,0.709,4.807-3.862c-0.547-4.478-5.303-2.37-5.303-2.37
			s0.395-7.203-3.686-7.166c-4.081,0.037-3.607,6.102-3.607,6.102s-4.362-3.33-6.232,0.496
			C302.121,151.941,307.118,153.654,307.118,153.654z"/>
		<path style="fill:#FFFFFF;" d="M316.016,153.588c-0.81,1.97-2.798,3.02-4.44,2.345c-1.642-0.675-2.316-2.82-1.506-4.79
			c0.81-1.97,2.798-3.02,4.44-2.345C316.152,149.473,316.826,151.618,316.016,153.588z"/>
	</g>
	<g>
		<path style="fill:#A0D2F4;" d="M154.7,170.929c-0.822,0.366-5.541,12.149,2.204,13.792c6.445,1.368,9.038-6.98,9.038-6.98
			s5.945,8.186,10.963,1.026c5.018-7.16-2.993-11.142-2.993-11.142s9.507-1.478,6.264-8.995c-3.176-7.363-10.231-1.386-10.231-1.386
			s-2.934-12.482-9.874-10.375c-6.941,2.107-3.096,12.213-3.096,12.213s-9.107-3.494-10.38,3.967
			C145.321,170.51,154.7,170.929,154.7,170.929z"/>
		<path style="fill:#FFFFFF;" d="M169.843,166.36c-0.395,3.766-3.26,6.552-6.398,6.223c-3.139-0.329-5.362-3.649-4.967-7.416
			c0.395-3.766,3.26-6.552,6.398-6.223S170.238,162.594,169.843,166.36z"/>
	</g>
	<g>
		<path style="fill:#A0D2F4;" d="M394.5,289.545c-0.542,0.718,1.033,13.313,8.605,11.001c6.301-1.923,4.529-10.483,4.529-10.483
			s9.165,4.285,10.089-4.41c0.925-8.694-8.013-8.3-8.013-8.3s7.603-5.896,1.127-10.903c-6.344-4.905-9.624,3.741-9.624,3.741
			s-8.61-9.502-13.663-4.298c-5.053,5.204,3.204,12.185,3.204,12.185s-9.661,1.352-7.162,8.496
			C386.09,293.72,394.5,289.545,394.5,289.545z"/>
		<path style="fill:#FFFFFF;" d="M405.538,278.217c1.478,3.487,0.32,7.311-2.586,8.543c-2.906,1.231-6.459-0.597-7.936-4.084
			c-1.478-3.487-0.32-7.311,2.586-8.543C400.507,272.901,404.06,274.73,405.538,278.217z"/>
	</g>
	<g>
		<path style="fill:#A0D2F4;" d="M334.546,353.271c-0.502,0.067-4.917,5.68-0.997,7.795c3.262,1.76,5.985-2.336,5.985-2.336
			s1.911,5.361,5.755,2.292c3.844-3.07,0.15-6.489,0.15-6.489s5.366,0.709,4.808-3.862c-0.547-4.478-5.304-2.37-5.304-2.37
			s0.395-7.203-3.686-7.166c-4.081,0.037-3.607,6.102-3.607,6.102s-4.362-3.33-6.232,0.496S334.546,353.271,334.546,353.271z"/>
		<path style="fill:#FFFFFF;" d="M343.444,353.205c-0.81,1.97-2.798,3.02-4.44,2.345s-2.316-2.82-1.506-4.79
			c0.81-1.97,2.798-3.02,4.44-2.345S344.255,351.235,343.444,353.205z"/>
	</g>
	<g>
		<path style="fill:#A0D2F4;" d="M335.998,402.834c-0.819-0.215-11.216,5.664-6.494,11.426c3.929,4.795,10.744,0.189,10.744,0.189
			s-0.449,9.509,7.448,7.202c7.897-2.307,4.355-9.944,4.355-9.944s7.852,4.506,9.892-2.922c1.998-7.276-6.7-7.036-6.7-7.036
			s5.187-10.893-1.15-13.429c-6.337-2.535-9.457,7.149-9.457,7.149s-4.634-7.923-9.958-3.192
			C329.356,397.01,335.998,402.834,335.998,402.834z"/>
		<path style="fill:#FFFFFF;" d="M349.808,408.386c-2.505,2.534-6.248,2.895-8.36,0.807c-2.112-2.088-1.792-5.835,0.714-8.368
			s6.248-2.895,8.36-0.807C352.633,402.105,352.313,405.852,349.808,408.386z"/>
	</g>
	<g>
		<path style="fill:#A0D2F4;" d="M110.372,320.226c-0.043,0.79,7.289,9.211,11.682,3.807c3.656-4.497-1.84-9.876-1.84-9.876
			s8.793-1.37,5.201-8.171c-3.593-6.801-9.924-2.126-9.924-2.126s2.656-8.036-4.529-8.512c-7.038-0.467-5.189,7.454-5.189,7.454
			s-10.949-2.71-12.084,3.569c-1.135,6.279,8.32,7.322,8.32,7.322s-6.389,5.729-1.058,9.718
			C106.282,327.401,110.372,320.226,110.372,320.226z"/>
		<path style="fill:#FFFFFF;" d="M112.869,306.538c2.79,1.82,3.822,5.18,2.306,7.505s-5.008,2.734-7.798,0.914
			c-2.79-1.82-3.822-5.18-2.306-7.505C106.588,305.128,110.079,304.718,112.869,306.538z"/>
	</g>
	<g>
		<path style="fill:#A0D2F4;" d="M98.189,207.007c-0.502,0.067-4.917,5.68-0.997,7.795c3.262,1.76,5.985-2.336,5.985-2.336
			s1.911,5.361,5.755,2.292c3.844-3.07,0.151-6.489,0.151-6.489s5.366,0.709,4.807-3.862c-0.547-4.478-5.303-2.37-5.303-2.37
			s0.395-7.203-3.686-7.166c-4.081,0.037-3.607,6.102-3.607,6.102s-4.363-3.33-6.232,0.496
			C93.192,205.294,98.189,207.007,98.189,207.007z"/>
		<path style="fill:#FFFFFF;" d="M107.087,206.941c-0.81,1.97-2.798,3.02-4.44,2.345c-1.642-0.675-2.316-2.82-1.506-4.79
			c0.81-1.97,2.798-3.02,4.44-2.345C107.223,202.826,107.898,204.971,107.087,206.941z"/>
	</g>
	<g>
		<path style="fill:#A0D2F4;" d="M128.18,408.703c-0.502,0.067-4.917,5.68-0.997,7.795c3.262,1.76,5.985-2.336,5.985-2.336
			s1.911,5.361,5.755,2.292c3.844-3.07,0.15-6.489,0.15-6.489s5.366,0.709,4.807-3.862c-0.547-4.478-5.303-2.37-5.303-2.37
			s0.395-7.203-3.686-7.166c-4.081,0.037-3.607,6.102-3.607,6.102s-4.362-3.33-6.232,0.496
			C123.183,406.99,128.18,408.703,128.18,408.703z"/>
		<path style="fill:#FFFFFF;" d="M137.078,408.637c-0.81,1.97-2.798,3.02-4.44,2.345c-1.642-0.675-2.316-2.82-1.506-4.79
			c0.81-1.97,2.798-3.02,4.44-2.345C137.214,404.522,137.888,406.666,137.078,408.637z"/>
	</g>
</g>
</svg>
