<?xml version="1.0" encoding="utf-8"?>
<!-- Generator: Adobe Illustrator 27.5.0, SVG Export Plug-In . SVG Version: 6.00 Build 0)  -->
<svg version="1.1" xmlns="http://www.w3.org/2000/svg" xmlns:xlink="http://www.w3.org/1999/xlink" x="0px" y="0px"
	 viewBox="0 0 750 500" style="enable-background:new 0 0 750 500;" xml:space="preserve">
<g id="BACKGROUND">
</g>
<g id="OBJECTS">
	<g>
		<g>
			<ellipse style="fill:#FFEBEF;" cx="78.29" cy="398.756" rx="31.414" ry="4.332"/>
			<ellipse style="fill:#FFEBEF;" cx="193.402" cy="398.756" rx="31.414" ry="4.332"/>
			<circle style="fill:#FFEBEF;" cx="130.699" cy="199.772" r="61.83"/>
		</g>
		<g>
			<g>
				<g>
					<g>
						<g>
							<path style="fill:#383838;" d="M131.058,337.306v29.343l44.073,10.276c0,0,27.981-11.897,29.062-27.71
								c1.081-15.812-22.521-19.415-22.521-19.415L131.058,337.306z"/>
							<g>
								<g>
									<path style="fill:#B4512A;" d="M103.35,378.946c0,0,51.891-27.974,54.667-29.896c2.776-1.922,29.682-30.323,43.136-25.625
										c13.453,4.698,17.297,22.325,14.307,27.499c-2.99,5.173-43.563,37.846-103.142,41.049c0,0-9.182,3.63-16.656,4.271
										c-7.474,0.641-21.497,1.368-25.341,3.29c0,0-5.436-14.797-2.846-17.17c6.594-6.042,14.948-2.135,14.948-2.135
										s4.851-4.132,10.685-3.375C97.327,377.401,103.35,378.946,103.35,378.946z"/>
									
										<line style="fill:none;stroke:#383838;stroke-width:0.4;stroke-linecap:round;stroke-linejoin:round;stroke-miterlimit:10;" x1="103.35" y1="378.946" x2="175.71" y2="339.263"/>
									<g>
										
											<path style="fill:none;stroke:#383838;stroke-width:0.4;stroke-linecap:round;stroke-linejoin:round;stroke-miterlimit:10;" d="
											M101.489,378.492c0,0-13.395-4.082-19.066,1.736l-2.187,2.245"/>
										
											<path style="fill:none;stroke:#383838;stroke-width:0.4;stroke-linecap:round;stroke-linejoin:round;stroke-miterlimit:10;" d="
											M76.662,378.995c0,0-7.857,0.103-9.78,4.649c0,0-0.657,6.147,2.507,13.164"/>
									</g>
								</g>
							</g>
						</g>
						<g>
							<path style="fill:#383838;" d="M131.3,337.306v29.343l-44.073,10.276c0,0-27.981-11.897-29.062-27.71
								c-1.081-15.812,23.142-19.415,23.142-19.415L131.3,337.306z"/>
							<g>
								<g>
									<path style="fill:#B4512A;" d="M159.008,378.946c0,0-51.891-27.974-54.667-29.896
										c-2.776-1.922-29.683-30.323-43.136-25.625c-13.453,4.698-17.297,22.325-14.307,27.499
										c2.99,5.173,43.563,37.846,103.142,41.049c0,0,9.182,3.63,16.656,4.271c7.474,0.641,21.497,1.368,25.341,3.29
										c0,0,5.436-14.797,2.846-17.17c-6.594-6.042-14.948-2.135-14.948-2.135s-4.851-4.132-10.685-3.375
										C165.031,377.401,159.008,378.946,159.008,378.946z"/>
									
										<line style="fill:none;stroke:#383838;stroke-width:0.4;stroke-linecap:round;stroke-linejoin:round;stroke-miterlimit:10;" x1="159.008" y1="378.946" x2="86.648" y2="339.263"/>
									<g>
										
											<path style="fill:none;stroke:#383838;stroke-width:0.4;stroke-linecap:round;stroke-linejoin:round;stroke-miterlimit:10;" d="
											M160.87,378.492c0,0,13.395-4.082,19.066,1.736l2.187,2.245"/>
										
											<path style="fill:none;stroke:#383838;stroke-width:0.4;stroke-linecap:round;stroke-linejoin:round;stroke-miterlimit:10;" d="
											M185.696,378.995c0,0,7.857,0.103,9.78,4.649c0,0,0.657,6.147-2.507,13.164"/>
									</g>
									
										<path style="fill:none;stroke:#383838;stroke-width:0.4;stroke-linecap:round;stroke-linejoin:round;stroke-miterlimit:10;" d="
										M53.653,357.087c0,0,40.452,33.33,96.978,35.111"/>
								</g>
							</g>
						</g>
					</g>
					<g>
						<g>
							<g>
								<path style="fill:#B4512A;" d="M173.885,240.867c-1.507-2.11-27.731-10.399-27.731-10.852c0-0.452,0-16.579,0-16.579
									l-14.382,3.617l-15.341-3.617c0,0,0,16.127,0,16.579c0,0.452-26.224,8.742-27.732,10.852
									c-1.507,2.11,7.084,29.239,7.084,29.239l0.603,41.597c0,0,14.042,18.689,34.69,18.689c20.648,0,35.122-18.689,35.122-18.689
									l0.603-41.597C166.801,270.106,175.392,242.977,173.885,240.867z"/>
								<path style="fill:#A5472B;" d="M146.153,220.914c0-3.857,0-7.477,0-7.477l-14.382,3.617l-15.341-3.617c0,0,0,3.54,0,7.349
									c0.883,3.234,4.01,10.58,14.171,10.385C140.354,230.984,144.624,224.27,146.153,220.914z"/>
							</g>
							<path style="fill:#FECA74;" d="M173.885,240.867c-1.072-1.501-14.652-6.129-22.402-8.838
								c-2.781,8.938-11.118,15.428-20.972,15.428c-9.672,0-17.878-6.256-20.807-14.941c-7.879,2.746-19.995,6.936-21.005,8.351
								c-1.507,2.11,7.084,29.239,7.084,29.239l-3.859,61.287c0,0,18.504,11.169,39.152,11.169
								c20.648,0,38.905-11.029,38.905-11.029l-3.18-61.427C166.801,270.106,175.392,242.977,173.885,240.867z"/>
						</g>
						<g>
							<g>
								<g>
									<path style="fill:#94ADEA;" d="M88.699,240.867c0,0-7.419,0.831-18.331,12.37c-10.912,11.539-26.465,38.004-19.692,47.787
										c6.773,9.783,56.316-0.753,76.258-19.566l-7.923-10.159l-26.709,3.396l3.48-4.588L88.699,240.867z"/>
									<g>
										<path style="fill:#B4512A;" d="M119.012,271.298l5.948-21.419l1.975-23.569c0,0,1.993,0.269,2.608,2.42
											c0.615,2.151,4.379,43.284,3.662,45.525c-0.717,2.24-6.27,7.203-6.27,7.203L119.012,271.298z"/>
										<g>
											
												<path style="fill:none;stroke:#29303D;stroke-width:0.3;stroke-linecap:round;stroke-linejoin:round;stroke-miterlimit:10;" d="
												M125.089,248.34l1.846-22.029c0,0,1.993,0.269,2.608,2.42c0.29,1.014,1.279,10.686,2.169,20.864"/>
											
												<path style="fill:none;stroke:#29303D;stroke-width:0.3;stroke-linecap:round;stroke-linejoin:round;stroke-miterlimit:10;" d="
												M130.001,232.022c0,0-0.196-2.217-2.133-2.217l-0.933,15.001"/>
											
												<path style="fill:none;stroke:#29303D;stroke-width:0.3;stroke-linecap:round;stroke-linejoin:round;stroke-miterlimit:10;" d="
												M130.812,239.824c0,0-0.176-3.653-2.612-3.653l-1.495,17.05c0,0-1.218,1.163-0.83,2.768"/>
										</g>
									</g>
								</g>
								<g>
									<g>
										<path style="fill:#FECA74;" d="M87.98,274.996c0,0-13.932-13.781-25.922-13.062c0,0,12.484-25.763,47.646-29.418
											l-12.716,38.05l-3.293,3.95L87.98,274.996z"/>
										<g>
											<g>
												
													<path style="fill:none;stroke:#29303D;stroke-width:0.3;stroke-linecap:round;stroke-linejoin:round;stroke-miterlimit:10;" d="
													M62.059,261.934c0,0,10.033-1.326,26.463,13.251"/>
												
													<path style="fill:none;stroke:#29303D;stroke-width:0.3;stroke-linecap:round;stroke-linejoin:round;stroke-miterlimit:10;" d="
													M63.981,258.702c0,0,13.879,0.971,27.265,16.294"/>
											</g>
											
												<line style="fill:none;stroke:#29303D;stroke-width:0.3;stroke-linecap:round;stroke-linejoin:round;stroke-miterlimit:10;" x1="95.843" y1="274.251" x2="95.15" y2="255.577"/>
										</g>
									</g>
									
										<line style="fill:none;stroke:#29303D;stroke-width:0.3;stroke-linecap:round;stroke-linejoin:round;stroke-miterlimit:10;" x1="109.706" y1="272.482" x2="76.301" y2="276.744"/>
								</g>
							</g>
							<g>
								<g>
									<path style="fill:#94ADEA;" d="M174.562,240.867c0,0,7.419,0.831,18.331,12.37c10.912,11.539,26.465,38.004,19.692,47.787
										c-6.773,9.783-56.316-0.753-76.258-19.566l7.923-10.159l26.709,3.396l-3.48-4.588L174.562,240.867z"/>
									<g>
										<path style="fill:#B4512A;" d="M144.249,271.298l-5.948-21.419l-1.975-23.569c0,0-1.993,0.269-2.608,2.42
											c-0.615,2.151-4.379,43.284-3.662,45.525c0.717,2.24,6.27,7.203,6.27,7.203L144.249,271.298z"/>
										<g>
											
												<path style="fill:none;stroke:#29303D;stroke-width:0.3;stroke-linecap:round;stroke-linejoin:round;stroke-miterlimit:10;" d="
												M138.172,248.34l-1.846-22.029c0,0-1.993,0.269-2.608,2.42c-0.29,1.014-3.116,32.502-3.717,44.594
												c0,0-0.245,1.735,3.04,4.935"/>
											
												<path style="fill:none;stroke:#29303D;stroke-width:0.3;stroke-linecap:round;stroke-linejoin:round;stroke-miterlimit:10;" d="
												M133.26,232.022c0,0,0.195-2.217,2.133-2.217l0.933,15.001"/>
											
												<path style="fill:none;stroke:#29303D;stroke-width:0.3;stroke-linecap:round;stroke-linejoin:round;stroke-miterlimit:10;" d="
												M132.449,239.824c0,0,0.176-3.653,2.612-3.653l1.495,17.05c0,0,1.218,1.163,0.83,2.768"/>
										</g>
									</g>
								</g>
								<g>
									<g>
										<path style="fill:#FECA74;" d="M175.28,274.996c0,0,13.932-13.781,25.922-13.062c0,0-12.484-25.763-47.646-29.418
											l12.716,38.05l3.293,3.95L175.28,274.996z"/>
										<g>
											<g>
												
													<path style="fill:none;stroke:#29303D;stroke-width:0.3;stroke-linecap:round;stroke-linejoin:round;stroke-miterlimit:10;" d="
													M201.202,261.934c0,0-10.033-1.326-26.463,13.251"/>
												
													<path style="fill:none;stroke:#29303D;stroke-width:0.3;stroke-linecap:round;stroke-linejoin:round;stroke-miterlimit:10;" d="
													M199.28,258.702c0,0-13.879,0.971-27.265,16.294"/>
											</g>
											
												<line style="fill:none;stroke:#29303D;stroke-width:0.3;stroke-linecap:round;stroke-linejoin:round;stroke-miterlimit:10;" x1="167.418" y1="274.251" x2="168.11" y2="255.577"/>
										</g>
									</g>
									
										<line style="fill:none;stroke:#29303D;stroke-width:0.3;stroke-linecap:round;stroke-linejoin:round;stroke-miterlimit:10;" x1="153.555" y1="272.482" x2="186.96" y2="276.744"/>
								</g>
							</g>
						</g>
					</g>
				</g>
				<g>
					<g>
						<g>
							<path style="fill:#B4512A;" d="M110.406,196.113c0,0-1.453-5.545-4.994-4.129c-2.346,0.938-3.758,11.166,1.035,12.746
								c3.625,1.195,4.833-2.631,4.833-2.631L110.406,196.113z"/>
							
								<path style="fill:none;stroke:#383838;stroke-width:0.4;stroke-linecap:round;stroke-linejoin:round;stroke-miterlimit:10;" d="
								M104.626,195.482c2.377,1.796,4.317,4.166,5.609,6.85"/>
						</g>
						<g>
							<path style="fill:#B4512A;" d="M151.699,196.113c0,0,1.453-5.545,4.994-4.129c2.346,0.938,3.758,11.166-1.035,12.746
								c-3.625,1.195-4.833-2.631-4.833-2.631L151.699,196.113z"/>
							
								<path style="fill:none;stroke:#383838;stroke-width:0.4;stroke-linecap:round;stroke-linejoin:round;stroke-miterlimit:10;" d="
								M157.479,195.482c-2.377,1.796-4.317,4.166-5.609,6.85"/>
						</g>
					</g>
					<g>
						<g>
							<path style="fill:#B4512A;" d="M131.077,224.727L131.077,224.727c-11.531,0-20.878-9.348-20.878-20.878v-15.384
								c0-11.531,9.348-20.878,20.878-20.878l0,0c11.531,0,20.878,9.347,20.878,20.878v15.384
								C151.955,215.379,142.608,224.727,131.077,224.727z"/>
							<g>
								
									<path style="fill:none;stroke:#383838;stroke-width:0.4;stroke-linecap:round;stroke-linejoin:round;stroke-miterlimit:10;" d="
									M132.355,190.323c0.131,4.892,0.542,9.775,1.23,14.62c-2.334,0.066-4.685,0.091-7.02,0.058"/>
								<g>
									<g>
										
											<path style="fill:none;stroke:#383838;stroke-width:0.4;stroke-linecap:round;stroke-linejoin:round;stroke-miterlimit:10;" d="
											M125.96,212.396c3.333,0.685,6.809,0.665,10.133-0.058"/>
										
											<path style="fill:none;stroke:#383838;stroke-width:0.4;stroke-linecap:round;stroke-linejoin:round;stroke-miterlimit:10;" d="
											M136.215,211.513c0.301,0.14,0.531,0.423,0.606,0.746"/>
										
											<path style="fill:none;stroke:#383838;stroke-width:0.4;stroke-linecap:round;stroke-linejoin:round;stroke-miterlimit:10;" d="
											M125.334,211.762c-0.348,0.252-0.561,0.68-0.554,1.11"/>
									</g>
									
										<path style="fill:none;stroke:#383838;stroke-width:0.4;stroke-linecap:round;stroke-linejoin:round;stroke-miterlimit:10;" d="
										M129.32,216.916c1.108-1.017,2.726-1.449,4.194-1.119"/>
								</g>
								<g>
									
										<path style="fill:none;stroke:#383838;stroke-width:0.4;stroke-linecap:round;stroke-linejoin:round;stroke-miterlimit:10;" d="
										M115.594,195.137c0.995,0.69,2.22,1.044,3.43,0.991c1.21-0.053,2.399-0.512,3.33-1.286"/>
									<path style="fill:#A5472B;" d="M110.199,197.332v6.516c0,1.746,0.238,3.432,0.642,5.053
										c3.715,0.893,10.814,2.041,11.514-2.012C123.148,202.289,113.442,198.472,110.199,197.332z"/>
								</g>
								<g>
									
										<path style="fill:none;stroke:#383838;stroke-width:0.4;stroke-linecap:round;stroke-linejoin:round;stroke-miterlimit:10;" d="
										M146.511,195.137c-0.995,0.69-2.22,1.044-3.43,0.991c-1.21-0.053-2.399-0.512-3.33-1.286"/>
									<path style="fill:#A5472B;" d="M151.906,197.332v6.516c0,1.746-0.238,3.432-0.642,5.053
										c-3.714,0.893-10.814,2.041-11.514-2.012C138.957,202.289,148.664,198.472,151.906,197.332z"/>
								</g>
							</g>
						</g>
						<g>
							<path style="opacity:0.8;fill:#383838;" d="M131.077,167.586L131.077,167.586c-11.531,0-20.878,9.347-20.878,20.878v6.856
								c0-11.531,9.348-20.878,20.878-20.878l0,0c11.531,0,20.878,9.348,20.878,20.878v-6.856
								C151.955,176.934,142.608,167.586,131.077,167.586z"/>
							<path style="fill:#383838;" d="M145.326,173.234c-3.732-3.493-8.733-5.648-14.249-5.648l0,0
								c-5.851,0-11.132,2.413-14.923,6.291c2.252,5.799,7.873,9.917,14.468,9.917C137.459,183.794,143.252,179.37,145.326,173.234z
								"/>
							<circle style="fill:#383838;" cx="130.622" cy="160.085" r="11.304"/>
						</g>
					</g>
				</g>
			</g>
			<g>
				<path style="fill:#FECA74;" d="M89.106,225.103c-1.111-1.24-1.252-3.036-1.77-4.617c-0.382-1.164-1.004-2.267-1.909-3.094
					c-0.904-0.827-2.106-1.358-3.331-1.331c1.201,0.783,1.454,2.145,1.678,3.561c0.128,0.808,0.194,1.642,0.534,2.386
					c0.409,0.894,1.185,1.579,2.045,2.054C87.214,224.536,88.165,224.82,89.106,225.103z"/>
				<path style="fill:#FECA74;" d="M215.763,269.658c-1.111-1.24-1.252-3.036-1.77-4.618c-0.382-1.164-1.004-2.267-1.909-3.094
					c-0.904-0.827-2.106-1.358-3.331-1.332c1.201,0.783,1.454,2.145,1.678,3.561c0.128,0.808,0.194,1.642,0.534,2.386
					c0.409,0.894,1.185,1.579,2.045,2.054C213.87,269.091,214.822,269.375,215.763,269.658z"/>
				<path style="fill:#FECA74;" d="M44.153,365.53c-1.111-1.24-1.252-3.036-1.77-4.617c-0.382-1.164-1.004-2.267-1.909-3.094
					s-2.106-1.358-3.331-1.332c1.201,0.783,1.454,2.145,1.678,3.561c0.128,0.808,0.194,1.642,0.534,2.386
					c0.409,0.894,1.185,1.579,2.045,2.054C42.26,364.963,43.211,365.247,44.153,365.53z"/>
				<path style="fill:#FECA74;" d="M224.502,370.71c-1.358,0.961-3.159,0.897-4.79,1.231c-1.2,0.246-2.367,0.738-3.292,1.542
					c-0.925,0.804-1.59,1.937-1.703,3.157c0.915-1.104,2.297-1.199,3.729-1.26c0.817-0.035,1.653-0.005,2.431-0.258
					c0.935-0.304,1.704-0.996,2.275-1.797C223.722,372.525,224.113,371.613,224.502,370.71z"/>
				<path style="fill:#FECA74;" d="M162.1,159.502c-1.358,0.961-3.159,0.897-4.79,1.231c-1.2,0.246-2.367,0.738-3.292,1.542
					s-1.59,1.937-1.704,3.157c0.915-1.104,2.297-1.199,3.729-1.26c0.817-0.035,1.653-0.005,2.431-0.258
					c0.935-0.304,1.704-0.996,2.275-1.797C161.321,161.317,161.712,160.405,162.1,159.502z"/>
				<path style="fill:#FECA74;" d="M58.758,298.251c-1.359,0.962-3.159,0.897-4.79,1.231c-1.2,0.246-2.367,0.738-3.292,1.542
					c-0.924,0.804-1.59,1.937-1.703,3.157c0.915-1.104,2.297-1.199,3.729-1.26c0.817-0.035,1.653-0.005,2.431-0.258
					c0.935-0.304,1.704-0.996,2.275-1.797C57.979,300.066,58.369,299.154,58.758,298.251z"/>
			</g>
		</g>
	</g>
	<g>
		
			<ellipse transform="matrix(0.7071 -0.7071 0.7071 0.7071 11.5383 490.9961)" style="fill:#FFEDD4;" cx="598.454" cy="231.57" rx="79.829" ry="79.829"/>
		<ellipse style="fill:#FFEDD4;" cx="598.71" cy="402.963" rx="83.517" ry="12.388"/>
		<g>
			<g>
				<g>
					<g>
						<g>
							<path style="fill:#383838;" d="M599.461,347.103v29.343l44.073,10.275c0,0,27.981-11.897,29.062-27.71
								c1.081-15.812-30.257-17.94-30.257-17.94L599.461,347.103z"/>
							<g>
								<g>
									<path style="fill:#FF8B98;" d="M571.753,388.744c0,0,51.891-27.974,54.667-29.896c2.776-1.922,29.682-30.323,43.136-25.625
										c13.453,4.698,17.297,22.325,14.307,27.499c-2.99,5.173-43.563,37.845-103.142,41.049c0,0-9.182,3.63-16.656,4.271
										c-7.474,0.641-21.497,1.368-25.341,3.29c0,0-5.436-14.797-2.846-17.17c6.594-6.042,14.948-2.135,14.948-2.135
										s4.851-4.132,10.685-3.375C565.73,387.198,571.753,388.744,571.753,388.744z"/>
									
										<line style="fill:none;stroke:#383838;stroke-width:0.4;stroke-linecap:round;stroke-linejoin:round;stroke-miterlimit:10;" x1="571.753" y1="388.744" x2="644.112" y2="349.061"/>
									<g>
										
											<path style="fill:none;stroke:#383838;stroke-width:0.4;stroke-linecap:round;stroke-linejoin:round;stroke-miterlimit:10;" d="
											M569.891,388.289c0,0-13.395-4.082-19.066,1.736l-2.187,2.245"/>
										
											<path style="fill:none;stroke:#383838;stroke-width:0.4;stroke-linecap:round;stroke-linejoin:round;stroke-miterlimit:10;" d="
											M545.065,388.792c0,0-7.857,0.103-9.78,4.649c0,0-0.657,6.147,2.507,13.164"/>
									</g>
								</g>
								<path style="fill:#383838;" d="M657.216,350.209c-3.969-2.922-8.385-5.248-13.055-6.791
									c8.714-6.697,18.713-12.529,25.395-10.196c13.453,4.698,17.297,22.326,14.307,27.499c-0.816,1.411-4.448,4.877-10.481,9.225
									C669.801,362.134,664.128,355.298,657.216,350.209z"/>
							</g>
						</g>
						<g>
							<path style="fill:#383838;" d="M599.703,347.103v29.343l-44.073,10.275c0,0-27.981-11.897-29.062-27.71
								c-1.081-15.812,30.257-17.94,30.257-17.94L599.703,347.103z"/>
							<g>
								<g>
									<path style="fill:#FF8B98;" d="M627.411,388.744c0,0-51.891-27.974-54.667-29.896s-29.682-30.323-43.136-25.625
										c-13.453,4.698-17.297,22.325-14.307,27.499c2.99,5.173,43.563,37.845,103.141,41.049c0,0,9.182,3.63,16.656,4.271
										c7.474,0.641,21.497,1.368,25.341,3.29c0,0,5.436-14.797,2.846-17.17c-6.594-6.042-14.948-2.135-14.948-2.135
										s-4.851-4.132-10.685-3.375C633.434,387.198,627.411,388.744,627.411,388.744z"/>
									
										<line style="fill:none;stroke:#383838;stroke-width:0.4;stroke-linecap:round;stroke-linejoin:round;stroke-miterlimit:10;" x1="627.411" y1="388.744" x2="555.051" y2="349.061"/>
									<g>
										
											<path style="fill:none;stroke:#383838;stroke-width:0.4;stroke-linecap:round;stroke-linejoin:round;stroke-miterlimit:10;" d="
											M629.272,388.289c0,0,13.395-4.082,19.066,1.736l2.187,2.245"/>
										
											<path style="fill:none;stroke:#383838;stroke-width:0.4;stroke-linecap:round;stroke-linejoin:round;stroke-miterlimit:10;" d="
											M654.098,388.792c0,0,7.857,0.103,9.78,4.649c0,0,0.657,6.147-2.507,13.164"/>
									</g>
									
										<path style="fill:none;stroke:#383838;stroke-width:0.4;stroke-linecap:round;stroke-linejoin:round;stroke-miterlimit:10;" d="
										M522.056,366.884c0,0,40.452,33.33,96.978,35.111"/>
								</g>
								<path style="fill:#383838;" d="M541.947,350.209c3.969-2.922,8.385-5.248,13.055-6.791
									c-8.714-6.697-18.713-12.529-25.395-10.196c-13.453,4.698-17.297,22.326-14.307,27.499
									c0.816,1.411,4.448,4.877,10.481,9.225C529.362,362.134,535.036,355.298,541.947,350.209z"/>
							</g>
						</g>
					</g>
					<g>
						<g>
							<path style="fill:#FF8B98;" d="M645.881,256.988c-1.068-2.136-31.102-15.844-31.102-15.844l-0.269-19.902l-13.985,2.462
								l-17.888-3.247v20.941c0,0-28.044,13.453-29.112,15.589c-1.068,2.135,11.531,61.5,10.677,65.985
								c-0.854,4.484-8.328,16.016-8.115,17.51c0.214,1.495,20.819,6.62,43.616,6.62c22.796,0,43.402-5.125,43.616-6.62
								s-7.26-13.026-8.115-17.51C634.35,318.488,646.949,259.123,645.881,256.988z"/>
							<path style="fill:#FF7582;" d="M614.674,233.411l-0.161-11.913l-1.626,0.03l-12.362,2.177l-9.737-1.767l-8.151,0.151v9.034
								c2.556,4.401,7.5,8.766,17.066,8.766C607.401,239.889,611.963,236.945,614.674,233.411z"/>
						</g>
						<g>
							<path style="fill:#A869B2;" d="M645.877,256.987c-0.74-1.48-15.392-8.518-24.317-12.699
								c-4.127,8.025-12.484,13.518-22.129,13.518c-9.74,0-18.167-5.601-22.25-13.755c-8.214,4.033-22.957,10.597-23.724,12.131
								c-1.068,2.135,11.596,62.307,10.741,66.791c-0.854,4.484-8.328,16.016-8.115,17.51c0.214,1.495,20.819,6.62,43.616,6.62
								c22.796,0,43.402-5.125,43.616-6.62s-7.26-13.026-8.115-17.51C634.346,318.488,646.945,259.123,645.877,256.987z"/>
							<g>
								
									<path style="fill:none;stroke:#29303D;stroke-width:0.3;stroke-linecap:round;stroke-linejoin:round;stroke-miterlimit:10;" d="
									M563.122,251.161c0,0,5.309,19.424,6.57,32.619c1.261,13.195,0.963,22.482-6.57,26.954"/>
								
									<path style="fill:none;stroke:#29303D;stroke-width:0.3;stroke-linecap:round;stroke-linejoin:round;stroke-miterlimit:10;" d="
									M575.422,244.919c0,0,5.148,15.252,24.245,15.252s24.062-14.863,24.062-14.863"/>
								
									<path style="fill:none;stroke:#29303D;stroke-width:0.3;stroke-linecap:round;stroke-linejoin:round;stroke-miterlimit:10;" d="
									M635.134,251.161c0,0-5.309,19.424-6.57,32.619c-1.261,13.195-0.963,22.482,6.57,26.954"/>
								
									<path style="fill:none;stroke:#29303D;stroke-width:0.3;stroke-linecap:round;stroke-linejoin:round;stroke-miterlimit:10;" d="
									M557.723,338.299c0,0,43.799,13.096,84.806,0"/>
							</g>
						</g>
						<g>
							<path style="fill:#FF8B98;" d="M562.324,308.548c12.863-8.135-1.767-56.527-1.768-56.528
								c-3.861,1.915-9.215,4.873-9.544,5.531c0,0,2.422-1.076,2.388-0.548C553.608,262.314,559.268,290.701,562.324,308.548z"/>
							<g>
								<g>
									<path style="fill:#FF7582;" d="M497.665,313.797c0,0,0.018-5.439,0-5.826c-0.018-0.388,4.476-8.946,3.295-10.868
										c-1.181-1.922-3.506-0.533-3.765,0c-0.258,0.533-4.651,11.062-4.651,11.062l0.323,6.976
										C492.867,315.141,496.778,317.362,497.665,313.797z"/>
									<path style="fill:#FF8B98;" d="M518.682,321.811c0,0-2.134-3.392-4.335-4.088c0,0-0.547-5.483-6.378-8.442
										c0,0-3.829-12.184-4.961-12.706c-1.131-0.522-3.133,1.218-3.307,1.915c-0.174,0.696,1.828,9.66,1.131,11.401
										c-0.696,1.74-3.742,4.438-3.742,4.438s-3.307-1.218-3.655-1.654c-0.348-0.435,0.957-10.269-2.35-10.965
										c0,0,0.174-4.003-2.35-4.264c0,0-3.22,7.31-3.307,8.268s0,6.527,0.435,7.571c0.435,1.044,2.35,9.312,5.831,9.051
										c0,0,2.437,2.785,4.003,2.698c1.566-0.087,10.021,5.319,18.649,7.665L518.682,321.811z"/>
									
										<path style="fill:none;stroke:#29303D;stroke-width:0.3;stroke-linecap:round;stroke-linejoin:round;stroke-miterlimit:10;" d="
										M497.97,323.668c0,0-3.876-2.196-4.263-2.842s-4.651-7.429-4.845-8.333c-0.194-0.904,0.258-10.142,0.258-10.142
										c0.969-0.775,1.965-0.64,1.965-0.64s1.863,0.37,2.092,3.579c0.229,3.21,0.257,8.189,0.257,8.189"/>
									
										<line style="fill:none;stroke:#29303D;stroke-width:0.3;stroke-linecap:round;stroke-linejoin:round;stroke-miterlimit:10;" x1="493.435" y1="312.676" x2="496.742" y2="316.756"/>
									
										<path style="fill:none;stroke:#29303D;stroke-width:0.3;stroke-linecap:round;stroke-linejoin:round;stroke-miterlimit:10;" d="
										M499.128,315.014c1.133,1.543,3.095,2.186,4.927,2.74c1.729,0.523,3.478,1.049,5.282,1.152"/>
								</g>
								<g>
									<path style="fill:#FF8B98;" d="M556.353,254.909c0,0-15.169,5.148-17.726,19.723c-2.557,14.576-1.151,47.179-1.151,47.179
										h-18.795l-4.335,10.887c0,0,21.173,15.649,33.614,12.638c12.441-3.011,14.723-38.357,15.161-52.421
										C563.559,278.852,556.353,254.909,556.353,254.909z"/>
									<g>
										
											<path style="fill:none;stroke:#29303D;stroke-width:0.3;stroke-linecap:round;stroke-linejoin:round;stroke-miterlimit:10;" d="
											M563.122,292.916c0,0-0.994,24.657-3.803,33.698"/>
										
											<line style="fill:none;stroke:#29303D;stroke-width:0.3;stroke-linecap:round;stroke-linejoin:round;stroke-miterlimit:10;" x1="518.682" y1="321.811" x2="543.63" y2="321.496"/>
									</g>
								</g>
							</g>
						</g>
						<g>
							<path style="fill:#FF8B98;" d="M635.931,308.548c-12.863-8.135,1.768-56.527,1.768-56.528
								c3.861,1.915,9.215,4.873,9.544,5.531c0,0-2.423-1.076-2.388-0.548C644.647,262.314,638.988,290.701,635.931,308.548z"/>
							<g>
								<g>
									<path style="fill:#FF7582;" d="M700.591,313.797c0,0-0.018-5.439,0-5.826c0.018-0.388-4.476-8.946-3.295-10.868
										c1.181-1.922,3.506-0.533,3.765,0c0.258,0.533,4.651,11.062,4.651,11.062l-0.323,6.976
										C705.389,315.141,701.477,317.362,700.591,313.797z"/>
									<path style="fill:#FF8B98;" d="M679.574,321.811c0,0,2.134-3.392,4.335-4.088c0,0,0.547-5.483,6.378-8.442
										c0,0,3.829-12.184,4.961-12.706c1.131-0.522,3.133,1.218,3.307,1.915c0.174,0.696-1.828,9.66-1.131,11.401
										c0.696,1.74,3.742,4.438,3.742,4.438s3.307-1.218,3.655-1.654c0.348-0.435-0.957-10.269,2.35-10.965
										c0,0-0.174-4.003,2.35-4.264c0,0,3.22,7.31,3.307,8.268s0,6.527-0.435,7.571c-0.435,1.044-2.35,9.312-5.831,9.051
										c0,0-2.437,2.785-4.003,2.698c-1.566-0.087-10.021,5.319-18.649,7.665L679.574,321.811z"/>
									
										<path style="fill:none;stroke:#29303D;stroke-width:0.3;stroke-linecap:round;stroke-linejoin:round;stroke-miterlimit:10;" d="
										M700.286,323.668c0,0,3.876-2.196,4.263-2.842c0.388-0.646,4.651-7.429,4.845-8.333c0.194-0.904-0.258-10.142-0.258-10.142
										c-0.969-0.775-1.965-0.64-1.965-0.64s-1.863,0.37-2.092,3.579c-0.229,3.21-0.258,8.189-0.258,8.189"/>
									
										<line style="fill:none;stroke:#29303D;stroke-width:0.3;stroke-linecap:round;stroke-linejoin:round;stroke-miterlimit:10;" x1="704.82" y1="312.676" x2="701.513" y2="316.756"/>
									
										<path style="fill:none;stroke:#29303D;stroke-width:0.3;stroke-linecap:round;stroke-linejoin:round;stroke-miterlimit:10;" d="
										M699.128,315.014c-1.133,1.543-3.095,2.186-4.927,2.74c-1.729,0.523-3.478,1.049-5.282,1.152"/>
								</g>
								<g>
									<path style="fill:#FF8B98;" d="M641.902,254.909c0,0,15.169,5.148,17.726,19.723c2.557,14.576,1.151,47.179,1.151,47.179
										h18.795l4.335,10.887c0,0-21.173,15.649-33.614,12.638c-12.441-3.011-14.723-38.357-15.161-52.421
										C634.696,278.852,641.902,254.909,641.902,254.909z"/>
									<g>
										
											<path style="fill:none;stroke:#29303D;stroke-width:0.3;stroke-linecap:round;stroke-linejoin:round;stroke-miterlimit:10;" d="
											M635.134,292.916c0,0,0.994,24.657,3.803,33.698"/>
										
											<line style="fill:none;stroke:#29303D;stroke-width:0.3;stroke-linecap:round;stroke-linejoin:round;stroke-miterlimit:10;" x1="679.574" y1="321.811" x2="654.625" y2="321.496"/>
									</g>
								</g>
							</g>
						</g>
					</g>
					<g>
						<g>
							<path style="fill:#FECA74;" d="M580.982,205.155c0,0.784-0.937,1.42-2.093,1.42c-1.156,0-2.093-0.636-2.093-1.42
								s0.937-1.42,2.093-1.42C580.045,203.735,580.982,204.371,580.982,205.155z"/>
							<path style="fill:#FECA74;" d="M580.982,207.996c0,0.784-0.937,1.42-2.093,1.42c-1.156,0-2.093-0.636-2.093-1.42
								c0-0.784,0.937-1.42,2.093-1.42C580.045,206.575,580.982,207.211,580.982,207.996z"/>
							<path style="fill:#FECA74;" d="M580.982,210.836c0,0.784-0.937,1.42-2.093,1.42c-1.156,0-2.093-0.636-2.093-1.42
								c0-0.784,0.937-1.42,2.093-1.42C580.045,209.416,580.982,210.051,580.982,210.836z"/>
							<path style="fill:#FECA74;" d="M580.982,213.676c0,0.784-0.937,1.42-2.093,1.42c-1.156,0-2.093-0.636-2.093-1.42
								s0.937-1.42,2.093-1.42C580.045,212.256,580.982,212.892,580.982,213.676z"/>
							<path style="fill:#FECA74;" d="M580.982,216.516c0,0.784-0.937,1.42-2.093,1.42c-1.156,0-2.093-0.636-2.093-1.42
								s0.937-1.42,2.093-1.42C580.045,215.096,580.982,215.732,580.982,216.516z"/>
							<path style="fill:#FECA74;" d="M580.982,219.357c0,0.784-0.937,1.42-2.093,1.42c-1.156,0-2.093-0.636-2.093-1.42
								c0-0.784,0.937-1.42,2.093-1.42C580.045,217.936,580.982,218.572,580.982,219.357z"/>
							<path style="fill:#FECA74;" d="M580.982,222.197c0,0.784-0.937,1.42-2.093,1.42c-1.156,0-2.093-0.636-2.093-1.42
								c0-0.784,0.937-1.42,2.093-1.42C580.045,220.777,580.982,221.413,580.982,222.197z"/>
							<path style="fill:#FECA74;" d="M580.982,225.037c0,0.784-0.937,1.42-2.093,1.42c-1.156,0-2.093-0.636-2.093-1.42
								s0.937-1.42,2.093-1.42C580.045,223.617,580.982,224.253,580.982,225.037z"/>
							<path style="fill:#FECA74;" d="M580.982,227.878c0,0.784-0.937,1.42-2.093,1.42c-1.156,0-2.093-0.636-2.093-1.42
								s0.937-1.42,2.093-1.42C580.045,226.457,580.982,227.093,580.982,227.878z"/>
							<path style="fill:#FECA74;" d="M580.982,230.718c0,0.784-0.937,1.42-2.093,1.42c-1.156,0-2.093-0.636-2.093-1.42
								c0-0.784,0.937-1.42,2.093-1.42C580.045,229.298,580.982,229.933,580.982,230.718z"/>
							<path style="fill:#FECA74;" d="M580.982,233.558c0,0.784-0.937,1.42-2.093,1.42c-1.156,0-2.093-0.636-2.093-1.42
								c0-0.784,0.937-1.42,2.093-1.42C580.045,232.138,580.982,232.774,580.982,233.558z"/>
							<path style="fill:#FECA74;" d="M580.982,236.398c0,0.784-0.937,1.42-2.093,1.42c-1.156,0-2.093-0.636-2.093-1.42
								s0.937-1.42,2.093-1.42C580.045,234.978,580.982,235.614,580.982,236.398z"/>
							<path style="fill:#FECA74;" d="M580.982,239.239c0,0.784-0.937,1.42-2.093,1.42c-1.156,0-2.093-0.636-2.093-1.42
								s0.937-1.42,2.093-1.42C580.045,237.818,580.982,238.454,580.982,239.239z"/>
							<path style="fill:#FECA74;" d="M580.982,242.079c0,0.784-0.937,1.42-2.093,1.42c-1.156,0-2.093-0.636-2.093-1.42
								s0.937-1.42,2.093-1.42C580.045,240.659,580.982,241.295,580.982,242.079z"/>
							<path style="fill:#FECA74;" d="M580.982,244.919c0,0.784-0.937,1.42-2.093,1.42c-1.156,0-2.093-0.636-2.093-1.42
								c0-0.784,0.937-1.42,2.093-1.42C580.045,243.499,580.982,244.135,580.982,244.919z"/>
							<path style="fill:#FECA74;" d="M580.982,247.759c0,0.784-0.937,1.42-2.093,1.42c-1.156,0-2.093-0.636-2.093-1.42
								c0-0.784,0.937-1.42,2.093-1.42C580.045,246.339,580.982,246.975,580.982,247.759z"/>
							<path style="fill:#FECA74;" d="M580.982,250.6c0,0.784-0.937,1.42-2.093,1.42c-1.156,0-2.093-0.636-2.093-1.42
								s0.937-1.42,2.093-1.42C580.045,249.18,580.982,249.815,580.982,250.6z"/>
						</g>
						<g>
							<path style="fill:#FECA74;" d="M578.812,205.506c-0.111,0.777-0.937,1.301-1.845,1.171c-0.908-0.13-1.555-0.864-1.444-1.641
								c0.111-0.776,0.937-1.301,1.845-1.171C578.276,203.995,578.923,204.73,578.812,205.506z"/>
							<path style="fill:#FECA74;" d="M578.411,208.318c-0.111,0.776-0.937,1.301-1.845,1.171c-0.909-0.13-1.555-0.864-1.444-1.64
								c0.111-0.777,0.937-1.301,1.845-1.171C577.875,206.807,578.522,207.541,578.411,208.318z"/>
							<path style="fill:#FECA74;" d="M578.01,211.13c-0.111,0.777-0.937,1.301-1.845,1.171c-0.908-0.13-1.555-0.864-1.444-1.641
								c0.111-0.777,0.937-1.301,1.845-1.171C577.474,209.619,578.121,210.353,578.01,211.13z"/>
							<path style="fill:#FECA74;" d="M577.609,213.941c-0.111,0.777-0.937,1.301-1.845,1.171s-1.555-0.864-1.444-1.641
								c0.111-0.776,0.937-1.301,1.845-1.171C577.073,212.431,577.72,213.165,577.609,213.941z"/>
							<path style="fill:#FECA74;" d="M577.208,216.753c-0.111,0.776-0.937,1.301-1.845,1.171c-0.909-0.13-1.555-0.864-1.445-1.64
								c0.111-0.777,0.937-1.301,1.845-1.171S577.319,215.977,577.208,216.753z"/>
							<path style="fill:#FECA74;" d="M576.807,219.565c-0.111,0.777-0.937,1.301-1.845,1.171c-0.908-0.13-1.555-0.864-1.444-1.641
								s0.937-1.301,1.845-1.171C576.271,218.054,576.918,218.789,576.807,219.565z"/>
							<path style="fill:#FECA74;" d="M576.406,222.377c-0.111,0.777-0.937,1.301-1.845,1.171c-0.909-0.13-1.555-0.864-1.445-1.641
								c0.111-0.776,0.937-1.301,1.845-1.171C575.87,220.866,576.517,221.601,576.406,222.377z"/>
							<path style="fill:#FECA74;" d="M576.005,225.189c-0.111,0.776-0.937,1.301-1.845,1.171c-0.908-0.13-1.555-0.864-1.444-1.64
								c0.111-0.777,0.937-1.301,1.845-1.171C575.469,223.678,576.116,224.412,576.005,225.189z"/>
							<path style="fill:#FECA74;" d="M575.604,228.001c-0.111,0.777-0.937,1.301-1.845,1.171c-0.909-0.13-1.555-0.864-1.444-1.641
								c0.111-0.777,0.937-1.301,1.845-1.171C575.068,226.49,575.715,227.224,575.604,228.001z"/>
							<path style="fill:#FECA74;" d="M575.203,230.813c-0.111,0.777-0.937,1.301-1.845,1.171c-0.908-0.13-1.555-0.864-1.444-1.641
								c0.111-0.776,0.937-1.301,1.845-1.171C574.667,229.302,575.314,230.036,575.203,230.813z"/>
							<path style="fill:#FECA74;" d="M574.802,233.624c-0.111,0.776-0.937,1.301-1.845,1.171c-0.908-0.13-1.555-0.864-1.444-1.64
								c0.111-0.777,0.937-1.301,1.845-1.171C574.266,232.113,574.913,232.848,574.802,233.624z"/>
							<path style="fill:#FECA74;" d="M574.401,236.436c-0.111,0.777-0.937,1.301-1.845,1.171c-0.909-0.13-1.555-0.864-1.445-1.641
								c0.111-0.776,0.937-1.301,1.845-1.171C573.866,234.925,574.512,235.66,574.401,236.436z"/>
							<path style="fill:#FECA74;" d="M574.001,239.248c-0.111,0.777-0.937,1.301-1.845,1.171c-0.908-0.13-1.555-0.864-1.444-1.64
								c0.111-0.777,0.937-1.301,1.845-1.171C573.465,237.737,574.111,238.472,574.001,239.248z"/>
							<path style="fill:#FECA74;" d="M573.6,242.06c-0.111,0.776-0.937,1.301-1.845,1.171c-0.909-0.13-1.555-0.864-1.444-1.64
								c0.111-0.777,0.937-1.301,1.845-1.171C573.064,240.549,573.71,241.283,573.6,242.06z"/>
							<path style="fill:#FECA74;" d="M573.199,244.872c-0.111,0.776-0.937,1.301-1.845,1.171c-0.908-0.13-1.555-0.864-1.444-1.641
								c0.111-0.776,0.937-1.301,1.845-1.171C572.663,243.361,573.309,244.095,573.199,244.872z"/>
							<path style="fill:#FECA74;" d="M572.798,247.684c-0.111,0.776-0.937,1.301-1.845,1.171c-0.909-0.13-1.555-0.864-1.444-1.64
								c0.111-0.776,0.937-1.301,1.845-1.171C572.262,246.173,572.909,246.907,572.798,247.684z"/>
							<path style="fill:#FECA74;" d="M572.397,250.495c-0.111,0.776-0.937,1.301-1.845,1.171c-0.908-0.13-1.555-0.864-1.444-1.64
								c0.111-0.777,0.937-1.301,1.845-1.171C571.861,248.984,572.508,249.719,572.397,250.495z"/>
						</g>
					</g>
					<g>
						<g>
							<path style="fill:#FECA74;" d="M618.301,205.155c0,0.784,0.937,1.42,2.093,1.42s2.093-0.636,2.093-1.42
								s-0.937-1.42-2.093-1.42S618.301,204.371,618.301,205.155z"/>
							<path style="fill:#FECA74;" d="M618.301,207.996c0,0.784,0.937,1.42,2.093,1.42s2.093-0.636,2.093-1.42
								c0-0.784-0.937-1.42-2.093-1.42S618.301,207.211,618.301,207.996z"/>
							<path style="fill:#FECA74;" d="M618.301,210.836c0,0.784,0.937,1.42,2.093,1.42s2.093-0.636,2.093-1.42
								c0-0.784-0.937-1.42-2.093-1.42S618.301,210.051,618.301,210.836z"/>
							<ellipse style="fill:#FECA74;" cx="620.394" cy="213.676" rx="2.093" ry="1.42"/>
							<path style="fill:#FECA74;" d="M618.301,216.516c0,0.784,0.937,1.42,2.093,1.42s2.093-0.636,2.093-1.42
								s-0.937-1.42-2.093-1.42S618.301,215.732,618.301,216.516z"/>
							<path style="fill:#FECA74;" d="M618.301,219.357c0,0.784,0.937,1.42,2.093,1.42s2.093-0.636,2.093-1.42
								c0-0.784-0.937-1.42-2.093-1.42S618.301,218.572,618.301,219.357z"/>
							<path style="fill:#FECA74;" d="M618.301,222.197c0,0.784,0.937,1.42,2.093,1.42s2.093-0.636,2.093-1.42
								c0-0.784-0.937-1.42-2.093-1.42S618.301,221.413,618.301,222.197z"/>
							<path style="fill:#FECA74;" d="M618.301,225.037c0,0.784,0.937,1.42,2.093,1.42s2.093-0.636,2.093-1.42
								s-0.937-1.42-2.093-1.42S618.301,224.253,618.301,225.037z"/>
							<ellipse style="fill:#FECA74;" cx="620.394" cy="227.878" rx="2.093" ry="1.42"/>
							<path style="fill:#FECA74;" d="M618.301,230.718c0,0.784,0.937,1.42,2.093,1.42s2.093-0.636,2.093-1.42
								c0-0.784-0.937-1.42-2.093-1.42S618.301,229.933,618.301,230.718z"/>
							<path style="fill:#FECA74;" d="M618.301,233.558c0,0.784,0.937,1.42,2.093,1.42s2.093-0.636,2.093-1.42
								c0-0.784-0.937-1.42-2.093-1.42S618.301,232.774,618.301,233.558z"/>
							<path style="fill:#FECA74;" d="M618.301,236.398c0,0.784,0.937,1.42,2.093,1.42s2.093-0.636,2.093-1.42
								s-0.937-1.42-2.093-1.42S618.301,235.614,618.301,236.398z"/>
							<ellipse style="fill:#FECA74;" cx="620.394" cy="239.239" rx="2.093" ry="1.42"/>
							<path style="fill:#FECA74;" d="M618.301,242.079c0,0.784,0.937,1.42,2.093,1.42s2.093-0.636,2.093-1.42
								s-0.937-1.42-2.093-1.42S618.301,241.295,618.301,242.079z"/>
							<path style="fill:#FECA74;" d="M618.301,244.919c0,0.784,0.937,1.42,2.093,1.42s2.093-0.636,2.093-1.42
								c0-0.784-0.937-1.42-2.093-1.42S618.301,244.135,618.301,244.919z"/>
							<path style="fill:#FECA74;" d="M618.301,247.759c0,0.784,0.937,1.42,2.093,1.42s2.093-0.636,2.093-1.42
								c0-0.784-0.937-1.42-2.093-1.42S618.301,246.975,618.301,247.759z"/>
							<ellipse style="fill:#FECA74;" cx="620.394" cy="250.6" rx="2.093" ry="1.42"/>
						</g>
						<g>
							<path style="fill:#FECA74;" d="M620.471,205.506c0.111,0.777,0.937,1.301,1.845,1.171c0.909-0.13,1.555-0.864,1.444-1.641
								c-0.111-0.776-0.937-1.301-1.845-1.171C621.007,203.995,620.36,204.73,620.471,205.506z"/>
							<path style="fill:#FECA74;" d="M620.872,208.318c0.111,0.776,0.937,1.301,1.845,1.171c0.909-0.13,1.555-0.864,1.444-1.64
								c-0.111-0.777-0.937-1.301-1.845-1.171C621.408,206.807,620.761,207.541,620.872,208.318z"/>
							<path style="fill:#FECA74;" d="M621.273,211.13c0.111,0.777,0.937,1.301,1.845,1.171c0.908-0.13,1.555-0.864,1.444-1.641
								c-0.111-0.777-0.937-1.301-1.845-1.171C621.809,209.619,621.162,210.353,621.273,211.13z"/>
							<path style="fill:#FECA74;" d="M621.674,213.941c0.111,0.777,0.937,1.301,1.845,1.171c0.909-0.13,1.555-0.864,1.445-1.641
								c-0.111-0.776-0.937-1.301-1.845-1.171C622.21,212.431,621.563,213.165,621.674,213.941z"/>
							<path style="fill:#FECA74;" d="M622.075,216.753c0.111,0.776,0.937,1.301,1.845,1.171c0.908-0.13,1.555-0.864,1.444-1.64
								c-0.111-0.777-0.937-1.301-1.845-1.171C622.611,215.242,621.964,215.977,622.075,216.753z"/>
							<path style="fill:#FECA74;" d="M622.476,219.565c0.111,0.777,0.937,1.301,1.845,1.171c0.909-0.13,1.555-0.864,1.444-1.641
								c-0.111-0.777-0.937-1.301-1.845-1.171C623.012,218.054,622.365,218.789,622.476,219.565z"/>
							<path style="fill:#FECA74;" d="M622.877,222.377c0.111,0.777,0.937,1.301,1.845,1.171c0.908-0.13,1.555-0.864,1.444-1.641
								c-0.111-0.776-0.937-1.301-1.845-1.171C623.413,220.866,622.766,221.601,622.877,222.377z"/>
							<path style="fill:#FECA74;" d="M623.278,225.189c0.111,0.776,0.937,1.301,1.845,1.171c0.909-0.13,1.555-0.864,1.444-1.64
								c-0.111-0.777-0.937-1.301-1.845-1.171C623.814,223.678,623.167,224.412,623.278,225.189z"/>
							<path style="fill:#FECA74;" d="M623.679,228.001c0.111,0.777,0.937,1.301,1.845,1.171c0.909-0.13,1.555-0.864,1.445-1.641
								c-0.111-0.777-0.937-1.301-1.845-1.171C624.215,226.49,623.568,227.224,623.679,228.001z"/>
							<path style="fill:#FECA74;" d="M624.08,230.813c0.111,0.777,0.937,1.301,1.845,1.171c0.908-0.13,1.555-0.864,1.444-1.641
								c-0.111-0.776-0.937-1.301-1.845-1.171C624.616,229.302,623.969,230.036,624.08,230.813z"/>
							<path style="fill:#FECA74;" d="M624.481,233.624c0.111,0.776,0.937,1.301,1.845,1.171c0.909-0.13,1.555-0.864,1.445-1.64
								c-0.111-0.777-0.937-1.301-1.845-1.171C625.016,232.113,624.37,232.848,624.481,233.624z"/>
							<path style="fill:#FECA74;" d="M624.881,236.436c0.111,0.777,0.937,1.301,1.845,1.171c0.908-0.13,1.555-0.864,1.444-1.641
								c-0.111-0.776-0.937-1.301-1.845-1.171C625.417,234.925,624.771,235.66,624.881,236.436z"/>
							<path style="fill:#FECA74;" d="M625.282,239.248c0.111,0.777,0.937,1.301,1.845,1.171c0.909-0.13,1.555-0.864,1.444-1.64
								c-0.111-0.777-0.937-1.301-1.845-1.171C625.818,237.737,625.172,238.472,625.282,239.248z"/>
							<path style="fill:#FECA74;" d="M625.683,242.06c0.111,0.776,0.937,1.301,1.845,1.171c0.908-0.13,1.555-0.864,1.444-1.64
								c-0.111-0.777-0.937-1.301-1.845-1.171C626.219,240.549,625.573,241.283,625.683,242.06z"/>
							<path style="fill:#FECA74;" d="M626.084,244.872c0.111,0.776,0.937,1.301,1.845,1.171c0.909-0.13,1.555-0.864,1.444-1.641
								c-0.111-0.776-0.937-1.301-1.845-1.171C626.62,243.361,625.974,244.095,626.084,244.872z"/>
							<path style="fill:#FECA74;" d="M626.485,247.684c0.111,0.776,0.937,1.301,1.845,1.171c0.909-0.13,1.555-0.864,1.445-1.64
								c-0.111-0.776-0.937-1.301-1.845-1.171C627.021,246.173,626.375,246.907,626.485,247.684z"/>
							<path style="fill:#FECA74;" d="M626.886,250.495c0.111,0.776,0.937,1.301,1.845,1.171c0.908-0.13,1.555-0.864,1.444-1.64
								c-0.111-0.777-0.937-1.301-1.845-1.171C627.422,248.984,626.776,249.719,626.886,250.495z"/>
						</g>
					</g>
				</g>
				<g>
					<g>
						<g>
							<path style="fill:#FF8B98;" d="M577.464,205.691c0,0-1.532-5.845-5.264-4.352c-2.473,0.989-3.962,11.77,1.091,13.436
								c3.822,1.259,5.095-2.773,5.095-2.773L577.464,205.691z"/>
							
								<path style="fill:none;stroke:#383838;stroke-width:0.4;stroke-linecap:round;stroke-linejoin:round;stroke-miterlimit:10;" d="
								M571.371,205.026c2.505,1.894,4.551,4.391,5.913,7.221"/>
						</g>
						<g>
							<path style="fill:#FF8B98;" d="M620.992,205.691c0,0,1.532-5.845,5.264-4.352c2.473,0.989,3.962,11.77-1.091,13.436
								c-3.822,1.259-5.095-2.773-5.095-2.773L620.992,205.691z"/>
							
								<path style="fill:none;stroke:#383838;stroke-width:0.4;stroke-linecap:round;stroke-linejoin:round;stroke-miterlimit:10;" d="
								M627.084,205.026c-2.505,1.894-4.55,4.391-5.913,7.221"/>
						</g>
					</g>
					<g>
						<g>
							<path style="fill:#FF8B98;" d="M599.253,235.853L599.253,235.853c-12.155,0-22.008-9.853-22.008-22.008v-16.216
								c0-12.155,9.853-22.008,22.008-22.008h0c12.155,0,22.008,9.853,22.008,22.008v16.216
								C621.261,225.999,611.408,235.853,599.253,235.853z"/>
							<g>
								
									<path style="fill:none;stroke:#383838;stroke-width:0.4;stroke-linecap:round;stroke-linejoin:round;stroke-miterlimit:10;" d="
									M600.601,199.588c0.138,5.156,0.571,10.304,1.297,15.411c-2.46,0.069-4.939,0.096-7.4,0.061"/>
								<g>
									
										<path style="fill:none;stroke:#383838;stroke-width:0.4;stroke-linecap:round;stroke-linejoin:round;stroke-miterlimit:10;" d="
										M582.933,204.662c1.049,0.727,2.34,1.1,3.615,1.044s2.529-0.54,3.51-1.355"/>
									<path style="fill:#FF7582;" d="M577.245,206.976v6.868c0,1.84,0.251,3.618,0.676,5.326
										c3.915,0.941,11.399,2.151,12.137-2.121C590.896,212.201,580.664,208.178,577.245,206.976z"/>
								</g>
								<g>
									
										<path style="fill:none;stroke:#383838;stroke-width:0.4;stroke-linecap:round;stroke-linejoin:round;stroke-miterlimit:10;" d="
										M615.522,204.662c-1.049,0.727-2.34,1.1-3.615,1.044c-1.275-0.056-2.529-0.54-3.51-1.355"/>
									<path style="fill:#FF7582;" d="M621.21,206.976v6.868c0,1.84-0.251,3.618-0.676,5.326
										c-3.915,0.941-11.399,2.151-12.137-2.121C607.56,212.201,617.792,208.178,621.21,206.976z"/>
								</g>
								<path style="fill:#FFFFFF;" d="M604.229,222.227c-3.582,0.53-7.333-0.165-10.487-1.943c0,0,0.44,5.96,4.885,6.762
									S604.229,222.227,604.229,222.227z"/>
							</g>
						</g>
						<g>
							<path style="fill:#FECA74;" d="M599.253,175.62L599.253,175.62c-12.155,0-22.008,9.853-22.008,22.008v7.227
								c0-12.155,9.853-22.008,22.008-22.008h0c12.155,0,22.008,9.853,22.008,22.008v-7.227
								C621.261,185.474,611.408,175.62,599.253,175.62z"/>
							<path style="fill:#FECA74;" d="M614.273,181.574c-3.934-3.682-9.206-5.953-15.02-5.953h0c-6.167,0-11.734,2.544-15.73,6.631
								c2.374,6.113,8.299,10.454,15.251,10.454C605.981,192.706,612.087,188.043,614.273,181.574z"/>
						</g>
						<g>
							<path style="fill:#FECA74;" d="M588.353,186.883c-0.083,0.582-0.703,0.976-1.384,0.878c-0.681-0.097-1.166-0.648-1.083-1.23
								c0.083-0.582,0.703-0.976,1.384-0.879C587.951,185.75,588.436,186.301,588.353,186.883z"/>
							<path style="fill:#FECA74;" d="M588.053,188.992c-0.083,0.582-0.703,0.976-1.384,0.879c-0.681-0.097-1.166-0.648-1.083-1.23
								c0.083-0.582,0.703-0.976,1.384-0.879C587.651,187.859,588.136,188.41,588.053,188.992z"/>
							<path style="fill:#FECA74;" d="M587.752,191.101c-0.083,0.582-0.703,0.976-1.384,0.878c-0.681-0.097-1.166-0.648-1.083-1.23
								c0.083-0.582,0.703-0.976,1.384-0.878C587.35,189.968,587.835,190.518,587.752,191.101z"/>
							<path style="fill:#FECA74;" d="M587.451,193.21c-0.083,0.582-0.703,0.976-1.384,0.878c-0.681-0.097-1.166-0.648-1.083-1.23
								c0.083-0.582,0.703-0.976,1.384-0.879C587.049,192.077,587.534,192.627,587.451,193.21z"/>
							<path style="fill:#FECA74;" d="M587.151,195.319c-0.083,0.582-0.703,0.976-1.384,0.878c-0.681-0.097-1.166-0.648-1.083-1.23
								c0.083-0.582,0.703-0.976,1.384-0.879C586.748,194.185,587.233,194.736,587.151,195.319z"/>
							<path style="fill:#FECA74;" d="M586.85,197.427c-0.083,0.582-0.703,0.976-1.384,0.879c-0.681-0.097-1.166-0.648-1.083-1.23
								c0.083-0.582,0.703-0.976,1.384-0.879C586.448,196.294,586.933,196.845,586.85,197.427z"/>
							<path style="fill:#FECA74;" d="M586.549,199.536c-0.083,0.582-0.703,0.976-1.384,0.879c-0.681-0.097-1.166-0.648-1.083-1.23
								c0.083-0.582,0.703-0.976,1.384-0.878C586.147,198.403,586.632,198.954,586.549,199.536z"/>
							<path style="fill:#FECA74;" d="M586.248,201.645c-0.083,0.582-0.703,0.976-1.384,0.878c-0.681-0.097-1.166-0.648-1.083-1.23
								c0.083-0.582,0.703-0.976,1.384-0.878C585.846,200.512,586.331,201.063,586.248,201.645z"/>
						</g>
					</g>
				</g>
			</g>
			<g>
				<path style="fill:#9BC6AA;" d="M501.598,290.653c0.559-1.568,2.07-2.549,3.213-3.759c0.841-0.891,1.513-1.965,1.808-3.154
					c0.295-1.189,0.188-2.499-0.42-3.563c-0.115,1.429-1.191,2.302-2.328,3.174c-0.649,0.498-1.35,0.954-1.842,1.608
					c-0.59,0.786-0.822,1.795-0.829,2.777C501.193,288.72,501.397,289.691,501.598,290.653z"/>
				<path style="fill:#9BC6AA;" d="M635.149,237.998c0.559-1.568,2.07-2.549,3.213-3.76c0.841-0.891,1.513-1.965,1.808-3.154
					c0.295-1.189,0.188-2.499-0.42-3.563c-0.115,1.429-1.191,2.302-2.328,3.174c-0.649,0.498-1.35,0.954-1.842,1.608
					c-0.591,0.786-0.822,1.795-0.829,2.777C634.744,236.065,634.949,237.036,635.149,237.998z"/>
				<path style="fill:#9BC6AA;" d="M683.23,339.791c1.508,0.703,2.344,2.3,3.442,3.55c0.808,0.921,1.814,1.69,2.971,2.095
					s2.47,0.421,3.586-0.085c-1.412-0.248-2.18-1.401-2.943-2.615c-0.435-0.693-0.824-1.434-1.428-1.984
					c-0.727-0.661-1.71-0.987-2.688-1.085C685.193,339.569,684.207,339.681,683.23,339.791z"/>
				<path style="fill:#9BC6AA;" d="M591.141,164.297c1.508,0.704,2.344,2.3,3.443,3.55c0.808,0.921,1.814,1.69,2.971,2.095
					c1.156,0.405,2.47,0.421,3.586-0.085c-1.412-0.248-2.18-1.401-2.943-2.615c-0.435-0.693-0.824-1.434-1.429-1.984
					c-0.727-0.661-1.71-0.987-2.688-1.085S592.117,164.187,591.141,164.297z"/>
				<path style="fill:#9BC6AA;" d="M500.528,341.986c1.508,0.703,2.344,2.3,3.443,3.55c0.808,0.921,1.814,1.69,2.971,2.095
					s2.47,0.421,3.586-0.085c-1.412-0.248-2.18-1.401-2.943-2.615c-0.435-0.693-0.824-1.434-1.428-1.984
					c-0.727-0.661-1.71-0.987-2.688-1.086C502.491,341.764,501.505,341.876,500.528,341.986z"/>
				<path style="fill:#9BC6AA;" d="M500.073,267.35c0.364,1.624-0.389,3.261-0.708,4.894c-0.235,1.202-0.23,2.469,0.156,3.632
					c0.386,1.163,1.175,2.213,2.258,2.788c-0.666-1.269-0.222-2.582,0.273-3.927c0.283-0.767,0.632-1.528,0.698-2.343
					c0.08-0.98-0.263-1.956-0.782-2.791C501.448,268.769,500.757,268.057,500.073,267.35z"/>
				<path style="fill:#9BC6AA;" d="M697.686,290.653c0.559-1.568,2.07-2.549,3.213-3.759c0.841-0.891,1.513-1.965,1.808-3.154
					c0.295-1.189,0.188-2.499-0.42-3.563c-0.115,1.429-1.191,2.302-2.328,3.174c-0.649,0.498-1.35,0.954-1.842,1.608
					c-0.591,0.786-0.822,1.795-0.829,2.777C697.281,288.72,697.486,289.691,697.686,290.653z"/>
				<path style="fill:#9BC6AA;" d="M696.162,267.35c0.364,1.624-0.389,3.261-0.708,4.894c-0.235,1.202-0.23,2.469,0.156,3.632
					c0.386,1.163,1.175,2.213,2.258,2.788c-0.666-1.269-0.222-2.582,0.273-3.927c0.283-0.767,0.632-1.528,0.698-2.343
					c0.08-0.98-0.263-1.956-0.782-2.791C697.537,268.769,696.845,268.057,696.162,267.35z"/>
			</g>
		</g>
	</g>
	<g>
		<g>
			<g>
				
					<ellipse transform="matrix(0.7071 -0.7071 0.7071 0.7071 -3.1657 306.6764)" style="fill:#E1F4E7;" cx="368.608" cy="157.159" rx="72.51" ry="72.51"/>
			</g>
			<g>
				<path style="fill:#9BC6AA;" d="M476.408,206.394c0.559-1.568,2.07-2.549,3.213-3.76c0.841-0.891,1.513-1.964,1.808-3.154
					c0.295-1.189,0.188-2.499-0.42-3.563c-0.115,1.429-1.191,2.301-2.328,3.174c-0.649,0.498-1.35,0.954-1.842,1.608
					c-0.591,0.786-0.822,1.794-0.829,2.777C476.003,204.46,476.208,205.432,476.408,206.394z"/>
				<path style="fill:#9BC6AA;" d="M475.577,192.231c-0.546-1.572,0.017-3.284,0.15-4.943c0.097-1.221-0.051-2.479-0.566-3.591
					c-0.515-1.112-1.418-2.066-2.559-2.514c0.806,1.186,0.513,2.54,0.174,3.933c-0.194,0.794-0.455,1.59-0.429,2.407
					c0.032,0.982,0.483,1.914,1.093,2.684C474.05,190.978,474.818,191.607,475.577,192.231z"/>
				<path style="fill:#9BC6AA;" d="M478.629,169.184c0.988,1.339,0.959,3.141,1.326,4.764c0.27,1.195,0.785,2.352,1.608,3.261
					c0.822,0.908,1.968,1.551,3.19,1.64c-1.122-0.893-1.245-2.273-1.334-3.704c-0.051-0.816-0.038-1.653-0.306-2.426
					c-0.322-0.928-1.03-1.684-1.842-2.238C480.46,169.928,479.539,169.555,478.629,169.184z"/>
			</g>
			<g>
				<path style="fill:#9BC6AA;" d="M251.415,206.394c0.559-1.568,2.07-2.549,3.213-3.76c0.841-0.891,1.513-1.964,1.808-3.154
					c0.295-1.189,0.188-2.499-0.42-3.563c-0.115,1.429-1.191,2.301-2.328,3.174c-0.649,0.498-1.35,0.954-1.842,1.608
					c-0.591,0.786-0.822,1.794-0.829,2.777C251.01,204.46,251.214,205.432,251.415,206.394z"/>
				<path style="fill:#9BC6AA;" d="M250.584,192.231c-0.546-1.572,0.017-3.284,0.15-4.943c0.097-1.221-0.051-2.479-0.566-3.591
					c-0.515-1.112-1.418-2.066-2.559-2.514c0.806,1.186,0.513,2.54,0.174,3.933c-0.194,0.794-0.455,1.59-0.429,2.407
					c0.032,0.982,0.483,1.914,1.093,2.684C249.057,190.978,249.825,191.607,250.584,192.231z"/>
				<path style="fill:#9BC6AA;" d="M253.636,169.184c0.988,1.339,0.959,3.141,1.326,4.764c0.27,1.195,0.785,2.352,1.608,3.261
					c0.822,0.908,1.968,1.551,3.19,1.64c-1.121-0.893-1.245-2.273-1.334-3.704c-0.051-0.816-0.038-1.653-0.306-2.426
					c-0.322-0.928-1.03-1.684-1.841-2.238C255.466,169.928,254.546,169.555,253.636,169.184z"/>
			</g>
		</g>
		<g>
			<ellipse style="fill:#E1F4E7;" cx="362.241" cy="295.185" rx="83.517" ry="8.74"/>
			<g>
				<g>
					<g>
						<path style="fill:#383838;" d="M329.569,267.14l7.08-19.284l57.695-2.696l9.558,22.568
							C403.902,267.729,345.646,274.886,329.569,267.14z"/>
						<path style="fill:#383838;" d="M280.86,279.633c0,0,15.402-18.623,58.006-24.442c42.604-5.818,45.044,10.323,45.044,10.323
							L280.86,279.633z"/>
					</g>
					<g>
						<g>
							<g>
								<g>
									<path style="fill:#D66449;" d="M301.177,187.632c-1.061,1.096-2.211,2.371-2.135,3.894
										c0.038,0.758,0.384,1.463,0.735,2.136c8.25,15.84,23.681,28.363,41.38,30.75c8.613,1.161,18.563-0.676,23.464-7.852
										c2.626-3.844,3.399-8.623,4.001-13.24c2.89-22.15,3.375-44.613,1.444-66.867c-0.504-5.809-1.201-11.714-3.598-17.029
										c-1.615-3.582-3.968-6.777-6.694-9.591c-1.595-1.646-9.103-12.046-10.356-9.647c-1.454,2.785-1.858,11.466-2.633,13.666
										c-1.329,3.77-2.772,7.499-4.322,11.183c-6.271,14.901-14.319,29.053-23.917,42.063
										C313.22,174.318,307.417,181.186,301.177,187.632z"/>
									<g>
										<g>
											<g>
												<path style="fill:#D66449;" d="M345.163,118.34c-4.218,9.712-9.768,18.822-15.306,27.825
													c-5.482,8.913-11.968,17.133-18.859,24.991c-3.833,4.371-7.786,8.636-11.758,12.881
													c-0.22,0.235,0.133,0.589,0.353,0.354c7.102-7.591,14.152-15.254,20.553-23.454c6.447-8.258,11.883-17.159,17.131-26.21
													c3.037-5.238,5.904-10.576,8.318-16.134C345.721,118.3,345.291,118.045,345.163,118.34L345.163,118.34z"/>
											</g>
										</g>
										<g>
											<g>
												<path style="fill:#D66449;" d="M299.019,184.423c-0.157,0.157-0.315,0.315-0.472,0.472
													c-0.045,0.045-0.073,0.113-0.073,0.177c0,0.061,0.027,0.135,0.073,0.177c0.048,0.044,0.11,0.076,0.177,0.073
													c0.066-0.003,0.129-0.025,0.177-0.073c0.157-0.157,0.315-0.315,0.472-0.472c0.045-0.045,0.073-0.113,0.073-0.177
													c0-0.061-0.027-0.135-0.073-0.177c-0.048-0.044-0.11-0.076-0.177-0.073C299.13,184.353,299.067,184.375,299.019,184.423
													L299.019,184.423z"/>
											</g>
										</g>
										<g>
											<g>
												<path style="fill:#D66449;" d="M328.952,150.678c-5.616,8.437-11.681,16.57-18.187,24.342
													c-3.21,3.834-6.523,7.582-9.937,11.237c-2.336,2.501-6.131,5.7-3.391,9.283c1.368,1.789,3.353,3.329,5.133,4.686
													c1.98,1.51,4.139,2.71,6.607,3.167c0.315,0.058,0.449-0.424,0.133-0.482c-4.219-0.78-7.819-3.863-10.748-6.851
													c-0.834-0.851-1.616-1.877-1.638-3.124c-0.024-1.38,0.855-2.598,1.71-3.597c1.406-1.643,2.968-3.167,4.428-4.762
													c6.092-6.655,11.856-13.61,17.268-20.829c3.138-4.186,6.154-8.462,9.053-12.818
													C329.563,150.662,329.13,150.412,328.952,150.678L328.952,150.678z"/>
											</g>
										</g>
										<g>
											<g>
												<path style="fill:#D66449;" d="M301.228,192.938c-0.241,5.543,1.718,11.096,5.494,15.183
													c3.698,4.001,8.936,6.371,14.359,6.658c0.322,0.017,0.321-0.483,0-0.5c-5.295-0.28-10.398-2.608-14.005-6.512
													c-3.689-3.992-5.582-9.418-5.348-14.829C301.742,192.617,301.242,192.617,301.228,192.938L301.228,192.938z"/>
											</g>
										</g>
									</g>
								</g>
								<g>
									<path style="fill:#D66449;" d="M433.224,187.632c1.061,1.096,2.211,2.371,2.135,3.894
										c-0.038,0.758-0.384,1.463-0.735,2.136c-8.25,15.84-23.681,28.363-41.38,30.75c-8.613,1.161-18.562-0.676-23.464-7.852
										c-2.625-3.844-3.399-8.623-4.001-13.24c-2.89-22.15-3.375-44.613-1.444-66.867c0.504-5.809,1.202-11.714,3.598-17.029
										c1.615-3.582,3.968-6.777,6.694-9.591c1.595-1.646,9.103-12.046,10.355-9.647c1.454,2.785,1.858,11.466,2.633,13.666
										c1.33,3.77,2.772,7.499,4.322,11.183c6.271,14.901,14.319,29.053,23.917,42.063
										C421.182,174.318,426.985,181.186,433.224,187.632z"/>
									<g>
										<g>
											<g>
												<path style="fill:#D66449;" d="M388.807,118.592c4.247,9.78,9.839,18.963,15.428,28.022
													c5.434,8.809,11.853,16.945,18.665,24.722c3.881,4.431,7.885,8.753,11.909,13.053c0.22,0.236,0.573-0.119,0.354-0.354
													c-7.05-7.535-14.047-15.142-20.412-23.274c-6.526-8.337-12.016-17.342-17.312-26.493
													c-2.994-5.172-5.817-10.445-8.199-15.929C389.111,118.046,388.68,118.3,388.807,118.592L388.807,118.592z"/>
											</g>
										</g>
										<g>
											<g>
												<path style="fill:#D66449;" d="M435.029,184.777c0.157,0.157,0.315,0.315,0.472,0.472
													c0.045,0.045,0.113,0.073,0.177,0.073c0.061,0,0.135-0.027,0.177-0.073c0.044-0.048,0.076-0.11,0.073-0.177
													c-0.003-0.066-0.025-0.129-0.073-0.177c-0.157-0.157-0.315-0.315-0.472-0.472c-0.045-0.045-0.113-0.073-0.177-0.073
													c-0.061,0-0.134,0.027-0.177,0.073c-0.044,0.048-0.076,0.11-0.073,0.177
													C434.959,184.666,434.981,184.729,435.029,184.777L435.029,184.777z"/>
											</g>
										</g>
										<g>
											<g>
												<path style="fill:#D66449;" d="M405.018,150.931c5,7.511,10.355,14.783,16.06,21.775
													c2.918,3.577,5.926,7.08,9.019,10.506c1.495,1.656,3.012,3.292,4.546,4.912c1.627,1.719,3.776,3.975,2.351,6.482
													c-1.113,1.959-3.392,3.6-5.138,4.974c-2.012,1.582-4.223,2.862-6.765,3.332c-0.316,0.058-0.182,0.54,0.133,0.482
													c4.191-0.775,7.548-3.723,10.549-6.571c1.214-1.152,2.36-2.55,2.18-4.329c-0.193-1.909-1.709-3.405-2.957-4.723
													c-6.966-7.362-13.54-15.089-19.66-23.168c-3.438-4.538-6.732-9.184-9.886-13.923
													C405.272,150.412,404.839,150.662,405.018,150.931L405.018,150.931z"/>
											</g>
										</g>
										<g>
											<g>
												<path style="fill:#D66449;" d="M432.674,192.938c0.235,5.411-1.659,10.837-5.347,14.829
													c-3.607,3.904-8.711,6.232-14.005,6.512c-0.32,0.017-0.322,0.517,0,0.5c5.423-0.287,10.661-2.657,14.359-6.658
													c3.776-4.086,5.734-9.64,5.494-15.183C433.16,192.618,432.66,192.616,432.674,192.938L432.674,192.938z"/>
											</g>
										</g>
									</g>
								</g>
							</g>
							<g>
								<g>
									<g>
										<path style="fill:#FDC896;" d="M399.569,180.226c0,0,3.821-12.96,0.665-17.446c-3.157-4.486-20.938-7.773-22.6-10.598
											c-1.661-2.825,0.535-16.577,0.535-16.577h-10.997h-10.998c0,0,2.363,13.617,0.701,16.442s-19.609,6.247-22.765,10.733
											c-3.157,4.486,0.665,17.446,0.665,17.446s-0.767,7.586,0.064,15.395c0.831,7.809,7.598,13.515,8.004,13.681
											c0.406,0.166,3.895,27.249,3.895,27.249h20.435h20.435c0,0,3.489-27.082,3.895-27.249
											c0.406-0.166,6.857-6.669,7.688-14.478C400.02,187.016,399.569,180.226,399.569,180.226z"/>
										<path style="fill:#FFB27D;" d="M378.168,135.606h-10.997h-6.467l-4.386,0.883c0.236,1.479,0.702,4.605,0.962,7.712
											c1.789,2.679,4.585,5.091,8.869,5.189c4.752,0.11,8.434-2.134,10.969-4.47
											C377.402,140.408,378.168,135.606,378.168,135.606z"/>
									</g>
									<g>
										<g>
											<path style="fill:#FDC896;" d="M346.075,156.783c0,0-9.839-4.738-16.836-0.924c-6.997,3.814-7.323,65.814-7.323,65.814
												l-45.751,3.94l-0.465,8.87c0,0,53.388,11.879,58.42,3.463c3.281-5.488,6.806-32.322,6.806-32.322L346.075,156.783z"/>
											<g>
												<g>
													<path style="fill:#FFAC80;" d="M332.374,231.092c-3.642,0-6.595,2.953-6.595,6.595c0,1.117,0.28,2.168,0.77,3.091
														c3.832-0.345,6.601-1.211,7.571-2.833c0.679-1.135,1.257-3.237,1.748-5.844
														C334.855,231.466,333.66,231.092,332.374,231.092z"/>
												</g>
												<g>
													
														<line style="fill:none;stroke:#383838;stroke-width:0.4;stroke-linecap:round;stroke-linejoin:round;stroke-miterlimit:10;" x1="284.571" y1="224.889" x2="327.616" y2="221.224"/>
													
														<path style="fill:none;stroke:#383838;stroke-width:0.4;stroke-linecap:round;stroke-linejoin:round;stroke-miterlimit:10;" d="
														M325.511,165.607c0,0-3.76,29.507-3.341,42.776"/>
												</g>
											</g>
										</g>
										<g>
											<path style="fill:#A869B2;" d="M246.221,216.47c0,0-1.055-1.836-0.844-2.163c0.413-0.639,1.986,1.132,1.986,1.132
												L246.221,216.47z"/>
											<path style="fill:#FDC896;" d="M276.166,225.613c0,0-4.992-3.462-10.522-5.544c0,0-8.87-8.367-9.804-8.08
												c-0.934,0.287-1.76,2.083-1.436,2.693s6.787,7.757,6.751,8.403c-0.036,0.646-1.962,3.951-2.932,3.664
												c-0.97-0.287-11.145-12.821-12.474-12.246c-1.329,0.575,8.008,13.754,7.793,13.861c-0.215,0.108-4.603-2.932-4.962-3.219
												c-0.359-0.287-2.367-8.5-2.96-8.487c-1.82,0.038-0.584,10.797,0.001,11.461c0.585,0.664,9.896,4.771,9.896,4.771
												L276.166,225.613z"/>
											<path style="fill:#FDC896;" d="M249.031,226.661c0,0,0.626-5.994,1.021-7.08c0.395-1.086,4.347-7.706,4.643-7.739
												c0.296-0.033,1.021,2.47,0,5.236c-1.021,2.766-1.362,4.558-1.362,4.558l-0.746,6.869L249.031,226.661z"/>
											<g>
												
													<path style="fill:none;stroke:#383838;stroke-width:0.4;stroke-linecap:round;stroke-linejoin:round;stroke-miterlimit:10;" d="
													M249.537,222.435c0.173-1.266,0.362-2.431,0.515-2.853c0.395-1.086,4.347-7.706,4.643-7.739
													c0.296-0.033,1.021,2.47,0,5.236c-1.021,2.766-1.362,4.558-1.362,4.558l-0.257,2.368"/>
												<path style="fill:#A869B2;" d="M252.506,214.878c0,0,0.939,0.782,1.766-0.656c0.827-1.438,0.473-3.133,0.473-3.133
													L252.506,214.878z"/>
											</g>
											<g>
												
													<path style="fill:none;stroke:#383838;stroke-width:0.4;stroke-linecap:round;stroke-linejoin:round;stroke-miterlimit:10;" d="
													M246.722,219.305l1.857,5.839c0,0,5.667,3.956,6.166,4.033"/>
												<path style="fill:#A869B2;" d="M244.665,219.823c0,0,1.081-0.17,1.008-1.008c-0.164-1.878-0.688-2.414-0.688-2.414
													S244.557,217.577,244.665,219.823z"/>
											</g>
											<g>
												<g>
													<path style="fill:#FDC896;" d="M276.166,225.613c0,0-4.061-2.117-10.606,0.889c-6.545,3.005-8.284,4.699-8.284,4.699
														s-13.553-4.499-15.022-1.293c0,0,13.823,6.478,14.758,6.344c0.935-0.134,18.689-1.768,18.689-1.768L276.166,225.613z"
														/>
												</g>
												<g>
													<path style="fill:#A869B2;" d="M246.126,231.698c0,0,0.446-1.145-1.365-1.787c-1.81-0.642-2.979-0.16-2.979-0.16
														L246.126,231.698z"/>
													
														<path style="fill:none;stroke:#383838;stroke-width:0.4;stroke-linecap:round;stroke-linejoin:round;stroke-miterlimit:10;" d="
														M243.124,229.101c1.373-0.555,4.904-0.723,13.975,2.334c0,0,6.988-6.128,13.492-5.644"/>
												</g>
											</g>
										</g>
									</g>
									<g>
										<g>
											<path style="fill:#FDC896;" d="M387.703,156.783c0,0,9.839-4.738,16.836-0.924c6.997,3.814,7.323,65.814,7.323,65.814
												l45.75,3.94l0.465,8.87c0,0-53.388,11.879-58.42,3.463c-3.281-5.488-6.806-32.322-6.806-32.322L387.703,156.783z"/>
											<g>
												<g>
													<path style="fill:#FFAC80;" d="M401.404,231.092c3.642,0,6.595,2.953,6.595,6.595c0,1.117-0.28,2.168-0.77,3.091
														c-3.832-0.345-6.601-1.211-7.571-2.833c-0.679-1.135-1.257-3.237-1.748-5.844
														C398.923,231.466,400.119,231.092,401.404,231.092z"/>
													<path style="fill:#FFAC80;" d="M404.539,155.858c1.135,0.619,2.094,2.775,2.905,5.943
														c-1.025,0.657-2.241,1.042-3.549,1.042c-3.642,0-6.595-2.953-6.595-6.595c0-0.649,0.098-1.274,0.272-1.866
														C399.915,154.315,402.365,154.673,404.539,155.858z"/>
												</g>
												<g>
													
														<line style="fill:none;stroke:#383838;stroke-width:0.4;stroke-linecap:round;stroke-linejoin:round;stroke-miterlimit:10;" x1="449.208" y1="224.889" x2="406.162" y2="221.224"/>
													
														<path style="fill:none;stroke:#383838;stroke-width:0.4;stroke-linecap:round;stroke-linejoin:round;stroke-miterlimit:10;" d="
														M408.267,165.607c0,0,3.76,29.507,3.341,42.776"/>
													
														<line style="fill:none;stroke:#383838;stroke-width:0.4;stroke-linecap:round;stroke-linejoin:round;stroke-miterlimit:10;" x1="390.839" y1="173.879" x2="392.058" y2="186.078"/>
												</g>
											</g>
										</g>
										<g>
											<path style="fill:#A869B2;" d="M487.557,216.47c0,0,1.055-1.836,0.844-2.163c-0.414-0.639-1.986,1.132-1.986,1.132
												L487.557,216.47z"/>
											<path style="fill:#FDC896;" d="M457.613,225.613c0,0,4.992-3.462,10.522-5.544c0,0,8.87-8.367,9.804-8.08
												c0.934,0.287,1.76,2.083,1.436,2.693c-0.323,0.611-6.787,7.757-6.751,8.403c0.036,0.646,1.962,3.951,2.932,3.664
												c0.97-0.287,11.145-12.821,12.474-12.246c1.329,0.575-8.008,13.754-7.793,13.861c0.215,0.108,4.603-2.932,4.962-3.219
												c0.359-0.287,2.367-8.5,2.96-8.487c1.82,0.038,0.583,10.797-0.001,11.461c-0.585,0.664-9.896,4.771-9.896,4.771
												L457.613,225.613z"/>
											<path style="fill:#FDC896;" d="M484.747,226.661c0,0-0.626-5.994-1.021-7.08c-0.395-1.086-4.347-7.706-4.643-7.739
												c-0.296-0.033-1.021,2.47,0,5.236c1.021,2.766,1.362,4.558,1.362,4.558l0.746,6.869L484.747,226.661z"/>
											<g>
												
													<path style="fill:none;stroke:#383838;stroke-width:0.4;stroke-linecap:round;stroke-linejoin:round;stroke-miterlimit:10;" d="
													M484.242,222.435c-0.173-1.266-0.362-2.431-0.515-2.853c-0.395-1.086-4.347-7.706-4.643-7.739
													c-0.296-0.033-1.021,2.47,0,5.236c1.021,2.766,1.362,4.558,1.362,4.558l0.257,2.368"/>
												<path style="fill:#A869B2;" d="M481.272,214.878c0,0-0.939,0.782-1.766-0.656c-0.828-1.438-0.473-3.133-0.473-3.133
													L481.272,214.878z"/>
											</g>
											<g>
												
													<path style="fill:none;stroke:#383838;stroke-width:0.4;stroke-linecap:round;stroke-linejoin:round;stroke-miterlimit:10;" d="
													M487.056,219.305l-1.857,5.839c0,0-5.667,3.956-6.167,4.033"/>
												<path style="fill:#A869B2;" d="M489.114,219.823c0,0-1.081-0.17-1.008-1.008c0.164-1.878,0.688-2.414,0.688-2.414
													S489.221,217.577,489.114,219.823z"/>
											</g>
											<g>
												<g>
													<path style="fill:#FDC896;" d="M457.613,225.613c0,0,4.061-2.117,10.606,0.889c6.544,3.005,8.284,4.699,8.284,4.699
														s13.553-4.499,15.022-1.293c0,0-13.823,6.478-14.758,6.344c-0.935-0.134-18.689-1.768-18.689-1.768L457.613,225.613z"
														/>
												</g>
												<g>
													<path style="fill:#A869B2;" d="M487.652,231.698c0,0-0.446-1.145,1.365-1.787c1.81-0.642,2.979-0.16,2.979-0.16
														L487.652,231.698z"/>
													
														<path style="fill:none;stroke:#383838;stroke-width:0.4;stroke-linecap:round;stroke-linejoin:round;stroke-miterlimit:10;" d="
														M490.654,229.101c-1.373-0.555-4.904-0.723-13.975,2.334c0,0-6.988-6.128-13.492-5.644"/>
												</g>
											</g>
										</g>
									</g>
								</g>
								<g>
									<path style="fill:#FF8B98;" d="M342.841,209.302l1.473,25.369c0,0-8.334,9.092-15.051,22.608
										c4.877-0.987,9.857-1.502,14.814-1.798c5.989-0.357,11.993-0.354,17.986-0.601c6.879-0.284,13.822-0.862,20.473-2.741
										c4.785-1.352,9.328-3.46,13.192-6.512c-1.639-2.738-2.852-5.413-3.176-7.685l2.78-20.019l20.113-4.833l-5.49-36.112
										c0,0-55.277,21.34-72.804-22.539c0,0-6.609-1.527-9.534,1.416c-2.925,2.943-7.83,31.139-7.83,31.139l14.39,3.854
										C334.176,190.849,333.191,205.845,342.841,209.302z"/>
									<g>
										<g>
											
												<path style="fill:none;stroke:#383838;stroke-width:0.4;stroke-linecap:round;stroke-linejoin:round;stroke-miterlimit:10;" d="
												M337.15,154.44c0,0,11.277,41.746,72.804,22.539"/>
											<g>
												
													<path style="fill:none;stroke:#383838;stroke-width:0.4;stroke-linecap:round;stroke-linejoin:round;stroke-miterlimit:10;" d="
													M334.461,186.45c0,0-2.627,18.555,8.38,22.853l2.538,0.38"/>
												
													<line style="fill:none;stroke:#383838;stroke-width:0.4;stroke-linecap:round;stroke-linejoin:round;stroke-miterlimit:10;" x1="342.841" y1="209.302" x2="344.333" y2="237.769"/>
											</g>
											<g>
												
													<path style="fill:none;stroke:#383838;stroke-width:0.4;stroke-linecap:round;stroke-linejoin:round;stroke-miterlimit:10;" d="
													M403.261,190.849c0,0,0.792,15.506-8.665,18.454l-2.538,0.38"/>
												
													<line style="fill:none;stroke:#383838;stroke-width:0.4;stroke-linecap:round;stroke-linejoin:round;stroke-miterlimit:10;" x1="396.631" y1="208.383" x2="392.058" y2="239.659"/>
											</g>
											<g>
												
													<line style="fill:none;stroke:#383838;stroke-width:0.4;stroke-linecap:round;stroke-linejoin:round;stroke-miterlimit:10;" x1="395.285" y1="217.588" x2="415.445" y2="213.09"/>
												
													<line style="fill:none;stroke:#383838;stroke-width:0.4;stroke-linecap:round;stroke-linejoin:round;stroke-miterlimit:10;" x1="415.141" y1="211.094" x2="395.614" y2="215.339"/>
											</g>
											<g>
												
													<line style="fill:none;stroke:#383838;stroke-width:0.4;stroke-linecap:round;stroke-linejoin:round;stroke-miterlimit:10;" x1="334.176" y1="190.849" x2="319.786" y2="186.995"/>
												
													<line style="fill:none;stroke:#383838;stroke-width:0.4;stroke-linecap:round;stroke-linejoin:round;stroke-miterlimit:10;" x1="320.173" y1="184.836" x2="334.159" y2="188.063"/>
											</g>
										</g>
									</g>
								</g>
							</g>
						</g>
						<g>
							<g>
								<ellipse style="fill:#FDC896;" cx="367.171" cy="119.259" rx="18.054" ry="25.046"/>
								<g>
									<path style="fill:#D66449;" d="M385.285,100.878c-0.738-3.104-11.331-8.016-18.114-8.171v-0.007
										c-0.054,0-0.11,0.003-0.164,0.004c-0.054-0.001-0.111-0.004-0.164-0.004v0.007c-6.771,0.156-16.988,5.067-17.726,8.171
										c-0.75,3.154,0.086,15.945,0.086,15.945c11.964,0.05,16.909-12.776,17.81-15.452c0.966,2.676,6.223,15.502,18.187,15.452
										C385.199,116.823,386.035,104.032,385.285,100.878z"/>
									<g>
										<g>
											<g>
												<g>
													<path style="fill:#D66449;" d="M363.297,93.058c-3.014,0.77-6.003,1.706-8.871,2.919
														c-2.227,0.942-4.76,2.189-6.05,4.342c-1.355,2.26-1.389,5.359-1.633,7.911c-0.314,3.287-0.452,6.586-0.436,9.887
														c0.002,0.322,0.502,0.322,0.5,0c-0.013-2.818,0.083-5.635,0.309-8.444c0.225-2.797,0.199-6.191,1.492-8.739
														c1.269-2.501,4.286-3.822,6.759-4.807c2.624-1.045,5.328-1.889,8.064-2.588
														C363.741,93.46,363.609,92.978,363.297,93.058L363.297,93.058z"/>
												</g>
											</g>
											<g>
												<g>
													<path style="fill:#D66449;" d="M367.136,94.996c-1.13-1.41-1.971-3.041-2.449-4.785c-0.175-0.64-0.757-2.521,0.402-2.6
														c0.835-0.057,1.579,1.093,1.909,1.73c0.194,0.374,0.336,0.774,0.426,1.186c0.047,0.218,0.081,0.44,0.094,0.663
														c0,0.006,0.027,0.222,0.007,0.259c-0.154,0.295-0.381-0.002-0.445-0.177c-0.145-0.395-0.101-0.931-0.087-1.346
														c0.017-0.512,0.084-1.02,0.198-1.519c0.181-0.787,0.522-2.24,1.526-2.316c1.003-0.076,1.2,1.481,1.229,2.174
														c0.094,2.198-1.038,4.166-2.222,5.929c-0.18,0.268,0.253,0.518,0.432,0.252c1.417-2.11,2.806-4.686,2.131-7.313
														c-0.237-0.925-0.972-1.858-2.028-1.437c-1.053,0.42-1.407,1.834-1.604,2.825c-0.124,0.628-0.182,1.271-0.164,1.911
														c0.014,0.491,0.005,1.162,0.441,1.492c0.243,0.184,0.609,0.222,0.859,0.029c0.366-0.283,0.231-0.879,0.169-1.269
														c-0.176-1.1-0.72-2.176-1.536-2.941c-0.73-0.684-1.919-0.96-2.398,0.152c-0.23,0.535-0.123,1.131-0.008,1.68
														c0.152,0.723,0.366,1.433,0.636,2.121c0.52,1.324,1.239,2.545,2.128,3.654
														C366.984,95.601,367.335,95.245,367.136,94.996L367.136,94.996z"/>
												</g>
											</g>
										</g>
										<g>
											<g>
												<g>
													<path style="fill:#D66449;" d="M367.118,100.216c0.266,4.257-1.832,8.302-5.023,11.034
														c-3.496,2.994-8.109,4.337-12.614,4.776c-0.317,0.031-0.32,0.531,0,0.5c4.647-0.453,9.363-1.835,12.967-4.923
														c3.282-2.812,5.443-7.011,5.169-11.388C367.598,99.896,367.098,99.894,367.118,100.216L367.118,100.216z"/>
												</g>
											</g>
											<g>
												<g>
													<path style="fill:#D66449;" d="M366.9,101.332c1.226,5.093,3.577,10.099,8.036,13.113
														c0.267,0.181,0.518-0.252,0.252-0.432c-4.349-2.939-6.613-7.855-7.807-12.814
														C367.307,100.887,366.825,101.019,366.9,101.332L366.9,101.332z"/>
												</g>
											</g>
											<g>
												<g>
													<path style="fill:#D66449;" d="M366.861,101.338c0.444,3.727,1.479,7.345,3.077,10.741
														c0.137,0.291,0.568,0.037,0.432-0.252c-1.557-3.31-2.576-6.856-3.009-10.489
														C367.323,101.022,366.823,101.018,366.861,101.338L366.861,101.338z"/>
												</g>
											</g>
										</g>
									</g>
								</g>
							</g>
							<g>
								<g>
									<g>
										<path style="fill:#FDC896;" d="M385.199,116.823c0,0,1.19-4.538,4.087-3.379c1.92,0.768,3.076,9.139-0.847,10.432
											c-2.967,0.978-3.956-2.153-3.956-2.153L385.199,116.823z"/>
										
											<path style="fill:none;stroke:#383838;stroke-width:0.4;stroke-linecap:round;stroke-linejoin:round;stroke-miterlimit:10;" d="
											M385.755,121.912c1.058-2.197,2.646-4.136,4.591-5.606"/>
									</g>
									<g>
										<path style="fill:#FDC896;" d="M349.202,116.823c0,0-1.19-4.538-4.087-3.379c-1.92,0.768-3.076,9.139,0.847,10.432
											c2.967,0.978,3.956-2.153,3.956-2.153L349.202,116.823z"/>
										
											<path style="fill:none;stroke:#383838;stroke-width:0.4;stroke-linecap:round;stroke-linejoin:round;stroke-miterlimit:10;" d="
											M344.472,116.306c1.945,1.47,3.533,3.409,4.591,5.606"/>
									</g>
								</g>
								<g>
									<g>
										
											<path style="fill:none;stroke:#383838;stroke-width:0.4;stroke-linecap:round;stroke-linejoin:round;stroke-miterlimit:10;" d="
											M364.835,126.651c1.512-0.471,2.888-1.367,3.93-2.559c0.141,1.143,0.077,2.534,0.006,3.683"/>
										<g>
											<g>
												<path style="fill:#D66449;" d="M370.079,135.457c-0.777-0.304-1.286-0.881-2.719-0.919v-0.005
													c-0.014,0-0.025,0.002-0.038,0.002c-0.014,0-0.024-0.002-0.038-0.002v0.005c-1.434,0.037-1.943,0.615-2.719,0.919
													c-0.791,0.31-1.917-0.063-1.917-0.063c1.195,2.939,4.3,2.8,4.675,2.772c0.375,0.028,3.48,0.167,4.675-2.772
													C371.996,135.394,370.87,135.767,370.079,135.457z"/>
												
													<path style="fill:none;stroke:#383838;stroke-width:0.4;stroke-linecap:round;stroke-linejoin:round;stroke-miterlimit:10;" d="
													M362.105,135.082c0,0,1.222,1.409,5.174,1.423c3.952,0.014,5.258-1.423,5.258-1.423"/>
											</g>
											
												<path style="fill:none;stroke:#383838;stroke-width:0.4;stroke-linecap:round;stroke-linejoin:round;stroke-miterlimit:10;" d="
												M362.906,132.236c-0.067,0.144,0.141,0.317,0.271,0.224c0.039-0.063,0.057-0.139,0.05-0.213
												c-0.051-0.033-0.107-0.067-0.168-0.068c-0.061-0.001-0.127,0.047-0.122,0.108"/>
										</g>
									</g>
									<g>
										<g>
											<path style="fill:#FFAC80;" d="M349.118,119.363c0.011,3.677,0.595,7.163,1.632,10.304
												c2.97,1.425,10.215,4.383,11.269-0.127C363.235,124.34,351.213,120.065,349.118,119.363z"/>
											<path style="fill:#FFAC80;" d="M385.223,119.367c-2.13,0.715-14.103,4.984-12.889,10.174
												c1.053,4.503,8.277,1.562,11.256,0.133C384.626,126.532,385.212,123.044,385.223,119.367z"/>
										</g>
										<g>
											
												<path style="fill:none;stroke:#383838;stroke-width:0.4;stroke-linecap:round;stroke-linejoin:round;stroke-miterlimit:10;" d="
												M353.897,121.415c0.669,0.718,1.583,1.178,2.534,1.424c0.951,0.245,1.942,0.288,2.924,0.269"/>
											
												<path style="fill:none;stroke:#383838;stroke-width:0.4;stroke-linecap:round;stroke-linejoin:round;stroke-miterlimit:10;" d="
												M379.615,121.415c-0.669,0.718-1.583,1.178-2.533,1.424c-0.951,0.245-1.942,0.288-2.924,0.269"/>
										</g>
									</g>
								</g>
							</g>
						</g>
					</g>
				</g>
				<g>
					<g>
						<path style="fill:#383838;" d="M451.3,284.146c0,0-15.402-18.623-58.006-24.441s-45.044,10.323-45.044,10.323L451.3,284.146z"
							/>
						<g>
							<g>
								<path style="fill:#FDC896;" d="M371.088,265.671c0,0,84.121,6.858,81.601,22.618c-3.455,21.608-31.901,24.526-90.558-10.977
									c0,0-24.354-7.203-29.843-10.977c0,0-9.262,4.459-10.977,2.916c-1.715-1.544,7.718-13.721,10.977-13.206
									c3.259,0.515,9.776,6.517,13.378,5.317c3.602-1.201,9.262-4.974,12.863-3.43c3.602,1.544,5.317,6.86,5.317,6.86
									L371.088,265.671z"/>
								
									<path style="fill:none;stroke:#383838;stroke-width:0.4;stroke-linecap:round;stroke-linejoin:round;stroke-miterlimit:10;" d="
									M405.614,298.969c-12.046-4.316-26.498-11.375-43.483-21.656c0,0-24.354-7.203-29.843-10.977c0,0-9.262,4.459-10.977,2.916
									c-1.715-1.544,7.718-13.721,10.977-13.206c3.259,0.515,9.776,6.517,13.378,5.317c3.602-1.201,9.262-4.974,12.863-3.43
									c3.602,1.544,5.317,6.86,5.317,6.86l7.241,0.879c0,0,11.227,0.915,25.355,2.845"/>
							</g>
							<g>
								<path style="fill:#FF8B98;" d="M419.45,284.928c-1.644-3.978-3.735-7.876-6.533-11.169c-1.012-1.191-2.149-2.247-3.336-3.25
									c21.772,3.661,44.433,9.488,43.107,17.78c-1.887,11.805-11.235,18.031-28.893,15.462
									C423.363,297.297,421.92,290.904,419.45,284.928z"/>
								<g>
									
										<path style="fill:none;stroke:#383838;stroke-width:0.4;stroke-linecap:round;stroke-linejoin:round;stroke-miterlimit:10;" d="
										M401.493,269.234c0,0,33.011,4.275,43.85,10.736"/>
									
										<path style="fill:none;stroke:#383838;stroke-width:0.4;stroke-linecap:round;stroke-linejoin:round;stroke-miterlimit:10;" d="
										M410.009,270.509c0,0,9.686,9.589,12.411,23.802"/>
									
										<path style="fill:none;stroke:#383838;stroke-width:0.4;stroke-linecap:round;stroke-linejoin:round;stroke-miterlimit:10;" d="
										M417.392,276.803c0,0,7.435,10.614,8.606,27.105"/>
								</g>
							</g>
						</g>
					</g>
					<g>
						<g>
							<path style="fill:#FDC896;" d="M361.072,261.158c0,0-84.121,6.858-81.601,22.618c3.455,21.608,31.901,24.526,90.558-10.977
								c0,0,24.354-7.203,29.843-10.977c0,0,9.262,4.459,10.977,2.916c1.715-1.544-7.718-13.721-10.977-13.206
								c-3.259,0.515-9.776,6.517-13.378,5.317c-3.602-1.201-9.262-4.974-12.863-3.43c-3.602,1.544-5.317,6.86-5.317,6.86
								L361.072,261.158z"/>
							
								<path style="fill:none;stroke:#383838;stroke-width:0.4;stroke-linecap:round;stroke-linejoin:round;stroke-miterlimit:10;" d="
								M326.546,294.456c12.046-4.316,26.498-11.375,43.483-21.656c0,0,24.354-7.203,29.843-10.977c0,0,9.262,4.459,10.977,2.916
								c1.715-1.544-7.718-13.721-10.977-13.206c-3.259,0.515-9.776,6.517-13.378,5.317c-3.602-1.201-9.262-4.974-12.863-3.43
								c-3.602,1.544-5.317,6.86-5.317,6.86l-7.242,0.879c0,0-11.227,0.915-25.355,2.845"/>
						</g>
						<g>
							<path style="fill:#FF8B98;" d="M312.71,280.415c1.644-3.978,3.735-7.875,6.533-11.169c1.012-1.191,2.15-2.247,3.336-3.25
								c-21.772,3.661-44.433,9.488-43.107,17.78c1.887,11.805,11.235,18.031,28.892,15.462
								C308.797,292.784,310.24,286.391,312.71,280.415z"/>
							<g>
								
									<path style="fill:none;stroke:#383838;stroke-width:0.4;stroke-linecap:round;stroke-linejoin:round;stroke-miterlimit:10;" d="
									M330.667,264.721c0,0-33.011,4.275-43.85,10.736"/>
								
									<path style="fill:none;stroke:#383838;stroke-width:0.4;stroke-linecap:round;stroke-linejoin:round;stroke-miterlimit:10;" d="
									M322.151,265.996c0,0-9.686,9.589-12.411,23.802"/>
								
									<path style="fill:none;stroke:#383838;stroke-width:0.4;stroke-linecap:round;stroke-linejoin:round;stroke-miterlimit:10;" d="
									M314.768,272.29c0,0-7.435,10.614-8.606,27.105"/>
							</g>
						</g>
					</g>
				</g>
			</g>
		</g>
	</g>
</g>
</svg>
